<svg width="72" height="73" viewBox="0 0 72 73" fill="none" xmlns="http://www.w3.org/2000/svg">
<path d="M41.8656 21.9678H30.1343L21.8404 30.275V42.0251L30.1343 50.3323H41.8656L50.1595 42.0251V30.275L41.8656 21.9678Z" fill="#050508"/>
<path d="M21.8404 50.3328H14.1595C11.4671 50.3328 8.95758 49.5662 6.81384 48.2603C5.68609 52.9108 6.91882 58.0159 10.5425 61.6488C14.1696 65.2783 19.2665 66.513 23.9096 65.3834C22.6057 63.2363 21.8404 60.7261 21.8404 58.026V50.3328Z" fill="#712D85"/>
<path d="M50.1594 21.9679H57.8403C60.5327 21.9679 63.0422 22.7345 65.186 24.0438C66.3137 19.3933 65.081 14.2848 61.4573 10.6553C58.6904 7.88397 55.0701 6.5 51.443 6.5C50.3152 6.5 49.1909 6.64925 48.0902 6.91723C49.3941 9.06441 50.1594 11.5779 50.1594 14.2746V21.9679Z" fill="#712D85"/>
<path d="M15.9748 36.1502L10.5426 30.7093C8.63932 28.803 7.40659 26.4828 6.81392 24.0405C2.73302 26.5303 0 31.0146 0 36.1502C0 41.2858 2.73302 45.7702 6.81392 48.2599C7.40659 45.8176 8.63932 43.4975 10.5426 41.5911L15.9748 36.1502Z" fill="#E90E8B"/>
<path d="M72.0001 36.1502C72.0001 31.0146 69.267 26.5303 65.1861 24.0405C64.5935 26.4828 63.3607 28.803 61.4574 30.7093L56.0253 36.1502L61.4574 41.5911C63.3607 43.4975 64.5935 45.8176 65.1861 48.2599C69.267 45.7702 72.0001 41.2858 72.0001 36.1502Z" fill="#E90E8B"/>
<path d="M21.8404 50.3327V42.0255L15.9748 36.1504L10.5426 41.5913C8.6393 43.4976 7.40657 45.8178 6.8139 48.2601C8.95765 49.566 11.4671 50.3327 14.1595 50.3327H21.8404Z" fill="#65255E"/>
<path d="M50.1597 21.9677V30.2749L56.0253 36.15L61.4575 30.7091C63.3608 28.8028 64.5935 26.4826 65.1862 24.0403C63.0424 22.731 60.5329 21.9644 57.8406 21.9644H50.1597V21.9677Z" fill="#65255E"/>
<path d="M21.8404 21.9679V14.2746C21.8404 11.5779 22.6057 9.06441 23.9096 6.91723C22.8089 6.64925 21.6846 6.5 20.5568 6.5C16.9331 6.5 13.3094 7.88397 10.5425 10.6553C6.91882 14.2848 5.68609 19.3933 6.81384 24.0438C8.95758 22.7345 11.4671 21.9679 14.1595 21.9679H21.8404Z" fill="#F2C619"/>
<path d="M50.1594 50.3328V58.026C50.1594 60.7227 49.3941 63.2363 48.0902 65.3834C52.7333 66.513 57.8302 65.2783 61.4573 61.6488C65.081 58.0159 66.3137 52.9108 65.186 48.2603C63.0422 49.5662 60.5327 50.3328 57.8403 50.3328H50.1594Z" fill="#F2C619"/>
<path d="M15.9748 36.15L21.8404 30.275V21.9678H14.1595C11.4671 21.9678 8.95765 22.7344 6.8139 24.0403C7.40657 26.4826 8.6393 28.8028 10.5426 30.7092L15.9748 36.15Z" fill="#BE2328"/>
<path d="M56.0253 36.1504L50.1597 42.0255V50.3327H57.8406C60.5329 50.3327 63.0424 49.566 65.1862 48.2601C64.5935 45.8178 63.3608 43.4976 61.4575 41.5913L56.0253 36.1504Z" fill="#BE2328"/>
<path d="M15.9748 36.15L21.8405 42.025V30.2749L15.9748 36.15Z" fill="#4B1143"/>
<path d="M50.1594 42.025L56.0251 36.15L50.1594 30.2749V42.025Z" fill="#4B1143"/>
<path d="M35.9997 16.0927L41.4319 10.6518C43.3352 8.74547 45.6517 7.51075 48.09 6.91714C45.6043 2.82969 41.1271 0.0922852 35.9997 0.0922852C30.8724 0.0922852 26.3952 2.82969 23.9094 6.91714C26.3478 7.51075 28.6643 8.74547 30.5676 10.6518L35.9997 16.0927Z" fill="#25A4DE"/>
<path d="M35.9997 56.2075L30.5676 61.6484C28.6643 63.5548 26.3478 64.7895 23.9094 65.3831C26.3952 69.4705 30.8724 72.2079 35.9997 72.2079C41.1271 72.2079 45.6043 69.4705 48.09 65.3831C45.6517 64.7895 43.3352 63.5548 41.4319 61.6484L35.9997 56.2075Z" fill="#25A4DE"/>
<path d="M36 56.2076L30.1343 50.3325H21.8405V58.0257C21.8405 60.7224 22.6058 63.236 23.9097 65.3832C26.3481 64.7895 28.6645 63.5548 30.5678 61.6485L36 56.2076Z" fill="#315DA8"/>
<path d="M35.9999 16.0926L41.8655 21.9676H50.1594V14.2744C50.1594 11.5777 49.394 9.06418 48.0902 6.91699C45.6518 7.51061 43.3353 8.74532 41.432 10.6517L35.9999 16.0926Z" fill="#315DA8"/>
<path d="M50.1595 21.9678H41.8657L50.1595 30.275V21.9678Z" fill="#142649"/>
<path d="M21.8404 50.3326H30.1343L21.8404 42.0254V50.3326Z" fill="#142649"/>
<path d="M21.8404 21.9676H30.1343L35.9999 16.0926L30.5678 10.6517C28.6611 8.74193 26.348 7.51061 23.9096 6.91699C22.6058 9.06418 21.8404 11.5777 21.8404 14.2744V21.9676Z" fill="#01935B"/>
<path d="M50.1594 50.332H41.8655L35.9999 56.2071L41.432 61.648C43.3353 63.5543 45.6518 64.789 48.0902 65.3827C49.394 63.2355 50.1594 60.722 50.1594 58.0253V50.332Z" fill="#01935B"/>
<path d="M35.9999 56.2076L41.8655 50.3325H30.1342L35.9999 56.2076Z" fill="#054456"/>
<path d="M35.9999 16.0928L30.1342 21.9678H41.8655L35.9999 16.0928Z" fill="#054456"/>
<path d="M21.8404 21.9678V30.275L30.1343 21.9678H21.8404Z" fill="#2E2124"/>
<path d="M50.1595 50.3326V42.0254L41.8657 50.3326H50.1595Z" fill="#2E2124"/>
<path d="M17.3023 39.4948C16.4489 40.3496 15.2704 40.8787 13.9631 40.8787C12.6559 40.8787 11.4807 40.3496 10.6273 39.4948C9.77045 38.64 9.24214 37.4595 9.24214 36.1502C9.24214 34.8409 9.77045 33.6604 10.6239 32.8056C11.4773 31.9474 12.6559 31.4182 13.9597 31.4182C15.2636 31.4182 16.4455 31.9474 17.299 32.8022C18.1558 33.6604 18.6807 34.8409 18.6807 36.1468C18.6807 37.4528 18.1558 38.6332 17.299 39.4914M13.9597 28.267C11.7889 28.267 9.82125 29.149 8.39886 30.5736C6.97647 32.0017 6.09595 33.9725 6.09595 36.1468C6.09595 38.3211 6.97647 40.2953 8.40225 41.72C9.82803 43.1447 11.7923 44.0266 13.9631 44.0266C15.7377 44.0266 17.3701 43.433 18.6841 42.4391V44.0266H21.8337V36.1468C21.8337 33.9691 20.9531 31.9983 19.5274 30.5736C18.105 29.149 16.1373 28.267 13.9631 28.267M63.5842 30.5736C62.1584 29.149 60.1942 28.267 58.0233 28.267C55.8525 28.267 53.8848 29.149 52.4591 30.5736C51.0333 32.0017 50.1528 33.9725 50.1528 36.1468V44.0266H53.299V36.1468C53.299 34.8409 53.8273 33.657 54.6807 32.8022C55.5341 31.944 56.7161 31.4149 58.0199 31.4149C59.3238 31.4149 60.5023 31.944 61.3558 32.7988C62.2092 33.657 62.7375 34.8375 62.7375 36.1434V44.0232H65.8837V36.1434C65.8837 33.9657 65.0032 31.9949 63.5774 30.5702M45.6181 39.488C44.7646 40.3428 43.5827 40.872 42.2788 40.872C40.975 40.872 39.7964 40.3428 38.9396 39.488C38.0862 38.6332 37.5578 37.4528 37.5578 36.1434C37.5578 34.8341 38.0862 33.6536 38.9396 32.7988C39.793 31.9406 40.975 31.4115 42.2788 31.4115C43.5827 31.4115 44.7612 31.9406 45.6181 32.7954C46.4715 33.6536 46.9998 34.8341 46.9998 36.14C46.9998 37.446 46.4715 38.6264 45.6181 39.4846M42.2788 28.2602C40.1046 28.2602 38.1404 29.1422 36.7146 30.5668C35.2922 31.9949 34.4117 33.9657 34.4117 36.14C34.4117 37.446 33.8833 38.6264 33.0299 39.4846C32.1765 40.3428 30.9945 40.8686 29.6907 40.8686C28.3868 40.8686 27.2083 40.3394 26.3548 39.4846C25.5014 38.6298 24.9697 37.4494 24.9697 36.14C24.9697 34.8307 25.498 33.6502 26.3548 32.7954C27.2083 31.9372 28.3868 31.4081 29.6907 31.4081C30.9945 31.4081 32.1731 31.9372 33.0299 32.792C33.1451 32.9108 33.2568 33.0363 33.3618 33.1652C33.714 32.1034 34.2457 31.1265 34.9332 30.2683C33.5413 29.0201 31.7091 28.2568 29.6941 28.2568C27.5232 28.2568 25.5556 29.1388 24.1298 30.5634C22.7074 31.9915 21.8269 33.9623 21.8269 36.1366C21.8269 38.3109 22.7074 40.2851 24.1332 41.7098C25.5556 43.1345 27.5232 44.0164 29.6941 44.0164C31.8649 44.0164 33.8359 43.1345 35.2583 41.7098C35.5225 41.4452 35.7663 41.1637 35.9898 40.8652C36.2134 41.1637 36.4572 41.4452 36.7213 41.7098C38.1471 43.1345 40.1114 44.0164 42.2822 44.0164C44.4531 44.0164 46.4207 43.1345 47.8465 41.7098C49.2689 40.2817 50.1494 38.3143 50.1494 36.1366C50.1494 33.9589 49.2689 31.9881 47.8465 30.5634C46.4207 29.1388 44.4531 28.2568 42.2822 28.2568" fill="white"/>
</svg>
