<svg width="20" height="21" viewBox="0 0 20 21" fill="none" xmlns="http://www.w3.org/2000/svg">
<mask id="mask0_14_7864" style="mask-type:alpha" maskUnits="userSpaceOnUse" x="0" y="0" width="20" height="21">
<rect y="0.5" width="20" height="20" fill="#D9D9D9"/>
</mask>
<g mask="url(#mask0_14_7864)">
<path d="M9.99999 18.8332C8.84721 18.8332 7.76388 18.6144 6.74999 18.1769C5.7361 17.7394 4.85416 17.1457 4.10416 16.3957C3.35416 15.6457 2.76041 14.7637 2.32291 13.7498C1.88541 12.7359 1.66666 11.6526 1.66666 10.4998C1.66666 9.34706 1.88541 8.26373 2.32291 7.24984C2.76041 6.23595 3.35416 5.354 4.10416 4.604C4.85416 3.854 5.7361 3.26025 6.74999 2.82275C7.76388 2.38525 8.84721 2.1665 9.99999 2.1665C11.1528 2.1665 12.2361 2.38525 13.25 2.82275C14.2639 3.26025 15.1458 3.854 15.8958 4.604C16.6458 5.354 17.2396 6.23595 17.6771 7.24984C18.1146 8.26373 18.3333 9.34706 18.3333 10.4998V11.7082C18.3333 12.5276 18.0521 13.2255 17.4896 13.8019C16.9271 14.3783 16.2361 14.6665 15.4167 14.6665C14.9305 14.6665 14.4722 14.5623 14.0417 14.354C13.6111 14.1457 13.25 13.8471 12.9583 13.4582C12.5555 13.8609 12.1007 14.163 11.5937 14.3644C11.0868 14.5658 10.5555 14.6665 9.99999 14.6665C8.84721 14.6665 7.86457 14.2603 7.05207 13.4478C6.23957 12.6353 5.83332 11.6526 5.83332 10.4998C5.83332 9.34706 6.23957 8.36442 7.05207 7.55192C7.86457 6.73942 8.84721 6.33317 9.99999 6.33317C11.1528 6.33317 12.1354 6.73942 12.9479 7.55192C13.7604 8.36442 14.1667 9.34706 14.1667 10.4998V11.7082C14.1667 12.0693 14.2847 12.3748 14.5208 12.6248C14.7569 12.8748 15.0555 12.9998 15.4167 12.9998C15.7778 12.9998 16.0764 12.8748 16.3125 12.6248C16.5486 12.3748 16.6667 12.0693 16.6667 11.7082V10.4998C16.6667 8.63873 16.0208 7.06234 14.7292 5.77067C13.4375 4.479 11.8611 3.83317 9.99999 3.83317C8.13888 3.83317 6.56249 4.479 5.27082 5.77067C3.97916 7.06234 3.33332 8.63873 3.33332 10.4998C3.33332 12.3609 3.97916 13.9373 5.27082 15.229C6.56249 16.5207 8.13888 17.1665 9.99999 17.1665H14.1667V18.8332H9.99999ZM9.99999 12.9998C10.6944 12.9998 11.2847 12.7568 11.7708 12.2707C12.2569 11.7846 12.5 11.1943 12.5 10.4998C12.5 9.80539 12.2569 9.21512 11.7708 8.729C11.2847 8.24289 10.6944 7.99984 9.99999 7.99984C9.30555 7.99984 8.71527 8.24289 8.22916 8.729C7.74305 9.21512 7.49999 9.80539 7.49999 10.4998C7.49999 11.1943 7.74305 11.7846 8.22916 12.2707C8.71527 12.7568 9.30555 12.9998 9.99999 12.9998Z" fill="#00A6E9"/>
</g>
</svg>
