<svg width="24" height="23" viewBox="0 0 24 23" fill="none" xmlns="http://www.w3.org/2000/svg">
<path d="M9.475 24.3125L7.3375 20.7125L3.2875 19.8125L3.68125 15.65L0.925003 12.5L3.68125 9.35L3.2875 5.1875L7.3375 4.2875L9.475 0.6875L13.3 2.31875L17.125 0.6875L19.2625 4.2875L23.3125 5.1875L22.9188 9.35L25.675 12.5L22.9188 15.65L23.3125 19.8125L19.2625 20.7125L17.125 24.3125L13.3 22.6813L9.475 24.3125ZM10.4313 21.4438L13.3 20.2063L16.225 21.4438L17.8 18.7438L20.8938 18.0125L20.6125 14.8625L22.6938 12.5L20.6125 10.0813L20.8938 6.93125L17.8 6.25625L16.1688 3.55625L13.3 4.79375L10.375 3.55625L8.8 6.25625L5.70625 6.93125L5.9875 10.0813L3.90625 12.5L5.9875 14.8625L5.70625 18.0688L8.8 18.7438L10.4313 21.4438ZM12.1188 16.4938L18.475 10.1375L16.9 8.50625L12.1188 13.2875L9.7 10.925L8.125 12.5L12.1188 16.4938Z" fill="#B2B6B8"/>
</svg>
