<svg width="20" height="21" viewBox="0 0 20 21" fill="none" xmlns="http://www.w3.org/2000/svg">
<mask id="mask0_14_7858" style="mask-type:alpha" maskUnits="userSpaceOnUse" x="0" y="0" width="20" height="21">
<rect y="0.5" width="20" height="20" fill="#D9D9D9"/>
</mask>
<g mask="url(#mask0_14_7858)">
<path d="M16.625 18C14.8889 18 13.1736 17.6215 11.4792 16.8646C9.78472 16.1076 8.24306 15.0347 6.85417 13.6458C5.46528 12.2569 4.39236 10.7153 3.63542 9.02083C2.87847 7.32639 2.5 5.61111 2.5 3.875C2.5 3.625 2.58333 3.41667 2.75 3.25C2.91667 3.08333 3.125 3 3.375 3H6.75C6.94444 3 7.11806 3.06597 7.27083 3.19792C7.42361 3.32986 7.51389 3.48611 7.54167 3.66667L8.08333 6.58333C8.11111 6.80556 8.10417 6.99306 8.0625 7.14583C8.02083 7.29861 7.94444 7.43056 7.83333 7.54167L5.8125 9.58333C6.09028 10.0972 6.42014 10.5937 6.80208 11.0729C7.18403 11.5521 7.60417 12.0139 8.0625 12.4583C8.49306 12.8889 8.94444 13.2882 9.41667 13.6563C9.88889 14.0243 10.3889 14.3611 10.9167 14.6667L12.875 12.7083C13 12.5833 13.1632 12.4896 13.3646 12.4271C13.566 12.3646 13.7639 12.3472 13.9583 12.375L16.8333 12.9583C17.0278 13.0139 17.1875 13.1146 17.3125 13.2604C17.4375 13.4062 17.5 13.5694 17.5 13.75V17.125C17.5 17.375 17.4167 17.5833 17.25 17.75C17.0833 17.9167 16.875 18 16.625 18ZM5.02083 8L6.39583 6.625L6.04167 4.66667H4.1875C4.25694 5.23611 4.35417 5.79861 4.47917 6.35417C4.60417 6.90972 4.78472 7.45833 5.02083 8ZM12.4792 15.4583C13.0208 15.6944 13.5729 15.8819 14.1354 16.0208C14.6979 16.1597 15.2639 16.25 15.8333 16.2917V14.4583L13.875 14.0625L12.4792 15.4583Z" fill="#00A6E9"/>
</g>
</svg>
