<svg width="18" height="18" viewBox="0 0 18 18" fill="none" xmlns="http://www.w3.org/2000/svg">
<path d="M7.83342 10.5001L6.02092 8.68758C5.86814 8.5348 5.67717 8.46189 5.448 8.46883C5.21883 8.47578 5.02786 8.55564 4.87508 8.70842C4.7223 8.86119 4.64592 9.05564 4.64592 9.29175C4.64592 9.52786 4.7223 9.7223 4.87508 9.87508L7.25008 12.2501C7.40286 12.4029 7.5973 12.4792 7.83342 12.4792C8.06953 12.4792 8.26397 12.4029 8.41675 12.2501L13.1459 7.52092C13.2987 7.36814 13.3716 7.17717 13.3647 6.948C13.3577 6.71883 13.2779 6.52786 13.1251 6.37508C12.9723 6.2223 12.7779 6.14592 12.5417 6.14592C12.3056 6.14592 12.1112 6.2223 11.9584 6.37508L7.83342 10.5001ZM9.00008 17.3334C7.8473 17.3334 6.76397 17.1147 5.75008 16.6772C4.73619 16.2397 3.85425 15.6459 3.10425 14.8959C2.35425 14.1459 1.7605 13.264 1.323 12.2501C0.885498 11.2362 0.666748 10.1529 0.666748 9.00008C0.666748 7.8473 0.885498 6.76397 1.323 5.75008C1.7605 4.73619 2.35425 3.85425 3.10425 3.10425C3.85425 2.35425 4.73619 1.7605 5.75008 1.323C6.76397 0.885498 7.8473 0.666748 9.00008 0.666748C10.1529 0.666748 11.2362 0.885498 12.2501 1.323C13.264 1.7605 14.1459 2.35425 14.8959 3.10425C15.6459 3.85425 16.2397 4.73619 16.6772 5.75008C17.1147 6.76397 17.3334 7.8473 17.3334 9.00008C17.3334 10.1529 17.1147 11.2362 16.6772 12.2501C16.2397 13.264 15.6459 14.1459 14.8959 14.8959C14.1459 15.6459 13.264 16.2397 12.2501 16.6772C11.2362 17.1147 10.1529 17.3334 9.00008 17.3334ZM9.00008 15.6667C10.8473 15.6667 12.4202 15.0174 13.7188 13.7188C15.0174 12.4202 15.6667 10.8473 15.6667 9.00008C15.6667 7.15286 15.0174 5.57994 13.7188 4.28133C12.4202 2.98272 10.8473 2.33341 9.00008 2.33341C7.15286 2.33341 5.57994 2.98272 4.28133 4.28133C2.98272 5.57994 2.33341 7.15286 2.33341 9.00008C2.33341 10.8473 2.98272 12.4202 4.28133 13.7188C5.57994 15.0174 7.15286 15.6667 9.00008 15.6667Z" fill="white"/>
</svg>
