<svg width="27" height="28" viewBox="0 0 27 28" fill="none" xmlns="http://www.w3.org/2000/svg">
<mask id="mask0_1_1424" style="mask-type:alpha" maskUnits="userSpaceOnUse" x="0" y="0" width="27" height="28">
<rect y="0.5" width="27" height="27" fill="#D9D9D9"/>
</mask>
<g mask="url(#mask0_1_1424)">
<path d="M13.5 15.1854L7.79277 20.8926C7.63701 21.0484 7.44123 21.1281 7.20541 21.1317C6.96961 21.1353 6.77022 21.0556 6.60725 20.8926C6.44425 20.7297 6.36275 20.5321 6.36275 20.2999C6.36275 20.0677 6.44425 19.8701 6.60725 19.7071L12.3145 13.9999L6.60725 8.29262C6.45147 8.13687 6.37178 7.94108 6.36818 7.70526C6.36456 7.46946 6.44425 7.27008 6.60725 7.1071C6.77022 6.94411 6.96781 6.86261 7.20001 6.86261C7.43221 6.86261 7.6298 6.94411 7.79277 7.1071L13.5 12.8143L19.2072 7.1071C19.363 6.95133 19.5588 6.87164 19.7946 6.86804C20.0304 6.86442 20.2298 6.94411 20.3928 7.1071C20.5558 7.27008 20.6373 7.46766 20.6373 7.69986C20.6373 7.93206 20.5558 8.12965 20.3928 8.29262L14.6856 13.9999L20.3928 19.7071C20.5485 19.8629 20.6282 20.0586 20.6318 20.2945C20.6355 20.5303 20.5558 20.7297 20.3928 20.8926C20.2298 21.0556 20.0322 21.1371 19.8 21.1371C19.5678 21.1371 19.3702 21.0556 19.2072 20.8926L13.5 15.1854Z" fill="white"/>
</g>
</svg>
