<svg width="12" height="16" viewBox="0 0 12 16" fill="none" xmlns="http://www.w3.org/2000/svg">
<path d="M3.75 12.5H8.25C8.4625 12.5 8.64062 12.4281 8.78438 12.2844C8.92813 12.1406 9 11.9625 9 11.75C9 11.5375 8.92813 11.3594 8.78438 11.2156C8.64062 11.0719 8.4625 11 8.25 11H3.75C3.5375 11 3.35938 11.0719 3.21562 11.2156C3.07187 11.3594 3 11.5375 3 11.75C3 11.9625 3.07187 12.1406 3.21562 12.2844C3.35938 12.4281 3.5375 12.5 3.75 12.5ZM3.75 9.5H8.25C8.4625 9.5 8.64062 9.42813 8.78438 9.28438C8.92813 9.14062 9 8.9625 9 8.75C9 8.5375 8.92813 8.35938 8.78438 8.21563C8.64062 8.07188 8.4625 8 8.25 8H3.75C3.5375 8 3.35938 8.07188 3.21562 8.21563C3.07187 8.35938 3 8.5375 3 8.75C3 8.9625 3.07187 9.14062 3.21562 9.28438C3.35938 9.42813 3.5375 9.5 3.75 9.5ZM1.5 15.5C1.0875 15.5 0.734375 15.3531 0.440625 15.0594C0.146875 14.7656 0 14.4125 0 14V2C0 1.5875 0.146875 1.23438 0.440625 0.940625C0.734375 0.646875 1.0875 0.5 1.5 0.5H6.88125C7.08125 0.5 7.27187 0.5375 7.45312 0.6125C7.63438 0.6875 7.79375 0.79375 7.93125 0.93125L11.5688 4.56875C11.7063 4.70625 11.8125 4.86562 11.8875 5.04688C11.9625 5.22813 12 5.41875 12 5.61875V14C12 14.4125 11.8531 14.7656 11.5594 15.0594C11.2656 15.3531 10.9125 15.5 10.5 15.5H1.5ZM6.75 5V2H1.5V14H10.5V5.75H7.5C7.2875 5.75 7.10938 5.67812 6.96563 5.53438C6.82188 5.39062 6.75 5.2125 6.75 5Z" fill="#515658"/>
</svg>
