<svg width="18" height="18" viewBox="0 0 18 18" fill="none" xmlns="http://www.w3.org/2000/svg">
<mask id="mask0_18_4028" style="mask-type:alpha" maskUnits="userSpaceOnUse" x="0" y="0" width="18" height="18">
<rect width="18" height="18" fill="#D9D9D9"/>
</mask>
<g mask="url(#mask0_18_4028)">
<path d="M6.75 13.5H11.25C11.4625 13.5 11.6406 13.4281 11.7844 13.2844C11.9281 13.1406 12 12.9625 12 12.75C12 12.5375 11.9281 12.3594 11.7844 12.2156C11.6406 12.0719 11.4625 12 11.25 12H6.75C6.5375 12 6.35938 12.0719 6.21562 12.2156C6.07187 12.3594 6 12.5375 6 12.75C6 12.9625 6.07187 13.1406 6.21562 13.2844C6.35938 13.4281 6.5375 13.5 6.75 13.5ZM6.75 10.5H11.25C11.4625 10.5 11.6406 10.4281 11.7844 10.2844C11.9281 10.1406 12 9.9625 12 9.75C12 9.5375 11.9281 9.35938 11.7844 9.21563C11.6406 9.07188 11.4625 9 11.25 9H6.75C6.5375 9 6.35938 9.07188 6.21562 9.21563C6.07187 9.35938 6 9.5375 6 9.75C6 9.9625 6.07187 10.1406 6.21562 10.2844C6.35938 10.4281 6.5375 10.5 6.75 10.5ZM4.5 16.5C4.0875 16.5 3.73438 16.3531 3.44063 16.0594C3.14688 15.7656 3 15.4125 3 15V3C3 2.5875 3.14688 2.23438 3.44063 1.94063C3.73438 1.64688 4.0875 1.5 4.5 1.5H9.88125C10.0813 1.5 10.2719 1.5375 10.4531 1.6125C10.6344 1.6875 10.7937 1.79375 10.9312 1.93125L14.5688 5.56875C14.7063 5.70625 14.8125 5.86562 14.8875 6.04688C14.9625 6.22813 15 6.41875 15 6.61875V15C15 15.4125 14.8531 15.7656 14.5594 16.0594C14.2656 16.3531 13.9125 16.5 13.5 16.5H4.5ZM9.75 6V3H4.5V15H13.5V6.75H10.5C10.2875 6.75 10.1094 6.67812 9.96563 6.53438C9.82188 6.39062 9.75 6.2125 9.75 6Z" fill="#515658"/>
</g>
</svg>
