<svg width="265" height="120" viewBox="0 0 265 120" fill="none" xmlns="http://www.w3.org/2000/svg">
<path d="M127.032 28.1289C127.302 25.3614 129.057 21.4464 133.377 21.4464C138.102 21.4464 139.182 25.6314 139.182 28.1289H127.032ZM148.362 35.1489C148.497 34.4064 148.7 32.8539 148.7 31.0989C148.7 22.9314 144.65 14.6289 133.985 14.6289C122.51 14.6289 117.312 23.8764 117.312 32.2464C117.312 42.5739 123.725 49.0539 134.93 49.0539C139.385 49.0539 143.502 48.3789 146.877 47.0289L145.527 40.0764C142.76 40.9539 139.925 41.4264 136.415 41.4264C131.622 41.4264 127.437 39.4014 127.1 35.1489H148.362ZM102.395 33.6639C102.395 34.5414 102.327 35.2839 102.125 36.0264C101.517 38.9289 99.1549 40.9539 96.1849 40.9539C91.9324 40.9539 89.1649 37.4439 89.1649 31.8414C89.1649 26.6439 91.5949 22.4589 96.2524 22.4589C99.4249 22.4589 101.652 24.7539 102.26 27.5214C102.327 28.0614 102.395 28.8039 102.395 29.3439V33.6639ZM102.395 0.453857V18.3414H102.26C100.775 16.0464 97.6024 14.6289 93.5524 14.6289C85.6549 14.6289 78.7024 21.0414 78.7699 32.1789C78.7699 42.4389 85.0474 49.1214 92.8774 49.1214C97.1299 49.1214 101.112 47.2314 103.205 43.5189H103.34L103.812 48.3789H112.925C112.79 46.1514 112.655 42.2364 112.655 38.5239V0.453857H102.395ZM68.9824 0.993857C65.6749 0.993857 63.5149 3.22136 63.5824 6.19136C63.5149 9.02636 65.6749 11.3214 68.9149 11.3214C72.1549 11.3214 74.4499 9.02636 74.4499 6.19136C74.3824 3.22136 72.2899 0.993857 68.9824 0.993857ZM74.1124 15.3714H63.8524V48.3789H74.1124V15.3714ZM39.8899 48.3789H50.1499V31.6389C50.1499 30.8289 50.2174 30.0189 50.3524 29.3439C51.0274 26.1714 53.5924 24.1464 57.3724 24.1464C58.5199 24.1464 59.3974 24.2814 60.1399 24.4164V14.7639C59.3974 14.6289 58.9249 14.6289 57.9799 14.6289C54.8074 14.6289 50.7574 16.6539 49.0699 21.4464H48.7999L48.4624 15.3714H39.6199C39.7549 18.2064 39.8899 21.3789 39.8899 26.2389V48.3789ZM11.4724 29.6814C11.4724 29.0739 11.5399 28.3989 11.6749 27.8589C12.3499 24.8214 14.9149 22.6614 17.8174 22.6614C22.4074 22.6614 24.7699 26.6439 24.7699 31.9089C24.7699 37.5114 22.1374 41.2239 17.6824 41.2239C14.7124 41.2239 12.3499 39.1314 11.6749 36.3639C11.5399 35.7564 11.4724 35.0139 11.4724 34.2039V29.6814ZM1.21238 61.7439H11.4724V45.3414H11.6074C13.0924 47.5014 16.1974 49.1214 20.1799 49.1214C27.5374 49.1214 35.1649 43.4514 35.1649 31.4364C35.1649 20.9064 28.6849 14.6289 21.4624 14.6289C16.6699 14.6289 12.8899 16.4514 10.4599 19.9614H10.3249L9.85238 15.3714H0.942383C1.07738 18.4089 1.21238 22.1214 1.21238 26.4414V61.7439Z" fill="white"/>
<path d="M171.65 48.3788H181.91V29.3438C181.91 28.3988 182.045 27.3863 182.315 26.7788C182.99 24.8888 184.677 22.9313 187.512 22.9313C191.225 22.9313 192.71 25.8338 192.71 30.0863V48.3788H202.97V28.8038C202.97 19.0838 197.907 14.6288 191.157 14.6288C185.69 14.6288 182.315 17.8013 180.965 19.8938H180.762L180.29 15.3713H171.38C171.515 18.2738 171.65 21.7838 171.65 25.9013V48.3788ZM159.972 0.993835C156.665 0.993835 154.505 3.22134 154.572 6.19134C154.505 9.02634 156.665 11.3213 159.905 11.3213C163.145 11.3213 165.44 9.02634 165.44 6.19134C165.372 3.22134 163.28 0.993835 159.972 0.993835ZM165.102 15.3713H154.842V48.3788H165.102V15.3713Z" fill="white"/>
<path d="M229.351 71.6214L241.434 101.794C241.839 102.604 241.906 103.144 241.906 103.481C241.906 103.954 241.704 104.494 241.366 104.966C240.354 106.654 238.666 108.274 237.114 109.084C235.561 110.029 233.941 110.636 232.659 110.839L234.819 119.546C237.384 119.209 241.164 118.129 244.741 115.024C248.454 111.716 251.626 106.451 256.351 93.3564L264.046 71.6214H253.044L248.994 87.8214C248.521 89.7114 247.981 92.2089 247.509 93.9639H247.306C246.901 92.2089 246.226 89.7789 245.686 87.8214L240.759 71.6214H229.351ZM211.059 64.4664V71.6214H206.671V79.1814H211.059V92.6814C211.059 97.3389 212.004 100.511 213.894 102.469C215.514 104.156 218.281 105.304 221.589 105.304C224.491 105.304 226.921 104.966 228.271 104.426L228.204 96.6638C227.461 96.7989 226.449 96.9339 225.166 96.9339C222.061 96.9339 221.116 95.1114 221.116 91.1289V79.1814H228.474V71.6214H221.116V62.1714L211.059 64.4664ZM197.964 57.2439C194.656 57.2439 192.496 59.4714 192.564 62.4414C192.496 65.2764 194.656 67.5714 197.896 67.5714C201.136 67.5714 203.431 65.2764 203.431 62.4414C203.364 59.4714 201.271 57.2439 197.964 57.2439ZM203.094 71.6214H192.834V104.629H203.094V71.6214ZM163.336 103.009C165.834 104.359 169.681 105.304 174.001 105.304C183.451 105.304 188.311 100.781 188.311 94.6389C188.244 89.7789 185.611 86.6064 179.334 84.4464C175.284 83.0289 174.001 82.2189 174.001 80.6664C174.001 78.9789 175.419 77.9664 177.916 77.9664C180.751 77.9664 183.586 79.0464 185.071 79.8564L186.894 72.7689C184.869 71.7564 181.426 70.8789 177.579 70.8789C169.411 70.8789 164.146 75.5364 164.146 81.6789C164.079 85.5939 166.711 89.3064 173.529 91.6013C177.376 92.8839 178.389 93.6939 178.389 95.3814C178.389 97.0689 177.106 98.1488 174.001 98.1488C170.896 98.1488 167.049 96.7989 165.159 95.6514L163.336 103.009ZM141.264 104.629H151.524V87.8889C151.524 87.0789 151.591 86.2689 151.726 85.5939C152.401 82.4214 154.966 80.3964 158.746 80.3964C159.894 80.3964 160.771 80.5314 161.514 80.6664V71.0139C160.771 70.8789 160.299 70.8789 159.354 70.8789C156.181 70.8789 152.131 72.9039 150.444 77.6964H150.174L149.836 71.6214H140.994C141.129 74.4564 141.264 77.6289 141.264 82.4889V104.629ZM115.141 84.3789C115.411 81.6114 117.166 77.6964 121.486 77.6964C126.211 77.6964 127.291 81.8814 127.291 84.3789H115.141ZM136.471 91.3988C136.606 90.6563 136.809 89.1039 136.809 87.3489C136.809 79.1814 132.759 70.8789 122.094 70.8789C110.619 70.8789 105.421 80.1264 105.421 88.4964C105.421 98.8239 111.834 105.304 123.039 105.304C127.494 105.304 131.611 104.629 134.986 103.279L133.636 96.3264C130.869 97.2039 128.034 97.6764 124.524 97.6764C119.731 97.6764 115.546 95.6513 115.209 91.3988H136.471ZM70.7261 71.6214L82.7411 104.629H93.0011L105.286 71.6214H94.4861L90.2336 86.9439C89.4911 89.7789 88.9511 92.2763 88.4111 94.9763H88.2086C87.7361 92.3438 87.1286 89.7114 86.3186 86.9439L81.8636 71.6214H70.7261ZM62.5586 57.2439C59.2511 57.2439 57.0911 59.4714 57.1586 62.4414C57.0911 65.2764 59.2511 67.5714 62.4911 67.5714C65.7311 67.5714 68.0261 65.2764 68.0261 62.4414C67.9586 59.4714 65.8661 57.2439 62.5586 57.2439ZM67.6886 71.6214H57.4286V104.629H67.6886V71.6214ZM40.6211 89.9138C40.6211 90.7914 40.5536 91.5339 40.3511 92.2764C39.7436 95.1789 37.3811 97.2039 34.4111 97.2039C30.1586 97.2039 27.3911 93.6939 27.3911 88.0914C27.3911 82.8939 29.8211 78.7089 34.4786 78.7089C37.6511 78.7089 39.8786 81.0039 40.4861 83.7714C40.5536 84.3114 40.6211 85.0539 40.6211 85.5939V89.9138ZM40.6211 56.7039V74.5914H40.4861C39.0011 72.2964 35.8286 70.8789 31.7786 70.8789C23.8811 70.8789 16.9286 77.2914 16.9961 88.4289C16.9961 98.6889 23.2736 105.371 31.1036 105.371C35.3561 105.371 39.3386 103.481 41.4311 99.7689H41.5661L42.0386 104.629H51.1511C51.0161 102.401 50.8811 98.4864 50.8811 94.7738V56.7039H40.6211Z" fill="white"/>
</svg>
