<svg width="22" height="22" viewBox="0 0 22 22" fill="none" xmlns="http://www.w3.org/2000/svg">
<path d="M13.7125 18.25C12.925 18.25 12.2594 17.9781 11.7156 17.4344C11.1719 16.8906 10.9 16.225 10.9 15.4375C10.9 14.65 11.1719 13.9844 11.7156 13.4406C12.2594 12.8969 12.925 12.625 13.7125 12.625C14.5 12.625 15.1656 12.8969 15.7094 13.4406C16.2531 13.9844 16.525 14.65 16.525 15.4375C16.525 16.225 16.2531 16.8906 15.7094 17.4344C15.1656 17.9781 14.5 18.25 13.7125 18.25ZM3.025 22.75C2.40625 22.75 1.87656 22.5297 1.43594 22.0891C0.995314 21.6484 0.775002 21.1187 0.775002 20.5V4.75C0.775002 4.13125 0.995314 3.60156 1.43594 3.16094C1.87656 2.72031 2.40625 2.5 3.025 2.5H4.15V0.25H6.4V2.5H15.4V0.25H17.65V2.5H18.775C19.3938 2.5 19.9234 2.72031 20.3641 3.16094C20.8047 3.60156 21.025 4.13125 21.025 4.75V20.5C21.025 21.1187 20.8047 21.6484 20.3641 22.0891C19.9234 22.5297 19.3938 22.75 18.775 22.75H3.025ZM3.025 20.5H18.775V9.25H3.025V20.5ZM3.025 7H18.775V4.75H3.025V7Z" fill="#B2B6B8"/>
</svg>
