<svg width="10" height="6" viewBox="0 0 10 6" fill="none" xmlns="http://www.w3.org/2000/svg">
<path d="M4.69497 5.95834C4.58386 5.95834 4.47969 5.94098 4.38247 5.90626C4.28525 5.87153 4.19497 5.81251 4.11164 5.72917L0.257472 1.87501C0.104694 1.72223 0.0317775 1.53126 0.0387219 1.30209C0.0456664 1.07292 0.125527 0.88195 0.278305 0.729172C0.431083 0.576394 0.625528 0.500005 0.861639 0.500005C1.09775 0.500005 1.29219 0.576394 1.44497 0.729172L4.69497 3.97917L7.96581 0.708339C8.11858 0.555561 8.30956 0.482644 8.53872 0.489589C8.76789 0.496533 8.95886 0.576394 9.11164 0.729172C9.26442 0.88195 9.34081 1.07639 9.34081 1.31251C9.34081 1.54862 9.26442 1.74306 9.11164 1.89584L5.27831 5.72917C5.19497 5.81251 5.10469 5.87153 5.00747 5.90626C4.91025 5.94098 4.80608 5.95834 4.69497 5.95834Z" fill="#F5F7F7"/>
</svg>
