<svg width="23" height="22" viewBox="0 0 23 22" fill="none" xmlns="http://www.w3.org/2000/svg">
<path d="M2.70001 13.75C2.08126 13.75 1.55157 13.5297 1.11095 13.0891C0.670325 12.6484 0.450012 12.1187 0.450012 11.5C0.450012 10.8813 0.670325 10.3516 1.11095 9.91094C1.55157 9.47031 2.08126 9.25 2.70001 9.25C3.31876 9.25 3.84845 9.47031 4.28907 9.91094C4.7297 10.3516 4.95001 10.8813 4.95001 11.5C4.95001 12.1187 4.7297 12.6484 4.28907 13.0891C3.84845 13.5297 3.31876 13.75 2.70001 13.75ZM4.55626 20.1625L2.98126 18.5875L7.87501 13.6937L9.45001 15.2688L4.55626 20.1625ZM7.93126 9.25L3.03751 4.35625L4.61251 2.78125L9.50626 7.675L7.93126 9.25ZM11.7 22.75C11.0813 22.75 10.5516 22.5297 10.111 22.0891C9.67033 21.6484 9.45001 21.1187 9.45001 20.5C9.45001 19.8813 9.67033 19.3516 10.111 18.9109C10.5516 18.4703 11.0813 18.25 11.7 18.25C12.3188 18.25 12.8484 18.4703 13.2891 18.9109C13.7297 19.3516 13.95 19.8813 13.95 20.5C13.95 21.1187 13.7297 21.6484 13.2891 22.0891C12.8484 22.5297 12.3188 22.75 11.7 22.75ZM11.7 4.75C11.0813 4.75 10.5516 4.52969 10.111 4.08906C9.67033 3.64844 9.45001 3.11875 9.45001 2.5C9.45001 1.88125 9.67033 1.35156 10.111 0.910938C10.5516 0.470313 11.0813 0.25 11.7 0.25C12.3188 0.25 12.8484 0.470313 13.2891 0.910938C13.7297 1.35156 13.95 1.88125 13.95 2.5C13.95 3.11875 13.7297 3.64844 13.2891 4.08906C12.8484 4.52969 12.3188 4.75 11.7 4.75ZM15.4688 9.30625L13.8938 7.675L18.8438 2.78125L20.4188 4.35625L15.4688 9.30625ZM18.8438 20.1625L13.95 15.2688L15.525 13.6937L20.4188 18.5875L18.8438 20.1625ZM20.7 13.75C20.0813 13.75 19.5516 13.5297 19.1109 13.0891C18.6703 12.6484 18.45 12.1187 18.45 11.5C18.45 10.8813 18.6703 10.3516 19.1109 9.91094C19.5516 9.47031 20.0813 9.25 20.7 9.25C21.3188 9.25 21.8484 9.47031 22.2891 9.91094C22.7297 10.3516 22.95 10.8813 22.95 11.5C22.95 12.1187 22.7297 12.6484 22.2891 13.0891C21.8484 13.5297 21.3188 13.75 20.7 13.75Z" fill="#B2B6B8"/>
</svg>
