<svg width="6" height="11" viewBox="0 0 6 11" fill="none" xmlns="http://www.w3.org/2000/svg">
<path d="M3.49992 5.49996L0.249919 2.24996C0.0971408 2.09718 0.020752 1.90274 0.020752 1.66663C0.020752 1.43051 0.0971408 1.23607 0.249919 1.08329C0.402696 0.930515 0.597141 0.854126 0.833252 0.854126C1.06936 0.854126 1.26381 0.930515 1.41659 1.08329L5.24992 4.91663C5.33325 4.99996 5.39228 5.09024 5.427 5.18746C5.46172 5.28468 5.47909 5.38885 5.47909 5.49996C5.47909 5.61107 5.46172 5.71524 5.427 5.81246C5.39228 5.90968 5.33325 5.99996 5.24992 6.08329L1.41659 9.91663C1.26381 10.0694 1.06936 10.1458 0.833252 10.1458C0.597141 10.1458 0.402696 10.0694 0.249919 9.91663C0.0971408 9.76385 0.020752 9.5694 0.020752 9.33329C0.020752 9.09718 0.0971408 8.90274 0.249919 8.74996L3.49992 5.49996Z" fill="#B2B6B8"/>
</svg>
