<svg width="174" height="66" viewBox="0 0 174 66" fill="none" xmlns="http://www.w3.org/2000/svg">
<g clip-path="url(#clip0_2_2239)">
<g clip-path="url(#clip1_2_2239)">
<path d="M143.5 46.1442L138.637 59.5956H139.613L141.268 54.8862H146.587L148.279 59.5956H149.256L144.414 46.1442H143.497H143.5ZM146.29 54.0884H141.566L143.221 49.559C143.5 48.7022 143.72 48.0037 143.918 47.2245H143.959C144.157 47.982 144.337 48.6619 144.656 49.5994L146.29 54.0884ZM161.812 46.1442L158.824 53.9083C158.145 55.7058 157.668 57.0221 157.308 58.2576H157.268C156.89 56.96 156.412 55.6033 155.792 53.8866L152.904 46.1442H151.807L150.83 59.5956H151.766L152.185 53.4085C152.343 51.1733 152.445 48.8388 152.464 47.2618H152.523C152.922 48.7395 153.499 50.3538 154.255 52.4492L156.905 59.5925H157.562L160.392 52.2692C161.148 50.273 161.706 48.7177 162.187 47.2587H162.246C162.227 48.7146 162.385 51.1889 162.524 53.2067L162.924 59.5925H163.86L162.943 46.1411H161.808L161.812 46.1442ZM122.74 53.7065H125.867V58.4563C125.368 58.7171 124.454 58.9158 123.059 58.9158C119.513 58.9158 117.282 56.6619 117.282 52.8683C117.282 49.0747 119.554 46.8209 123.261 46.8209C124.535 46.8209 125.433 47.06 126.131 47.3983L126.428 46.6005C125.911 46.3615 124.755 46.0014 123.301 46.0014C118.739 46.0014 116.309 49.1741 116.309 52.9056C116.309 55.0818 117.046 56.8761 118.14 57.9534C119.495 59.2697 121.128 59.7291 122.901 59.7291C124.674 59.7291 126.128 59.2697 126.806 58.9903V52.9242H122.743V53.7034L122.74 53.7065ZM170.003 52.1885C168.069 51.431 167.214 50.6704 167.214 49.1741C167.214 48.1155 167.952 46.7185 170.124 46.7185C171.28 46.7185 172.136 47.0972 172.495 47.358L172.855 46.5602C172.396 46.2621 171.442 45.9206 170.186 45.9206C167.914 45.9206 166.281 47.358 166.281 49.3324C166.281 51.1671 167.577 52.2847 169.749 53.0453C171.683 53.8028 172.458 54.6813 172.458 56.1994C172.458 57.8571 171.222 58.9934 169.232 58.9934C168.097 58.9934 167.04 58.6146 166.284 58.0962L165.925 58.894C166.622 59.4125 167.976 59.7912 169.132 59.7912C172.003 59.7912 173.397 58.0558 173.397 56.1C173.397 54.1443 172.223 53.0857 170.01 52.1885H170.003ZM86.4578 46.0417C85.3234 46.0417 84.3656 46.1411 83.5877 46.3025V59.5925H84.5237V53.8462C85.001 53.9859 85.5589 54.0046 86.1571 54.0046C87.7905 54.0046 89.2442 53.4861 90.1027 52.4865C90.7009 51.8284 91.0388 50.9684 91.0388 49.8136C91.0388 48.6587 90.6389 47.7988 90.0036 47.1779C89.2659 46.4391 88.0509 46.0417 86.4578 46.0417ZM86.2377 53.2067C85.5806 53.2067 85.001 53.1477 84.5237 53.008V47.001C84.8833 46.9203 85.5403 46.8427 86.4175 46.8427C88.5499 46.8427 90.0841 47.7802 90.0841 49.8974C90.0841 52.0146 88.6305 53.2098 86.2377 53.2098V53.2067ZM98.4124 53.1074V53.067C99.9652 52.5269 101.044 51.372 101.044 49.5559C101.044 48.6184 100.684 47.7212 100.108 47.1624C99.3298 46.4236 98.2357 46.0448 96.4814 46.0448C95.564 46.0448 94.4079 46.1442 93.5927 46.3242V59.5956H94.5287V53.4302H96.6209C98.3938 53.511 99.2306 54.3895 99.6304 56.3236C99.99 58.0186 100.288 59.1983 100.486 59.5956H101.481C101.202 59.0555 100.942 58.0589 100.486 55.9635C100.167 54.4671 99.491 53.4489 98.4124 53.1105V53.1074ZM94.5256 52.6479V47.001C94.8635 46.9203 95.5423 46.8209 96.4597 46.8209C98.5704 46.8209 100.086 47.6591 100.086 49.7142C100.086 51.49 98.7316 52.6479 96.6581 52.6479H94.5256ZM108.95 45.9237C105.584 45.9237 102.934 48.5967 102.934 53.008C102.934 57.4194 105.485 59.8129 108.792 59.8129C111.901 59.8129 114.79 57.4784 114.79 52.7286C114.79 48.5563 112.338 45.9237 108.95 45.9237ZM108.851 59.0151C105.662 59.0151 103.911 56.0007 103.911 52.9677C103.911 49.9347 105.485 46.7216 108.892 46.7216C112.298 46.7216 113.814 49.9533 113.814 52.7876C113.814 56.1218 112.041 59.0151 108.851 59.0151ZM134.434 53.1074V53.067C135.987 52.5269 137.066 51.372 137.066 49.5559C137.066 48.6184 136.706 47.7212 136.13 47.1624C135.352 46.4236 134.257 46.0448 132.503 46.0448C131.586 46.0448 130.43 46.1442 129.615 46.3242V59.5956H130.551V53.4302H132.643C134.416 53.511 135.252 54.3895 135.652 56.3236C136.012 58.0186 136.309 59.1983 136.508 59.5956H137.503C137.224 59.0555 136.963 58.0589 136.508 55.9635C136.188 54.4671 135.513 53.4489 134.434 53.1105V53.1074ZM130.547 52.6479V47.001C130.885 46.9203 131.564 46.8209 132.481 46.8209C134.592 46.8209 136.108 47.6591 136.108 49.7142C136.108 51.49 134.753 52.6479 132.68 52.6479H130.547ZM160.197 32.8293C160.197 30.5941 160.178 29.1381 160.076 27.4804L160.116 27.4618C160.814 28.8401 161.731 30.2557 162.726 31.8111L167.846 39.6342H168.742V26.1827H167.806V32.8697C167.806 34.9838 167.825 36.5205 167.964 38.3365L167.924 38.3552C167.267 37.0575 166.489 35.8002 165.413 34.1238L160.172 26.1796H159.276V39.6311H160.194V32.8262L160.197 32.8293ZM150.892 39.8546C154.001 39.8546 156.89 37.5201 156.89 32.7703C156.89 28.598 154.438 25.9654 151.05 25.9654C147.663 25.9654 145.034 28.6383 145.034 33.0497C145.034 37.4611 147.585 39.8546 150.892 39.8546ZM150.991 26.7633C154.357 26.7633 155.913 29.995 155.913 32.8293C155.913 36.1635 154.14 39.0568 150.951 39.0568C147.762 39.0568 146.011 36.0424 146.011 33.0094C146.011 29.9763 147.585 26.7633 150.991 26.7633ZM111.858 26.1858V39.6373H118.791V38.8395H112.794V26.1858H111.858ZM142.641 26.1858H141.705V39.6373H142.641V26.1858ZM105.981 39.836C107.615 39.836 108.91 39.5162 109.589 39.1561L109.31 38.3986C108.554 38.7774 107.438 39.0164 106.282 39.0164C102.696 39.0164 100.604 36.6602 100.604 33.0094C100.604 29.1381 102.817 26.7819 106.443 26.7819C107.577 26.7819 108.554 27.0209 109.233 27.3593L109.552 26.5615C109.133 26.3411 108.138 25.9623 106.424 25.9623C102.2 25.9623 99.6304 28.9953 99.6304 32.9876C99.6304 37.756 102.739 39.8329 105.987 39.8329L105.981 39.836ZM97.2532 39.6373V26.1858H96.3171V32.8728C96.3171 34.9869 96.3357 36.5236 96.4752 38.3397L96.4349 38.3583C95.7778 37.0606 94.9999 35.8033 93.9244 34.127L88.6832 26.1827H87.7874V39.6342H88.7049V32.8293C88.7049 30.5941 88.6832 29.1381 88.584 27.4804L88.6243 27.4618C89.3217 28.8401 90.2391 30.2557 91.234 31.8111L96.3543 39.6342H97.2501L97.2532 39.6373ZM135.748 32.2333C133.814 31.4758 132.959 30.7152 132.959 29.2189C132.959 28.1603 133.696 26.7633 135.869 26.7633C137.025 26.7633 137.881 27.142 138.24 27.4028L138.6 26.6049C138.141 26.3069 137.186 25.9654 135.931 25.9654C133.659 25.9654 132.026 27.4028 132.026 29.3772C132.026 31.2119 133.321 32.3295 135.494 33.0901C137.428 33.8476 138.203 34.7261 138.203 36.2442C138.203 37.9019 136.966 39.0381 134.977 39.0381C133.842 39.0381 132.785 38.6594 132.029 38.141L131.669 38.9388C132.367 39.4572 133.721 39.836 134.877 39.836C137.747 39.836 139.142 38.1006 139.142 36.1448C139.142 34.189 137.968 33.1304 135.755 32.2333H135.748ZM83.5846 39.6373H84.5206V26.1858H83.5846V39.6373ZM128.257 34.3101C128.257 37.6039 126.723 39.0413 124.51 39.0413C122.517 39.0413 120.924 37.725 120.924 34.3101V26.1889H119.988V34.3722C119.988 38.4825 122.098 39.8608 124.451 39.8608C126.98 39.8608 129.212 38.3428 129.212 34.2139V26.1921H128.254V34.3132L128.257 34.3101ZM104.586 6.23062H103.65V19.6821H104.586V6.23062ZM116.622 17.7263C117.837 16.3883 118.376 14.5939 118.376 12.6164C118.376 10.6389 117.778 9.08358 116.702 7.96599C115.586 6.78942 113.733 6.13128 111.281 6.13128C110.026 6.13128 108.87 6.25235 107.853 6.41068V19.6635C108.811 19.7628 109.787 19.7845 110.823 19.7845C113.414 19.7845 115.425 19.027 116.622 17.7294V17.7263ZM108.792 7.1278C109.369 7.02846 110.187 6.92911 111.222 6.92911C115.528 6.92911 117.418 9.26364 117.4 12.6754C117.4 16.5683 115.267 18.9805 110.965 18.9805C110.128 18.9805 109.35 18.9619 108.792 18.8811V7.1278ZM94.5256 13.5136H96.6178C98.3907 13.5943 99.2275 14.4729 99.6273 16.4069C99.9869 18.1019 100.284 19.2816 100.483 19.679H101.478C101.199 19.1388 100.938 18.1423 100.483 16.0468C100.164 14.5505 99.4879 13.5322 98.4093 13.1938V13.1535C99.9621 12.6133 101.041 11.4585 101.041 9.64238C101.041 8.70484 100.681 7.80767 100.105 7.24887C99.3267 6.51002 98.2326 6.13128 96.4783 6.13128C95.5609 6.13128 94.4048 6.23062 93.5896 6.41068V19.6821H94.5256V13.5167V13.5136ZM94.5256 7.08744C94.8635 7.00673 95.5423 6.90738 96.4597 6.90738C98.5704 6.90738 100.086 7.74558 100.086 9.8007C100.086 11.5764 98.7316 12.7344 96.6581 12.7344H94.5256V7.08744ZM127.699 18.8811H121.683V12.9952H127.064V12.1973H121.683V7.02846H127.383V6.23062H120.747V19.6821H127.702V18.8842L127.699 18.8811ZM84.5206 13.9327C84.9979 14.0724 85.5558 14.091 86.154 14.091C87.7874 14.091 89.2411 13.5726 90.0996 12.573C90.6978 11.9148 91.0357 11.0549 91.0357 9.90005C91.0357 8.7452 90.6358 7.88528 90.0004 7.26439C89.2628 6.52554 88.0478 6.12817 86.4547 6.12817C85.3203 6.12817 84.3626 6.22752 83.5846 6.38895V19.679H84.5206V13.9327ZM84.5206 7.08744C84.8802 7.00673 85.5372 6.92911 86.4144 6.92911C88.5468 6.92911 90.081 7.86665 90.081 9.98387C90.081 12.1011 88.6274 13.2963 86.2346 13.2963C85.5775 13.2963 84.9979 13.2373 84.5206 13.0976V7.09054V7.08744Z" fill="white"/>
<path d="M38.3172 20.0204H27.5807L19.9901 27.6231V38.3768L27.5807 45.9796H38.3172L45.9077 38.3768V27.6231L38.3172 20.0204Z" fill="#050508"/>
<path d="M19.99 45.9796H12.9604C10.4964 45.9796 8.19969 45.278 6.23774 44.0828C5.20562 48.3389 6.33382 53.0111 9.65023 56.3359C12.9697 59.6576 17.6344 60.7877 21.8838 59.7539C20.6905 57.7888 19.99 55.4915 19.99 53.0204V45.9796Z" fill="#712D85"/>
<path d="M45.9077 20.0204H52.9372C55.4013 20.0204 57.698 20.722 59.6599 21.9203C60.6921 17.6642 59.5639 12.9889 56.2474 9.66717C53.7152 7.13086 50.4019 5.86426 47.0824 5.86426C46.0503 5.86426 45.0212 6.00085 44.0139 6.2461C45.2072 8.2112 45.9077 10.5116 45.9077 12.9796V20.0204Z" fill="#712D85"/>
<path d="M14.6218 33L9.65029 28.0205C7.9084 26.2758 6.7802 24.1524 6.2378 21.9172C2.50296 24.1959 0.00170898 28.2999 0.00170898 33C0.00170898 37.7001 2.50296 41.8042 6.2378 44.0828C6.7802 41.8476 7.9084 39.7242 9.65029 37.9795L14.6218 33Z" fill="#E90E8B"/>
<path d="M65.896 33C65.896 28.2999 63.3947 24.1959 59.6599 21.9172C59.1175 24.1524 57.9893 26.2758 56.2474 28.0205L51.2759 33L56.2474 37.9795C57.9893 39.7242 59.1175 41.8476 59.6599 44.0828C63.3947 41.8042 65.896 37.7001 65.896 33Z" fill="#E90E8B"/>
<path d="M19.99 45.9796V38.3769L14.6218 33L9.65029 37.9795C7.9084 39.7242 6.7802 41.8476 6.23779 44.0828C8.19974 45.278 10.4964 45.9796 12.9605 45.9796H19.99Z" fill="#65255E"/>
<path d="M45.9076 20.0204V27.6232L51.2758 33L56.2474 28.0205C57.9892 26.2758 59.1174 24.1524 59.6598 21.9172C57.6979 20.7189 55.4012 20.0173 52.9371 20.0173H45.9076V20.0204Z" fill="#65255E"/>
<path d="M19.99 20.0204V12.9796C19.99 10.5116 20.6905 8.2112 21.8838 6.2461C20.8764 6.00085 19.8474 5.86426 18.8153 5.86426C15.4989 5.86426 12.1825 7.13086 9.65023 9.66717C6.33382 12.9889 5.20562 17.6642 6.23774 21.9203C8.19969 20.722 10.4964 20.0204 12.9604 20.0204H19.99Z" fill="#F2C619"/>
<path d="M45.9077 45.9796V53.0204C45.9077 55.4884 45.2072 57.7888 44.0139 59.7539C48.2633 60.7877 52.9279 59.6576 56.2474 56.3359C59.5639 53.0111 60.6921 48.3389 59.6599 44.0828C57.698 45.278 55.4013 45.9796 52.9372 45.9796H45.9077Z" fill="#F2C619"/>
<path d="M14.6218 33L19.99 27.6231V20.0204H12.9605C10.4964 20.0204 8.19974 20.722 6.23779 21.9172C6.7802 24.1524 7.9084 26.2758 9.65029 28.0205L14.6218 33Z" fill="#BE2328"/>
<path d="M51.2758 33L45.9076 38.3769V45.9796H52.9371C55.4012 45.9796 57.6979 45.278 59.6598 44.0828C59.1174 41.8476 57.9892 39.7242 56.2474 37.9795L51.2758 33Z" fill="#BE2328"/>
<path d="M14.6218 33L19.9901 38.3769V27.6232L14.6218 33Z" fill="#4B1143"/>
<path d="M45.9077 38.3769L51.276 33L45.9077 27.6232V38.3769Z" fill="#4B1143"/>
<path d="M32.9489 14.6436L37.9205 9.66406C39.6623 7.91938 41.7824 6.78937 44.014 6.2461C41.739 2.50527 37.6415 0 32.9489 0C28.2564 0 24.1589 2.50527 21.8839 6.2461C24.1155 6.78937 26.2355 7.91938 27.9774 9.66406L32.9489 14.6436Z" fill="#25A4DE"/>
<path d="M32.9489 51.3564L27.9774 56.3359C26.2355 58.0806 24.1155 59.2106 21.8839 59.7539C24.1589 63.4947 28.2564 66 32.9489 66C37.6415 66 41.739 63.4947 44.014 59.7539C41.7824 59.2106 39.6623 58.0806 37.9205 56.3359L32.9489 51.3564Z" fill="#25A4DE"/>
<path d="M32.9489 51.3565L27.5807 45.9796H19.9901V53.0204C19.9901 55.4885 20.6906 57.7888 21.8839 59.7539C24.1155 59.2107 26.2355 58.0807 27.9774 56.336L32.9489 51.3565Z" fill="#315DA8"/>
<path d="M32.9489 14.6436L38.3171 20.0204H45.9076V12.9796C45.9076 10.5116 45.2072 8.21119 44.0139 6.24609C41.7823 6.78937 39.6623 7.91938 37.9204 9.66406L32.9489 14.6436Z" fill="#315DA8"/>
<path d="M45.9077 20.0204H38.3171L45.9077 27.6231V20.0204Z" fill="#142649"/>
<path d="M19.9901 45.9796H27.5807L19.9901 38.3768V45.9796Z" fill="#142649"/>
<path d="M19.9901 20.0204H27.5807L32.9489 14.6436L27.9774 9.66406C26.2324 7.91627 24.1155 6.78937 21.8839 6.24609C20.6906 8.21119 19.9901 10.5116 19.9901 12.9796V20.0204Z" fill="#01935B"/>
<path d="M45.9076 45.9796H38.3171L32.9489 51.3565L37.9204 56.336C39.6623 58.0806 41.7823 59.2107 44.0139 59.7539C45.2072 57.7888 45.9076 55.4885 45.9076 53.0204V45.9796Z" fill="#01935B"/>
<path d="M32.9489 51.3565L38.3172 45.9796H27.5807L32.9489 51.3565Z" fill="#054456"/>
<path d="M32.9489 14.6436L27.5807 20.0204H38.3172L32.9489 14.6436Z" fill="#054456"/>
<path d="M19.9901 20.0204V27.6231L27.5807 20.0204H19.9901Z" fill="#2E2124"/>
<path d="M45.9077 45.9796V38.3768L38.3171 45.9796H45.9077Z" fill="#2E2124"/>
<path d="M15.8369 36.061C15.0558 36.8433 13.9772 37.3276 12.7808 37.3276C11.5844 37.3276 10.5089 36.8433 9.72787 36.061C8.94371 35.2786 8.4602 34.1983 8.4602 33C8.4602 31.8017 8.94371 30.7213 9.72477 29.939C10.5058 29.1536 11.5844 28.6693 12.7777 28.6693C13.971 28.6693 15.0527 29.1536 15.8338 29.9359C16.6179 30.7213 17.0984 31.8017 17.0984 32.9969C17.0984 34.1921 16.6179 35.2724 15.8338 36.0578M12.7777 25.7853C10.791 25.7853 8.9902 26.5925 7.68844 27.8963C6.38667 29.2033 5.58081 31.007 5.58081 32.9969C5.58081 34.9868 6.38667 36.7936 7.69154 38.0975C8.9964 39.4013 10.7941 40.2085 12.7808 40.2085C14.4049 40.2085 15.8989 39.6652 17.1015 38.7556V40.2085H19.984V32.9969C19.984 31.0038 19.1781 29.2002 17.8732 27.8963C16.5715 26.5925 14.7707 25.7853 12.7808 25.7853M58.194 27.8963C56.8891 26.5925 55.0914 25.7853 53.1047 25.7853C51.1179 25.7853 49.3171 26.5925 48.0123 27.8963C46.7074 29.2033 45.9015 31.007 45.9015 32.9969V40.2085H48.7809V32.9969C48.7809 31.8017 49.2644 30.7182 50.0455 29.9359C50.8266 29.1505 51.9083 28.6662 53.1016 28.6662C54.2949 28.6662 55.3735 29.1505 56.1545 29.9328C56.9356 30.7182 57.4191 31.7986 57.4191 32.9938V40.2054H60.2985V32.9938C60.2985 31.0007 59.4926 29.1971 58.1878 27.8932M41.7514 36.0547C40.9703 36.8371 39.8886 37.3213 38.6953 37.3213C37.502 37.3213 36.4234 36.8371 35.6393 36.0547C34.8582 35.2724 34.3747 34.1921 34.3747 32.9938C34.3747 31.7955 34.8582 30.7151 35.6393 29.9328C36.4203 29.1474 37.502 28.6631 38.6953 28.6631C39.8886 28.6631 40.9672 29.1474 41.7514 29.9297C42.5324 30.7151 43.016 31.7955 43.016 32.9907C43.016 34.1859 42.5324 35.2662 41.7514 36.0516M38.6953 25.7791C36.7055 25.7791 34.9078 26.5863 33.6029 27.8901C32.3012 29.1971 31.4953 31.0007 31.4953 32.9907C31.4953 34.1859 31.0118 35.2662 30.2307 36.0516C29.4497 36.8371 28.368 37.3182 27.1747 37.3182C25.9814 37.3182 24.9028 36.834 24.1217 36.0516C23.3407 35.2693 22.854 34.189 22.854 32.9907C22.854 31.7924 23.3376 30.712 24.1217 29.9297C24.9028 29.1443 25.9814 28.66 27.1747 28.66C28.368 28.66 29.4466 29.1443 30.2307 29.9266C30.3361 30.0353 30.4384 30.1501 30.5345 30.2681C30.8568 29.2964 31.3434 28.4023 31.9726 27.6169C30.6987 26.4745 29.0219 25.776 27.1778 25.776C25.191 25.776 23.3902 26.5832 22.0854 27.887C20.7836 29.194 19.9777 30.9976 19.9777 32.9876C19.9777 34.9775 20.7836 36.7843 22.0885 38.0881C23.3902 39.392 25.191 40.1991 27.1778 40.1991C29.1645 40.1991 30.9684 39.392 32.2702 38.0881C32.5119 37.846 32.7351 37.5883 32.9396 37.3151C33.1442 37.5883 33.3674 37.846 33.6091 38.0881C34.914 39.392 36.7117 40.1991 38.6984 40.1991C40.6852 40.1991 42.486 39.392 43.7908 38.0881C45.0926 36.7812 45.8984 34.9806 45.8984 32.9876C45.8984 30.9945 45.0926 29.1909 43.7908 27.887C42.486 26.5832 40.6852 25.776 38.6984 25.776" fill="white"/>
</g>
</g>
<defs>
<clipPath id="clip0_2_2239">
<rect width="173.39" height="66" fill="white"/>
</clipPath>
<clipPath id="clip1_2_2239">
<rect width="173.39" height="66" fill="white"/>
</clipPath>
</defs>
</svg>
