<svg width="88" height="50" viewBox="0 0 88 50" fill="none" xmlns="http://www.w3.org/2000/svg">
<g clip-path="url(#clip0_2_677)">
<path d="M57.2125 36.8431C57.2125 34.8492 57.9699 32.7723 60.0177 32.7723C61.9533 32.7723 62.7387 34.8215 62.7387 36.8431C62.7387 39.28 61.6727 40.9138 60.0177 40.9138C58.1943 40.9138 57.2125 39.1692 57.2125 36.8431ZM52.8083 36.9538C52.8083 41.3292 55.894 43.9323 59.9055 43.9323C63.5803 43.9323 67.1429 41.6615 67.1429 36.7046C67.1429 32.6338 64.3377 29.7815 60.1299 29.7815C55.9221 29.7815 52.8083 32.5785 52.8083 36.9538ZM64.506 20.5508H68.7699V7.00922H64.506V20.5508ZM41.6998 35.9569C41.6998 35.7077 41.7278 35.4308 41.7839 35.2092C42.0644 33.9631 43.1304 33.0769 44.3366 33.0769C46.2442 33.0769 47.226 34.7108 47.226 36.8708C47.226 39.1692 46.132 40.6923 44.2805 40.6923C43.0462 40.6923 42.0644 39.8338 41.7839 38.6985C41.7278 38.4492 41.6998 38.1446 41.6998 37.8123V35.9569ZM41.0265 30.0861H37.3237C37.3798 31.3323 37.4359 32.8554 37.4359 34.6277V49.1108H41.6998V42.3815H41.7559C42.373 43.2677 43.6634 43.9323 45.3185 43.9323C48.3761 43.9323 51.546 41.6061 51.546 36.6769C51.546 32.3569 48.853 29.7815 45.8514 29.7815C43.8598 29.7815 42.2888 30.5292 41.279 31.9692H41.2229L41.0265 30.0861ZM10.4499 13.7938C10.4499 16.0923 9.35586 17.6154 7.50443 17.6154C6.27014 17.6154 5.28833 16.7569 5.00781 15.6215C4.9517 15.3723 4.92365 15.0677 4.92365 14.7354V12.88C4.92365 12.6308 4.9517 12.3538 5.00781 12.1323C5.28833 10.8861 6.3543 9.99999 7.56053 9.99999C9.46807 9.99999 10.4499 11.6338 10.4499 13.7938ZM14.7699 13.6C14.7699 9.27999 12.0769 6.70461 9.07534 6.70461C7.08365 6.70461 5.51274 7.4523 4.50287 8.8923H4.44677L4.2504 7.00922H0.547546C0.60365 8.25538 0.659754 9.77845 0.659754 11.5508V26.0338H4.92365V19.3046H4.97975C5.5969 20.1908 6.88729 20.8554 8.54235 20.8554C11.6 20.8554 14.7699 18.5292 14.7699 13.6ZM23.999 10.6092C24.4759 10.6092 24.8405 10.6646 25.1491 10.72V6.75999C24.8405 6.70461 24.6442 6.70461 24.2514 6.70461C22.933 6.70461 21.2499 7.53538 20.5486 9.50153H20.4364L20.2961 7.00922H16.6213C16.6774 8.1723 16.7335 9.47384 16.7335 11.4677V20.5508H20.9974V13.6831C20.9974 13.3508 21.0255 13.0185 21.0816 12.7415C21.3621 11.44 22.4281 10.6092 23.999 10.6092ZM31.0961 3.24307C31.0681 2.02461 30.1985 1.11076 28.8239 1.11076C27.4494 1.11076 26.5517 2.02461 26.5798 3.24307C26.5517 4.40614 27.4494 5.34768 28.7959 5.34768C30.1423 5.34768 31.0961 4.40614 31.0961 3.24307ZM30.9559 7.00922H26.692V20.5508H30.9559V7.00922ZM34.9673 30.5569C34.1257 30.1415 32.6951 29.7815 31.0961 29.7815C27.7018 29.7815 25.5138 31.6923 25.5138 34.2123C25.4857 35.8185 26.5798 37.3415 29.413 38.2831C31.012 38.8092 31.4327 39.1415 31.4327 39.8338C31.4327 40.5261 30.8998 40.9692 29.6094 40.9692C28.319 40.9692 26.72 40.4154 25.9346 39.9446L25.1772 42.9631C26.2151 43.5169 27.814 43.9046 29.6094 43.9046C33.5366 43.9046 35.5564 42.0492 35.5564 39.5292C35.5283 37.5354 34.4343 36.2338 31.8255 35.3477C30.1424 34.7661 29.6094 34.4338 29.6094 33.7969C29.6094 33.1046 30.1985 32.6892 31.2364 32.6892C32.4146 32.6892 33.5927 33.1323 34.2099 33.4646L34.9673 30.5569ZM42.7096 14.5138C42.7096 14.8738 42.6816 15.1785 42.5974 15.4831C42.3449 16.6738 41.3631 17.5046 40.1288 17.5046C38.3616 17.5046 37.2114 16.0646 37.2114 13.7661C37.2114 11.6338 38.2213 9.91691 40.1569 9.91691C41.4753 9.91691 42.4011 10.8585 42.6535 11.9938C42.6816 12.2154 42.7096 12.52 42.7096 12.7415V14.5138ZM43.2987 20.5508H47.0857C47.0296 19.6369 46.9735 18.0308 46.9735 16.5077V0.889221H42.7096V8.22768H42.6535C42.0364 7.28614 40.7179 6.70461 39.0348 6.70461C35.7527 6.70461 32.8634 9.33538 32.8914 13.9046C32.8914 18.1138 35.5003 20.8554 38.7543 20.8554C40.5216 20.8554 42.1766 20.08 43.0462 18.5569H43.1023L43.2987 20.5508ZM57.9979 12.2431H52.9486C53.0608 11.1077 53.7901 9.50153 55.5855 9.50153C57.5491 9.50153 57.9979 11.2185 57.9979 12.2431ZM61.813 15.1231C61.8691 14.8185 61.9533 14.1815 61.9533 13.4615C61.9533 10.1108 60.2701 6.70461 55.8379 6.70461C51.0691 6.70461 48.9091 10.4985 48.9091 13.9323C48.9091 18.1692 51.574 20.8277 56.2307 20.8277C58.0821 20.8277 59.7933 20.5508 61.1959 19.9969L60.6348 17.1446C59.4847 17.5046 58.3065 17.6985 56.8478 17.6985C54.8561 17.6985 53.1169 16.8677 52.9766 15.1231H61.813ZM68.9101 3.24307C68.8821 2.02461 68.0125 1.11076 66.6379 1.11076C65.2634 1.11076 64.3657 2.02461 64.3938 3.24307C64.3657 4.40614 65.2634 5.34768 66.6099 5.34768C67.9564 5.34768 68.9101 4.40614 68.9101 3.24307ZM72.6411 30.0861H68.9662C69.0223 31.2492 69.0785 32.5508 69.0785 34.5446V43.6277H73.3423V36.76C73.3423 36.4277 73.3704 36.0954 73.4265 35.8185C73.707 34.5169 74.773 33.6861 76.3439 33.6861C76.8208 33.6861 77.1855 33.7415 77.494 33.7969V29.8369C77.1855 29.7815 76.9891 29.7815 76.5964 29.7815C75.2779 29.7815 73.5948 30.6123 72.8935 32.5785H72.7813L72.6411 30.0861ZM80.2431 20.5508H84.507V12.52C84.507 8.5323 82.4031 6.70461 79.5979 6.70461C77.3257 6.70461 75.9231 8.00615 75.3621 8.86461H75.2779L75.0816 7.00922H71.3787C71.4348 8.19999 71.4909 9.63999 71.4909 11.3292V20.5508H75.7548V12.7415C75.7548 12.3538 75.8109 11.9385 75.9231 11.6892C76.2037 10.9138 76.9049 10.1108 78.0831 10.1108C79.626 10.1108 80.2431 11.3015 80.2431 13.0461V20.5508ZM87.4525 33.1877V30.0861H84.3948V26.2092L80.2151 27.1508V30.0861H78.3917V33.1877H80.2151V38.7261C80.2151 40.6369 80.6078 41.9385 81.3933 42.7415C82.0665 43.4338 83.2166 43.9046 84.5912 43.9046C85.7974 43.9046 86.8073 43.7661 87.3683 43.5446L87.3403 40.36C87.0317 40.4154 86.6109 40.4708 86.0779 40.4708C84.7875 40.4708 84.3948 39.7231 84.3948 38.0892V33.1877H87.4525Z" fill="white"/>
</g>
<defs>
<clipPath id="clip0_2_677">
<rect width="86.9049" height="48.2215" fill="white" transform="translate(0.547546 0.889221)"/>
</clipPath>
</defs>
</svg>
