<svg width="211" height="118" viewBox="0 0 211 118" fill="none" xmlns="http://www.w3.org/2000/svg">
<g clip-path="url(#clip0_1_6000)">
<path d="M137.292 87.8675C137.292 83.0075 139.115 77.945 144.042 77.945C148.7 77.945 150.59 82.94 150.59 87.8675C150.59 93.8075 148.025 97.79 144.042 97.79C139.655 97.79 137.292 93.5375 137.292 87.8675ZM126.695 88.1375C126.695 98.8025 134.12 105.147 143.772 105.147C152.615 105.147 161.187 99.6125 161.187 87.53C161.187 77.6075 154.437 70.655 144.312 70.655C134.188 70.655 126.695 77.4725 126.695 88.1375ZM154.842 48.155H165.102V15.1475H154.842V48.155ZM99.965 85.7075C99.965 85.1 100.032 84.425 100.167 83.885C100.842 80.8475 103.408 78.6875 106.31 78.6875C110.9 78.6875 113.262 82.67 113.262 87.935C113.262 93.5375 110.63 97.25 106.175 97.25C103.205 97.25 100.842 95.1575 100.167 92.39C100.032 91.7825 99.965 91.04 99.965 90.23V85.7075ZM98.345 71.3975H89.435C89.57 74.435 89.705 78.1475 89.705 82.4675V117.77H99.965V101.367H100.1C101.585 103.527 104.69 105.147 108.672 105.147C116.03 105.147 123.657 99.4775 123.657 87.4625C123.657 76.9325 117.177 70.655 109.955 70.655C105.162 70.655 101.382 72.4775 98.9525 75.9875H98.8175L98.345 71.3975ZM24.77 31.685C24.77 37.2875 22.1375 41 17.6825 41C14.7125 41 12.35 38.9075 11.675 36.14C11.54 35.5325 11.4725 34.79 11.4725 33.98V29.4575C11.4725 28.85 11.54 28.175 11.675 27.635C12.35 24.5975 14.915 22.4375 17.8175 22.4375C22.4075 22.4375 24.77 26.42 24.77 31.685ZM35.165 31.2125C35.165 20.6825 28.685 14.405 21.4625 14.405C16.67 14.405 12.89 16.2275 10.46 19.7375H10.325L9.8525 15.1475H0.942505C1.0775 18.185 1.2125 21.8975 1.2125 26.2175V61.52H11.4725V45.1175H11.6075C13.0925 47.2775 16.1975 48.8975 20.18 48.8975C27.5375 48.8975 35.165 43.2275 35.165 31.2125ZM57.3725 23.9225C58.52 23.9225 59.3975 24.0575 60.14 24.1925V14.54C59.3975 14.405 58.925 14.405 57.98 14.405C54.8075 14.405 50.7575 16.43 49.07 21.2225H48.8L48.4625 15.1475H39.62C39.755 17.9825 39.89 21.155 39.89 26.015V48.155H50.15V31.415C50.15 30.605 50.2175 29.795 50.3525 29.12C51.0275 25.9475 53.5925 23.9225 57.3725 23.9225ZM74.45 5.96748C74.3825 2.99748 72.29 0.76998 68.9825 0.76998C65.675 0.76998 63.515 2.99748 63.5825 5.96748C63.515 8.80248 65.675 11.0975 68.915 11.0975C72.155 11.0975 74.45 8.80248 74.45 5.96748ZM74.1125 15.1475H63.8525V48.155H74.1125V15.1475ZM83.765 72.545C81.74 71.5325 78.2975 70.655 74.45 70.655C66.2825 70.655 61.0175 75.3125 61.0175 81.455C60.95 85.37 63.5825 89.0825 70.4 91.3775C74.2475 92.66 75.26 93.47 75.26 95.1575C75.26 96.845 73.9775 97.925 70.8725 97.925C67.7675 97.925 63.92 96.575 62.03 95.4275L60.2075 102.785C62.705 104.135 66.5525 105.08 70.8725 105.08C80.3225 105.08 85.1825 100.557 85.1825 94.415C85.115 89.555 82.4825 86.3825 76.205 84.2225C72.155 82.805 70.8725 81.995 70.8725 80.4425C70.8725 78.755 72.29 77.7425 74.7875 77.7425C77.6225 77.7425 80.4575 78.8225 81.9425 79.6325L83.765 72.545ZM102.395 33.44C102.395 34.3175 102.327 35.06 102.125 35.8025C101.517 38.705 99.155 40.73 96.185 40.73C91.9325 40.73 89.165 37.22 89.165 31.6175C89.165 26.42 91.595 22.235 96.2525 22.235C99.425 22.235 101.652 24.53 102.26 27.2975C102.327 27.8375 102.395 28.58 102.395 29.12V33.44ZM103.812 48.155H112.925C112.79 45.9275 112.655 42.0125 112.655 38.3V0.22998H102.395V18.1175H102.26C100.775 15.8225 97.6025 14.405 93.5525 14.405C85.655 14.405 78.7025 20.8175 78.77 31.955C78.77 42.215 85.0475 48.8975 92.8775 48.8975C97.13 48.8975 101.112 47.0075 103.205 43.295H103.34L103.812 48.155ZM139.182 27.905H127.032C127.302 25.1375 129.057 21.2225 133.377 21.2225C138.102 21.2225 139.182 25.4075 139.182 27.905ZM148.362 34.925C148.497 34.1825 148.7 32.63 148.7 30.875C148.7 22.7075 144.65 14.405 133.985 14.405C122.51 14.405 117.312 23.6525 117.312 32.0225C117.312 42.35 123.725 48.83 134.93 48.83C139.385 48.83 143.502 48.155 146.877 46.805L145.527 39.8525C142.76 40.73 139.925 41.2025 136.415 41.2025C131.622 41.2025 127.437 39.1775 127.1 34.925H148.362ZM165.44 5.96748C165.372 2.99748 163.28 0.76998 159.972 0.76998C156.665 0.76998 154.505 2.99748 154.572 5.96748C154.505 8.80248 156.665 11.0975 159.905 11.0975C163.145 11.0975 165.44 8.80248 165.44 5.96748ZM174.417 71.3975H165.575C165.71 74.2325 165.845 77.405 165.845 82.265V104.405H176.105V87.665C176.105 86.855 176.172 86.045 176.307 85.37C176.982 82.1975 179.547 80.1725 183.327 80.1725C184.475 80.1725 185.352 80.3075 186.095 80.4425V70.79C185.352 70.655 184.88 70.655 183.935 70.655C180.762 70.655 176.712 72.68 175.025 77.4725H174.755L174.417 71.3975ZM192.71 48.155H202.97V28.58C202.97 18.86 197.907 14.405 191.157 14.405C185.69 14.405 182.315 17.5775 180.965 19.67H180.762L180.29 15.1475H171.38C171.515 18.05 171.65 21.56 171.65 25.6775V48.155H181.91V29.12C181.91 28.175 182.045 27.1625 182.315 26.555C182.99 24.665 184.677 22.7075 187.512 22.7075C191.225 22.7075 192.71 25.61 192.71 29.8625V48.155ZM210.057 78.9575V71.3975H202.7V61.9475L192.642 64.2425V71.3975H188.255V78.9575H192.642V92.4575C192.642 97.115 193.587 100.287 195.477 102.245C197.097 103.932 199.865 105.08 203.172 105.08C206.075 105.08 208.505 104.742 209.855 104.202L209.787 96.44C209.045 96.575 208.032 96.71 206.75 96.71C203.645 96.71 202.7 94.8875 202.7 90.905V78.9575H210.057Z" fill="white"/>
</g>
<defs>
<clipPath id="clip0_1_6000">
<rect width="209.115" height="117.54" fill="white" transform="translate(0.942505 0.22998)"/>
</clipPath>
</defs>
</svg>
