<svg width="265" height="120" viewBox="0 0 265 120" fill="none" xmlns="http://www.w3.org/2000/svg">
<path d="M127.033 28.1289C127.303 25.3614 129.058 21.4464 133.378 21.4464C138.103 21.4464 139.182 25.6314 139.182 28.1289H127.033ZM148.363 35.1489C148.497 34.4064 148.7 32.8539 148.7 31.0989C148.7 22.9314 144.65 14.6289 133.985 14.6289C122.51 14.6289 117.313 23.8764 117.313 32.2464C117.313 42.5739 123.725 49.0539 134.93 49.0539C139.385 49.0539 143.503 48.3789 146.878 47.0289L145.528 40.0764C142.76 40.9539 139.925 41.4264 136.415 41.4264C131.622 41.4264 127.438 39.4014 127.1 35.1489H148.363ZM102.395 33.6639C102.395 34.5414 102.328 35.2839 102.125 36.0264C101.518 38.9289 99.155 40.9539 96.185 40.9539C91.9325 40.9539 89.165 37.4439 89.165 31.8414C89.165 26.6439 91.595 22.4589 96.2525 22.4589C99.425 22.4589 101.653 24.7539 102.26 27.5214C102.327 28.0614 102.395 28.8039 102.395 29.3439V33.6639ZM102.395 0.453857V18.3414H102.26C100.775 16.0464 97.6025 14.6289 93.5525 14.6289C85.655 14.6289 78.7025 21.0414 78.77 32.1789C78.77 42.4389 85.0475 49.1214 92.8775 49.1214C97.13 49.1214 101.113 47.2314 103.205 43.5189H103.34L103.813 48.3789H112.925C112.79 46.1514 112.655 42.2364 112.655 38.5239V0.453857L102.395 0.453857ZM68.9825 0.993857C65.675 0.993857 63.515 3.22136 63.5825 6.19136C63.515 9.02636 65.675 11.3214 68.915 11.3214C72.155 11.3214 74.45 9.02636 74.45 6.19136C74.3825 3.22136 72.29 0.993857 68.9825 0.993857ZM74.1125 15.3714H63.8525V48.3789H74.1125V15.3714ZM39.89 48.3789H50.15V31.6389C50.15 30.8289 50.2175 30.0189 50.3525 29.3439C51.0275 26.1714 53.5925 24.1464 57.3725 24.1464C58.52 24.1464 59.3975 24.2814 60.14 24.4164V14.7639C59.3975 14.6289 58.925 14.6289 57.98 14.6289C54.8075 14.6289 50.7575 16.6539 49.07 21.4464H48.8L48.4625 15.3714H39.62C39.755 18.2064 39.89 21.3789 39.89 26.2389V48.3789ZM11.4725 29.6814C11.4725 29.0739 11.54 28.3989 11.675 27.8589C12.35 24.8214 14.915 22.6614 17.8175 22.6614C22.4075 22.6614 24.77 26.6439 24.77 31.9089C24.77 37.5114 22.1375 41.2239 17.6825 41.2239C14.7125 41.2239 12.35 39.1314 11.675 36.3639C11.54 35.7564 11.4725 35.0139 11.4725 34.2039V29.6814ZM1.2125 61.7439H11.4725V45.3414H11.6075C13.0925 47.5014 16.1975 49.1214 20.18 49.1214C27.5375 49.1214 35.165 43.4514 35.165 31.4364C35.165 20.9064 28.685 14.6289 21.4625 14.6289C16.67 14.6289 12.89 16.4514 10.46 19.9614H10.325L9.8525 15.3714H0.942505C1.0775 18.4089 1.2125 22.1214 1.2125 26.4414V61.7439Z" fill="white"/>
<path d="M171.65 48.3789H181.91V29.3439C181.91 28.3989 182.045 27.3864 182.315 26.7789C182.99 24.8889 184.677 22.9314 187.512 22.9314C191.225 22.9314 192.71 25.8339 192.71 30.0864V48.3789H202.97V28.8039C202.97 19.0839 197.907 14.6289 191.157 14.6289C185.69 14.6289 182.315 17.8014 180.965 19.8939H180.762L180.29 15.3714H171.38C171.515 18.2739 171.65 21.7839 171.65 25.9014V48.3789ZM159.972 0.993896C156.665 0.993896 154.505 3.2214 154.572 6.1914C154.505 9.0264 156.665 11.3214 159.905 11.3214C163.145 11.3214 165.44 9.0264 165.44 6.1914C165.372 3.2214 163.28 0.993896 159.972 0.993896ZM165.102 15.3714H154.842V48.3789H165.102V15.3714Z" fill="white"/>
<path d="M229.351 71.6214L241.434 101.794C241.839 102.604 241.906 103.144 241.906 103.481C241.906 103.954 241.704 104.494 241.366 104.966C240.354 106.654 238.666 108.274 237.114 109.084C235.561 110.029 233.941 110.636 232.659 110.839L234.819 119.546C237.384 119.209 241.164 118.129 244.741 115.024C248.454 111.716 251.626 106.451 256.351 93.3564L264.046 71.6214H253.044L248.994 87.8214C248.521 89.7114 247.981 92.2089 247.509 93.9639H247.306C246.901 92.2089 246.226 89.7789 245.686 87.8214L240.759 71.6214H229.351ZM211.059 64.4664V71.6214H206.671V79.1814H211.059V92.6814C211.059 97.3389 212.004 100.511 213.894 102.469C215.514 104.156 218.281 105.304 221.589 105.304C224.491 105.304 226.921 104.966 228.271 104.426L228.204 96.6639C227.461 96.7989 226.449 96.9339 225.166 96.9339C222.061 96.9339 221.116 95.1114 221.116 91.1289V79.1814H228.474V71.6214H221.116V62.1714L211.059 64.4664ZM197.964 57.2439C194.656 57.2439 192.496 59.4714 192.564 62.4414C192.496 65.2764 194.656 67.5714 197.896 67.5714C201.136 67.5714 203.431 65.2764 203.431 62.4414C203.364 59.4714 201.271 57.2439 197.964 57.2439ZM203.094 71.6214H192.834V104.629H203.094V71.6214ZM163.336 103.009C165.834 104.359 169.681 105.304 174.001 105.304C183.451 105.304 188.311 100.781 188.311 94.6389C188.244 89.7789 185.611 86.6064 179.334 84.4464C175.284 83.0289 174.001 82.2189 174.001 80.6664C174.001 78.9789 175.419 77.9664 177.916 77.9664C180.751 77.9664 183.586 79.0464 185.071 79.8564L186.894 72.7689C184.869 71.7564 181.426 70.8789 177.579 70.8789C169.411 70.8789 164.146 75.5364 164.146 81.6789C164.079 85.5939 166.711 89.3064 173.529 91.6014C177.376 92.8839 178.389 93.6939 178.389 95.3814C178.389 97.0689 177.106 98.1489 174.001 98.1489C170.896 98.1489 167.049 96.7989 165.159 95.6514L163.336 103.009ZM141.264 104.629H151.524V87.8889C151.524 87.0789 151.591 86.2689 151.726 85.5939C152.401 82.4214 154.966 80.3964 158.746 80.3964C159.894 80.3964 160.771 80.5314 161.514 80.6664V71.0139C160.771 70.8789 160.299 70.8789 159.354 70.8789C156.181 70.8789 152.131 72.9039 150.444 77.6964H150.174L149.836 71.6214H140.994C141.129 74.4564 141.264 77.6289 141.264 82.4889V104.629ZM115.141 84.3789C115.411 81.6114 117.166 77.6964 121.486 77.6964C126.211 77.6964 127.291 81.8814 127.291 84.3789H115.141ZM136.471 91.3989C136.606 90.6564 136.809 89.1039 136.809 87.3489C136.809 79.1814 132.759 70.8789 122.094 70.8789C110.619 70.8789 105.421 80.1264 105.421 88.4964C105.421 98.8239 111.834 105.304 123.039 105.304C127.494 105.304 131.611 104.629 134.986 103.279L133.636 96.3264C130.869 97.2039 128.034 97.6764 124.524 97.6764C119.731 97.6764 115.546 95.6514 115.209 91.3989H136.471ZM70.7262 71.6214L82.7412 104.629H93.0012L105.286 71.6214H94.4862L90.2337 86.9439C89.4912 89.7789 88.9512 92.2764 88.4112 94.9764H88.2087C87.7362 92.3439 87.1287 89.7114 86.3187 86.9439L81.8637 71.6214H70.7262ZM62.5587 57.2439C59.2512 57.2439 57.0912 59.4714 57.1587 62.4414C57.0912 65.2764 59.2512 67.5714 62.4912 67.5714C65.7312 67.5714 68.0262 65.2764 68.0262 62.4414C67.9587 59.4714 65.8662 57.2439 62.5587 57.2439ZM67.6887 71.6214H57.4287V104.629H67.6887V71.6214ZM40.6212 89.9139C40.6212 90.7914 40.5537 91.5339 40.3512 92.2764C39.7437 95.1789 37.3812 97.2039 34.4112 97.2039C30.1587 97.2039 27.3912 93.6939 27.3912 88.0914C27.3912 82.8939 29.8212 78.7089 34.4787 78.7089C37.6512 78.7089 39.8787 81.0039 40.4862 83.7714C40.5537 84.3114 40.6212 85.0539 40.6212 85.5939V89.9139ZM40.6212 56.7039V74.5914H40.4862C39.0012 72.2964 35.8287 70.8789 31.7787 70.8789C23.8812 70.8789 16.9287 77.2914 16.9962 88.4289C16.9962 98.6889 23.2737 105.371 31.1037 105.371C35.3562 105.371 39.3387 103.481 41.4312 99.7689H41.5662L42.0387 104.629H51.1512C51.0162 102.401 50.8812 98.4864 50.8812 94.7739V56.7039H40.6212Z" fill="white"/>
</svg>
