<svg width="387" height="120" viewBox="0 0 387 120" fill="none" xmlns="http://www.w3.org/2000/svg">
<g clip-path="url(#clip0_1_5369)">
<path d="M126.776 28.5336C127.046 25.7661 128.801 21.8511 133.121 21.8511C137.846 21.8511 138.926 26.0361 138.926 28.5336H126.776ZM148.106 35.5536C148.241 34.8111 148.444 33.2586 148.444 31.5036C148.444 23.3361 144.394 15.0336 133.729 15.0336C122.254 15.0336 117.056 24.2811 117.056 32.6511C117.056 42.9786 123.469 49.4586 134.674 49.4586C139.129 49.4586 143.246 48.7836 146.621 47.4336L145.271 40.4811C142.504 41.3586 139.669 41.8311 136.159 41.8311C131.366 41.8311 127.181 39.8061 126.844 35.5536H148.106ZM102.139 34.0686C102.139 34.9461 102.071 35.6886 101.869 36.4311C101.261 39.3336 98.8988 41.3586 95.9288 41.3586C91.6763 41.3586 88.9088 37.8486 88.9088 32.2461C88.9088 27.0486 91.3388 22.8636 95.9963 22.8636C99.1688 22.8636 101.396 25.1586 102.004 27.9261C102.071 28.4661 102.139 29.2086 102.139 29.7486V34.0686ZM102.139 0.858643V18.7461H102.004C100.519 16.4511 97.3463 15.0336 93.2963 15.0336C85.3988 15.0336 78.4463 21.4461 78.5138 32.5836C78.5138 42.8436 84.7913 49.5261 92.6213 49.5261C96.8738 49.5261 100.856 47.6361 102.949 43.9236H103.084L103.556 48.7836H112.669C112.534 46.5561 112.399 42.6411 112.399 38.9286V0.858643L102.139 0.858643ZM68.7263 1.39864C65.4188 1.39864 63.2588 3.62614 63.3263 6.59614C63.2588 9.43114 65.4188 11.7261 68.6588 11.7261C71.8988 11.7261 74.1938 9.43114 74.1938 6.59614C74.1263 3.62614 72.0338 1.39864 68.7263 1.39864ZM73.8563 15.7761H63.5963V48.7836H73.8563V15.7761ZM39.6338 48.7836H49.8938V32.0436C49.8938 31.2336 49.9613 30.4236 50.0963 29.7486C50.7713 26.5761 53.3363 24.5511 57.1163 24.5511C58.2638 24.5511 59.1413 24.6861 59.8838 24.8211V15.1686C59.1413 15.0336 58.6688 15.0336 57.7238 15.0336C54.5513 15.0336 50.5013 17.0586 48.8138 21.8511H48.5438L48.2063 15.7761H39.3638C39.4988 18.6111 39.6338 21.7836 39.6338 26.6436V48.7836ZM11.2163 30.0861C11.2163 29.4786 11.2838 28.8036 11.4188 28.2636C12.0938 25.2261 14.6588 23.0661 17.5613 23.0661C22.1513 23.0661 24.5138 27.0486 24.5138 32.3136C24.5138 37.9161 21.8813 41.6286 17.4263 41.6286C14.4563 41.6286 12.0938 39.5361 11.4188 36.7686C11.2838 36.1611 11.2163 35.4186 11.2163 34.6086V30.0861ZM0.956279 62.1486H11.2163V45.7461H11.3513C12.8363 47.9061 15.9413 49.5261 19.9238 49.5261C27.2813 49.5261 34.9088 43.8561 34.9088 31.8411C34.9088 21.3111 28.4288 15.0336 21.2063 15.0336C16.4138 15.0336 12.6338 16.8561 10.2038 20.3661H10.0688L9.59628 15.7761H0.686279C0.821279 18.8136 0.956279 22.5261 0.956279 26.8461V62.1486Z" fill="white"/>
<path d="M171.394 48.7837H181.654V29.7487C181.654 28.8037 181.789 27.7912 182.059 27.1837C182.734 25.2937 184.421 23.3362 187.256 23.3362C190.969 23.3362 192.454 26.2387 192.454 30.4912V48.7837H202.714V29.2087C202.714 19.4887 197.651 15.0337 190.901 15.0337C185.434 15.0337 182.059 18.2062 180.709 20.2987H180.506L180.034 15.7762H171.124C171.259 18.6787 171.394 22.1887 171.394 26.3062V48.7837ZM159.716 1.39868C156.409 1.39868 154.249 3.62618 154.316 6.59618C154.249 9.43118 156.409 11.7262 159.649 11.7262C162.889 11.7262 165.184 9.43118 165.184 6.59618C165.116 3.62618 163.024 1.39868 159.716 1.39868ZM164.846 15.7762H154.586V48.7837H164.846V15.7762Z" fill="white"/>
<path d="M354.994 48.7836H365.254V29.2086C365.254 28.4661 365.321 27.5886 365.591 26.9136C366.334 25.0911 368.021 23.3361 370.721 23.3361C374.569 23.3361 376.054 26.3061 376.054 30.6261V48.7836H386.314V29.4786C386.314 19.5561 381.319 15.0336 374.771 15.0336C372.881 15.0336 370.924 15.5061 369.439 16.3161C367.819 17.1936 366.469 18.2736 365.389 19.6911H365.254V0.858643H354.994V48.7836ZM333.326 8.62114V15.7761H328.939V23.3361H333.326V36.8361C333.326 41.4936 334.271 44.6661 336.161 46.6236C337.781 48.3111 340.549 49.4586 343.856 49.4586C346.759 49.4586 349.189 49.1211 350.539 48.5811L350.471 40.8186C349.729 40.9536 348.716 41.0886 347.434 41.0886C344.329 41.0886 343.384 39.2661 343.384 35.2836V23.3361H350.741V15.7761H343.384V6.32614L333.326 8.62114ZM315.034 48.7836H325.294V0.858643H315.034V48.7836ZM298.631 36.7686C298.631 37.3761 298.564 37.9836 298.429 38.5236C297.754 40.6161 295.661 42.3036 293.096 42.3036C290.801 42.3036 289.046 41.0211 289.046 38.3886C289.046 34.4061 293.231 33.1236 298.631 33.1911V36.7686ZM309.094 48.7836C308.756 46.9611 308.621 43.9236 308.621 40.7511V29.2761C308.621 21.5136 305.111 15.0336 294.109 15.0336C288.101 15.0336 283.579 16.6536 281.284 17.9361L283.174 24.5511C285.334 23.2011 288.911 22.0536 292.286 22.0536C297.349 22.0536 298.294 24.5511 298.294 26.3061V26.7786C286.616 26.7111 278.921 30.8286 278.921 39.4011C278.921 44.6661 282.904 49.5261 289.586 49.5261C293.501 49.5261 296.876 48.1086 299.036 45.4761H299.239L299.846 48.7836H309.094ZM254.959 28.5336C255.229 25.7661 256.984 21.8511 261.304 21.8511C266.029 21.8511 267.109 26.0361 267.109 28.5336H254.959ZM276.289 35.5536C276.424 34.8111 276.626 33.2586 276.626 31.5036C276.626 23.3361 272.576 15.0336 261.911 15.0336C250.436 15.0336 245.239 24.2811 245.239 32.6511C245.239 42.9786 251.651 49.4586 262.856 49.4586C267.311 49.4586 271.429 48.7836 274.804 47.4336L273.454 40.4811C270.686 41.3586 267.851 41.8311 264.341 41.8311C259.549 41.8311 255.364 39.8061 255.026 35.5536H276.289ZM209.261 48.7836H219.521V29.2086C219.521 28.4661 219.589 27.5886 219.859 26.9136C220.601 25.0911 222.289 23.3361 224.989 23.3361C228.836 23.3361 230.321 26.3061 230.321 30.6261V48.7836H240.581V29.4786C240.581 19.5561 235.586 15.0336 229.039 15.0336C227.149 15.0336 225.191 15.5061 223.706 16.3161C222.086 17.1936 220.736 18.2736 219.656 19.6911H219.521V0.858643H209.261V48.7836Z" fill="white"/>
<path d="M101.599 83.4113H90.2251V72.0376H79.9651V83.4113H68.5913V93.6713H79.9651V105.045H90.2251V93.6713H101.599V83.4113Z" fill="white"/>
<path d="M375.536 90.3186C375.536 91.1961 375.469 92.2761 375.199 93.0186C374.524 95.4486 372.431 97.2036 369.799 97.2036C365.479 97.2036 363.049 93.3561 363.049 88.4286C363.049 82.4211 366.086 79.0461 369.799 79.0461C372.634 79.0461 374.591 80.8686 375.334 83.5686C375.469 84.1086 375.536 84.7836 375.536 85.4586V90.3186ZM377.156 72.0261L376.819 75.9411H376.684C374.996 73.2411 372.161 71.2836 367.639 71.2836C359.539 71.2836 352.654 78.0336 352.654 88.6311C352.654 98.1486 358.459 104.764 366.626 104.764C370.406 104.764 373.579 103.211 375.536 100.444H375.671V102.604C375.671 108.679 371.959 111.311 367.099 111.311C363.251 111.311 359.606 110.029 357.514 108.814L355.489 116.576C358.459 118.264 363.049 119.141 367.369 119.141C372.229 119.141 377.156 118.196 380.801 115.091C384.514 111.784 385.796 106.586 385.796 100.241V81.8136C385.796 76.8861 385.931 74.1186 386.066 72.0261H377.156ZM316.676 105.034H326.936V85.9986C326.936 85.0536 327.071 84.0411 327.341 83.4336C328.016 81.5436 329.704 79.5861 332.539 79.5861C336.251 79.5861 337.736 82.4886 337.736 86.7411V105.034H347.996V85.4586C347.996 75.7386 342.934 71.2836 336.184 71.2836C330.716 71.2836 327.341 74.4561 325.991 76.5486H325.789L325.316 72.0261H316.406C316.541 74.9286 316.676 78.4386 316.676 82.5561V105.034ZM304.999 57.6486C301.691 57.6486 299.531 59.8761 299.599 62.8461C299.531 65.6811 301.691 67.9761 304.931 67.9761C308.171 67.9761 310.466 65.6811 310.466 62.8461C310.399 59.8761 308.306 57.6486 304.999 57.6486ZM310.129 72.0261H299.869V105.034H310.129V72.0261ZM273.746 84.7836C274.016 82.0161 275.771 78.1011 280.091 78.1011C284.816 78.1011 285.896 82.2861 285.896 84.7836H273.746ZM295.076 91.8036C295.211 91.0611 295.414 89.5086 295.414 87.7536C295.414 79.5861 291.364 71.2836 280.699 71.2836C269.224 71.2836 264.026 80.5311 264.026 88.9011C264.026 99.2286 270.439 105.709 281.644 105.709C286.099 105.709 290.216 105.034 293.591 103.684L292.241 96.7311C289.474 97.6086 286.639 98.0811 283.129 98.0811C278.336 98.0811 274.151 96.0561 273.814 91.8036H295.076ZM237.296 86.1336C237.296 85.4586 237.364 84.8511 237.499 84.2436C238.174 81.2736 240.739 79.1811 243.506 79.1811C248.299 79.1811 250.594 83.2311 250.594 88.3611C250.594 94.3011 247.894 97.6761 243.506 97.6761C240.536 97.6761 238.174 95.5836 237.499 92.8161C237.364 92.2761 237.296 91.6686 237.296 90.9936V86.1336ZM235.474 105.034L235.879 100.444H236.014C238.376 104.359 242.089 105.776 245.936 105.776C253.496 105.776 261.056 99.8361 261.056 87.9561C261.124 77.8311 255.319 71.2836 247.421 71.2836C242.831 71.2836 239.389 73.1061 237.431 75.9411H237.296V57.1086H227.036V95.1786C227.036 98.8911 226.901 102.874 226.766 105.034H235.474ZM209.588 105.034H219.847V57.1086H209.588V105.034ZM192.476 105.034H202.736V57.1086H192.476V105.034ZM166.185 84.7836C166.455 82.0161 168.21 78.1011 172.53 78.1011C177.255 78.1011 178.335 82.2861 178.335 84.7836H166.185ZM187.515 91.8036C187.65 91.0611 187.852 89.5086 187.852 87.7536C187.852 79.5861 183.802 71.2836 173.137 71.2836C161.662 71.2836 156.465 80.5311 156.465 88.9011C156.465 99.2286 162.878 105.709 174.083 105.709C178.538 105.709 182.655 105.034 186.03 103.684L184.68 96.7311C181.913 97.6086 179.077 98.0811 175.567 98.0811C170.775 98.0811 166.59 96.0561 166.252 91.8036H187.515ZM105.323 72.0261L114.908 105.034H124.56L127.868 93.4236C128.745 90.3186 129.42 87.2811 130.028 83.1636H130.163C130.837 87.2136 131.445 90.1836 132.255 93.4236L135.36 105.034H145.012L155.137 72.0261H145.08L142.245 85.1211C141.503 88.9011 140.828 92.6136 140.355 96.3936H140.22C139.545 92.6136 138.668 88.9011 137.79 85.1886L134.483 72.0261H126.383L122.873 85.5936C122.063 88.8336 121.118 92.6136 120.443 96.3936H120.308C119.768 92.6136 119.093 88.9686 118.418 85.5261L115.785 72.0261H105.323Z" fill="white"/>
</g>
<defs>
<clipPath id="clip0_1_5369">
<rect width="385.627" height="118.282" fill="white" transform="translate(0.686279 0.858643)"/>
</clipPath>
</defs>
</svg>
