<svg width="162" height="49" viewBox="0 0 162 49" fill="none" xmlns="http://www.w3.org/2000/svg">
<g clip-path="url(#clip0_2_682)">
<path d="M53.2707 11.5907C53.3829 10.4553 54.1122 8.84919 55.9076 8.84919C57.8712 8.84919 58.32 10.5661 58.32 11.5907H53.2707ZM62.1351 14.4707C62.1912 14.1661 62.2753 13.5292 62.2753 12.8092C62.2753 9.45842 60.5922 6.05226 56.16 6.05226C51.3912 6.05226 49.2312 9.84611 49.2312 13.28C49.2312 17.5169 51.8961 20.1753 56.5527 20.1753C58.4042 20.1753 60.1153 19.8984 61.5179 19.3446L60.9569 16.4923C59.8068 16.8523 58.6286 17.0461 57.1699 17.0461C55.1782 17.0461 53.439 16.2153 53.2987 14.4707H62.1351ZM43.0317 13.8615C43.0317 14.2215 43.0037 14.5261 42.9195 14.8307C42.667 16.0215 41.6852 16.8523 40.4509 16.8523C38.6837 16.8523 37.5335 15.4123 37.5335 13.1138C37.5335 10.9815 38.5434 9.26457 40.479 9.26457C41.7974 9.26457 42.7231 10.2061 42.9756 11.3415C43.0037 11.563 43.0317 11.8676 43.0317 12.0892V13.8615ZM43.0317 0.236877V7.57534H42.9756C42.3585 6.6338 41.04 6.05226 39.3569 6.05226C36.0748 6.05226 33.1855 8.68303 33.2135 13.2523C33.2135 17.4615 35.8224 20.203 39.0764 20.203C40.8437 20.203 42.4987 19.4276 43.3683 17.9046H43.4244L43.6208 19.8984H47.4078C47.3517 18.9846 47.2956 17.3784 47.2956 15.8553V0.236877L43.0317 0.236877ZM29.146 0.458416C27.7714 0.458416 26.8738 1.37226 26.9018 2.59072C26.8738 3.7538 27.7714 4.69534 29.1179 4.69534C30.4644 4.69534 31.4182 3.7538 31.4182 2.59072C31.3901 1.37226 30.5205 0.458416 29.146 0.458416ZM31.2779 6.35688H27.014V19.8984H31.2779V6.35688ZM17.0556 19.8984H21.3195V13.0307C21.3195 12.6984 21.3475 12.3661 21.4037 12.0892C21.6842 10.7876 22.7501 9.95688 24.3211 9.95688C24.7979 9.95688 25.1626 10.0123 25.4712 10.0676V6.10765C25.1626 6.05226 24.9663 6.05226 24.5735 6.05226C23.2551 6.05226 21.572 6.88303 20.8707 8.84919H20.7585L20.6182 6.35688H16.9434C16.9995 7.51996 17.0556 8.82149 17.0556 10.8153V19.8984ZM5.24573 12.2276C5.24573 11.9784 5.27378 11.7015 5.32989 11.48C5.61041 10.2338 6.67638 9.34765 7.88262 9.34765C9.79015 9.34765 10.772 10.9815 10.772 13.1415C10.772 15.44 9.67794 16.963 7.82651 16.963C6.59223 16.963 5.61041 16.1046 5.32989 14.9692C5.27378 14.72 5.24573 14.4153 5.24573 14.083V12.2276ZM0.981837 25.3815H5.24573V18.6523H5.30184C5.91898 19.5384 7.20937 20.203 8.86443 20.203C11.9221 20.203 15.092 17.8769 15.092 12.9476C15.092 8.62765 12.399 6.05226 9.39742 6.05226C7.40573 6.05226 5.83482 6.79995 4.82495 8.23995H4.76885L4.57249 6.35688H0.869629C0.925733 7.60303 0.981837 9.12611 0.981837 10.8984V25.3815Z" fill="white"/>
<path d="M71.813 19.8984H76.0769V12.0892C76.0769 11.7015 76.133 11.2861 76.2452 11.0369C76.5257 10.2615 77.227 9.45844 78.4052 9.45844C79.9481 9.45844 80.5652 10.6492 80.5652 12.3938V19.8984H84.8291V11.8677C84.8291 7.87997 82.7252 6.05228 79.92 6.05228C77.6478 6.05228 76.2452 7.35382 75.6842 8.21228H75.6L75.4036 6.3569H71.7008C71.7569 7.54767 71.813 8.98767 71.813 10.6769V19.8984ZM66.96 0.458435C65.5855 0.458435 64.6878 1.37228 64.7158 2.59074C64.6878 3.75382 65.5855 4.69536 66.932 4.69536C68.2784 4.69536 69.2322 3.75382 69.2322 2.59074C69.2042 1.37228 68.3346 0.458435 66.96 0.458435ZM69.092 6.3569H64.8281V19.8984H69.092V6.3569Z" fill="white"/>
<path d="M148.114 19.8984H152.378V11.8676C152.378 11.563 152.406 11.203 152.518 10.9261C152.827 10.1784 153.528 9.45842 154.65 9.45842C156.249 9.45842 156.867 10.6769 156.867 12.4492V19.8984H161.13V11.9784C161.13 7.90765 159.055 6.05226 156.334 6.05226C155.548 6.05226 154.735 6.24611 154.117 6.57842C153.444 6.93842 152.883 7.38149 152.434 7.96303H152.378V0.236877H148.114V19.8984ZM139.11 3.42149V6.35688H137.286V9.45842H139.11V14.9969C139.11 16.9076 139.502 18.2092 140.288 19.0123C140.961 19.7046 142.111 20.1753 143.486 20.1753C144.692 20.1753 145.702 20.0369 146.263 19.8153L146.235 16.6307C145.926 16.6861 145.505 16.7415 144.973 16.7415C143.682 16.7415 143.289 15.9938 143.289 14.36V9.45842H146.347V6.35688H143.289V2.47995L139.11 3.42149ZM131.508 19.8984H135.771V0.236877H131.508V19.8984ZM124.691 14.9692C124.691 15.2184 124.663 15.4676 124.607 15.6892C124.326 16.5476 123.457 17.24 122.391 17.24C121.437 17.24 120.708 16.7138 120.708 15.6338C120.708 14 122.447 13.4738 124.691 13.5015V14.9692ZM129.039 19.8984C128.899 19.1507 128.843 17.9046 128.843 16.603V11.8953C128.843 8.71072 127.384 6.05226 122.811 6.05226C120.315 6.05226 118.435 6.71688 117.482 7.24303L118.267 9.95688C119.165 9.40303 120.651 8.93226 122.054 8.93226C124.158 8.93226 124.551 9.95688 124.551 10.6769V10.8707C119.698 10.843 116.5 12.5323 116.5 16.0492C116.5 18.2092 118.155 20.203 120.932 20.203C122.559 20.203 123.962 19.6215 124.859 18.5415H124.943L125.196 19.8984H129.039ZM106.541 11.5907C106.654 10.4553 107.383 8.84919 109.178 8.84919C111.142 8.84919 111.591 10.5661 111.591 11.5907H106.541ZM115.406 14.4707C115.462 14.1661 115.546 13.5292 115.546 12.8092C115.546 9.45842 113.863 6.05226 109.431 6.05226C104.662 6.05226 102.502 9.84611 102.502 13.28C102.502 17.5169 105.167 20.1753 109.823 20.1753C111.675 20.1753 113.386 19.8984 114.789 19.3446L114.228 16.4923C113.077 16.8523 111.899 17.0461 110.441 17.0461C108.449 17.0461 106.71 16.2153 106.569 14.4707H115.406ZM87.5502 19.8984H91.8141V11.8676C91.8141 11.563 91.8421 11.203 91.9543 10.9261C92.2629 10.1784 92.9642 9.45842 94.0863 9.45842C95.6852 9.45842 96.3024 10.6769 96.3024 12.4492V19.8984H100.566V11.9784C100.566 7.90765 98.4904 6.05226 95.7694 6.05226C94.9839 6.05226 94.1704 6.24611 93.5533 6.57842C92.88 6.93842 92.319 7.38149 91.8702 7.96303H91.8141V0.236877H87.5502V19.8984Z" fill="white"/>
<path d="M42.8073 34.1046H38.0806V29.4385H33.8167V34.1046H29.0899V38.3139H33.8167V42.98H38.0806V38.3139H42.8073V34.1046Z" fill="white"/>
<path d="M156.651 36.9384C156.651 37.2984 156.623 37.7415 156.511 38.0461C156.231 39.043 155.361 39.763 154.267 39.763C152.472 39.763 151.462 38.1846 151.462 36.163C151.462 33.6984 152.724 32.3138 154.267 32.3138C155.445 32.3138 156.259 33.0615 156.567 34.1692C156.623 34.3907 156.651 34.6676 156.651 34.9446V36.9384ZM157.325 29.4338L157.184 31.0399H157.128C156.427 29.9322 155.249 29.1292 153.369 29.1292C150.003 29.1292 147.142 31.8984 147.142 36.2461C147.142 40.1507 149.554 42.8646 152.949 42.8646C154.519 42.8646 155.838 42.2276 156.651 41.0922H156.708V41.9784C156.708 44.4707 155.165 45.5507 153.145 45.5507C151.546 45.5507 150.031 45.0246 149.162 44.5261L148.32 47.7107C149.554 48.403 151.462 48.763 153.257 48.763C155.277 48.763 157.325 48.3753 158.839 47.1015C160.382 45.7446 160.915 43.6122 160.915 41.0092V33.4492C160.915 31.4276 160.971 30.2922 161.028 29.4338H157.325ZM132.19 42.9753H136.454V35.1661C136.454 34.7784 136.51 34.363 136.622 34.1138C136.903 33.3384 137.604 32.5353 138.782 32.5353C140.325 32.5353 140.942 33.7261 140.942 35.4707V42.9753H145.206V34.9446C145.206 30.9569 143.102 29.1292 140.297 29.1292C138.025 29.1292 136.622 30.4307 136.061 31.2892H135.977L135.781 29.4338H132.078C132.134 30.6246 132.19 32.0646 132.19 33.7538V42.9753ZM127.337 23.5353C125.963 23.5353 125.065 24.4492 125.093 25.6676C125.065 26.8307 125.963 27.7722 127.309 27.7722C128.656 27.7722 129.609 26.8307 129.609 25.6676C129.581 24.4492 128.712 23.5353 127.337 23.5353ZM129.469 29.4338H125.205V42.9753H129.469V29.4338ZM114.349 34.6676C114.461 33.5322 115.191 31.9261 116.986 31.9261C118.95 31.9261 119.398 33.643 119.398 34.6676H114.349ZM123.213 37.5476C123.27 37.243 123.354 36.6061 123.354 35.8861C123.354 32.5353 121.671 29.1292 117.238 29.1292C112.47 29.1292 110.31 32.923 110.31 36.3569C110.31 40.5938 112.975 43.2522 117.631 43.2522C119.483 43.2522 121.194 42.9753 122.596 42.4215L122.035 39.5692C120.885 39.9292 119.707 40.123 118.248 40.123C116.257 40.123 114.517 39.2922 114.377 37.5476H123.213ZM99.201 35.2215C99.201 34.9446 99.2291 34.6953 99.2852 34.4461C99.5657 33.2276 100.632 32.3692 101.782 32.3692C103.773 32.3692 104.727 34.0307 104.727 36.1353C104.727 38.5722 103.605 39.9569 101.782 39.9569C100.548 39.9569 99.5657 39.0984 99.2852 37.963C99.2291 37.7415 99.201 37.4922 99.201 37.2153V35.2215ZM98.4436 42.9753L98.6119 41.0922H98.668C99.6499 42.6984 101.193 43.2799 102.792 43.2799C105.933 43.2799 109.075 40.843 109.075 35.9692C109.103 31.8153 106.691 29.1292 103.409 29.1292C101.501 29.1292 100.071 29.8769 99.2571 31.0399H99.201V23.3138H94.9371V38.9322C94.9371 40.4553 94.881 42.0892 94.8249 42.9753H98.4436ZM87.6857 42.9753H91.9496V23.3138H87.6857V42.9753ZM80.5745 42.9753H84.8384V23.3138H80.5745V42.9753ZM69.6483 34.6676C69.7605 33.5322 70.4899 31.9261 72.2852 31.9261C74.2488 31.9261 74.6977 33.643 74.6977 34.6676H69.6483ZM78.5127 37.5476C78.5688 37.243 78.653 36.6061 78.653 35.8861C78.653 32.5353 76.9699 29.1292 72.5376 29.1292C67.7688 29.1292 65.6088 32.923 65.6088 36.3569C65.6088 40.5938 68.2738 43.2522 72.9304 43.2522C74.7818 43.2522 76.493 42.9753 77.8956 42.4215L77.3345 39.5692C76.1844 39.9292 75.0062 40.123 73.5475 40.123C71.5558 40.123 69.8166 39.2922 69.6764 37.5476H78.5127ZM44.3548 29.4338L48.3382 42.9753H52.3496L53.7241 38.2122C54.0888 36.9384 54.3693 35.6922 54.6218 34.003H54.6779C54.9584 35.6646 55.2109 36.883 55.5475 38.2122L56.8379 42.9753H60.8493L65.0571 29.4338H60.8774L59.6992 34.8061C59.3906 36.3569 59.1101 37.8799 58.9138 39.4307H58.8577C58.5771 37.8799 58.2125 36.3569 57.8478 34.8338L56.4732 29.4338H53.107L51.6483 34.9999C51.3117 36.3292 50.919 37.8799 50.6384 39.4307H50.5823C50.3579 37.8799 50.0774 36.3846 49.7969 34.9722L48.7028 29.4338H44.3548Z" fill="white"/>
</g>
<defs>
<clipPath id="clip0_2_682">
<rect width="160.261" height="48.5262" fill="white" transform="translate(0.869629 0.236877)"/>
</clipPath>
</defs>
</svg>
