<svg width="110" height="50" viewBox="0 0 110 50" fill="none" xmlns="http://www.w3.org/2000/svg">
<path d="M52.7278 11.9246C52.84 10.7893 53.5694 9.18311 55.3647 9.18311C57.3283 9.18311 57.7772 10.9 57.7772 11.9246H52.7278ZM61.5922 14.8046C61.6483 14.5 61.7325 13.8631 61.7325 13.1431C61.7325 9.79234 60.0494 6.38619 55.6172 6.38619C50.8483 6.38619 48.6883 10.18 48.6883 13.6139C48.6883 17.8508 51.3533 20.5093 56.0099 20.5093C57.8613 20.5093 59.5725 20.2323 60.9751 19.6785L60.4141 16.8262C59.2639 17.1862 58.0857 17.38 56.627 17.38C54.6354 17.38 52.8961 16.5493 52.7559 14.8046H61.5922ZM42.4889 14.1954C42.4889 14.5554 42.4608 14.86 42.3767 15.1646C42.1242 16.3554 41.1424 17.1862 39.9081 17.1862C38.1408 17.1862 36.9907 15.7462 36.9907 13.4477C36.9907 11.3154 38.0006 9.59849 39.9361 9.59849C41.2546 9.59849 42.1803 10.54 42.4328 11.6754C42.4608 11.897 42.4889 12.2016 42.4889 12.4231V14.1954ZM42.4889 0.570801V7.90926H42.4328C41.8156 6.96772 40.4972 6.38619 38.8141 6.38619C35.532 6.38619 32.6426 9.01696 32.6707 13.5862C32.6707 17.7954 35.2795 20.537 38.5335 20.537C40.3008 20.537 41.9559 19.7616 42.8255 18.2385H42.8816L43.078 20.2323H46.865C46.8089 19.3185 46.7528 17.7123 46.7528 16.1893V0.570801L42.4889 0.570801ZM28.6031 0.792339C27.2286 0.792339 26.3309 1.70619 26.359 2.92465C26.3309 4.08772 27.2286 5.02926 28.5751 5.02926C29.9216 5.02926 30.8754 4.08772 30.8754 2.92465C30.8473 1.70619 29.9777 0.792339 28.6031 0.792339ZM30.7351 6.6908H26.4712V20.2323H30.7351V6.6908ZM16.5128 20.2323H20.7767V13.3646C20.7767 13.0323 20.8047 12.7 20.8608 12.4231C21.1413 11.1216 22.2073 10.2908 23.7782 10.2908C24.2551 10.2908 24.6198 10.3462 24.9283 10.4016V6.44157C24.6198 6.38619 24.4234 6.38619 24.0307 6.38619C22.7122 6.38619 21.0291 7.21695 20.3278 9.18311H20.2156L20.0754 6.6908H16.4005C16.4567 7.85388 16.5128 9.15542 16.5128 11.1493V20.2323ZM4.70289 12.5616C4.70289 12.3123 4.73094 12.0354 4.78704 11.8139C5.06756 10.5677 6.13354 9.68157 7.33977 9.68157C9.2473 9.68157 10.2291 11.3154 10.2291 13.4754C10.2291 15.7739 9.13509 17.297 7.28367 17.297C6.04938 17.297 5.06756 16.4385 4.78704 15.3031C4.73094 15.0539 4.70289 14.7493 4.70289 14.417V12.5616ZM0.43899 25.7154H4.70289V18.9862H4.75899C5.37613 19.8723 6.66652 20.537 8.32159 20.537C11.3793 20.537 14.5491 18.2108 14.5491 13.2816C14.5491 8.96157 11.8561 6.38619 8.85457 6.38619C6.86289 6.38619 5.29198 7.13388 4.28211 8.57388H4.226L4.02964 6.6908H0.326782C0.382886 7.93695 0.43899 9.46003 0.43899 11.2323V25.7154Z" fill="white"/>
<path d="M71.2701 20.2323H75.534V12.4231C75.534 12.0354 75.5901 11.62 75.7024 11.3708C75.9829 10.5954 76.6842 9.79233 77.8624 9.79233C79.4052 9.79233 80.0224 10.9831 80.0224 12.7277V20.2323H84.2863V12.2016C84.2863 8.21387 82.1824 6.38617 79.3772 6.38617C77.105 6.38617 75.7024 7.68771 75.1413 8.54618H75.0572L74.8608 6.69079H71.1579C71.214 7.88156 71.2701 9.32156 71.2701 11.0108V20.2323ZM66.4172 0.792328C65.0426 0.792328 64.145 1.70617 64.173 2.92464C64.145 4.08771 65.0426 5.02925 66.3891 5.02925C67.7356 5.02925 68.6894 4.08771 68.6894 2.92464C68.6613 1.70617 67.7917 0.792328 66.4172 0.792328ZM68.5491 6.69079H64.2852V20.2323H68.5491V6.69079Z" fill="white"/>
<path d="M95.2499 29.7677L100.271 42.1462C100.44 42.4785 100.468 42.7 100.468 42.8385C100.468 43.0323 100.383 43.2539 100.243 43.4477C99.8224 44.14 99.1211 44.8047 98.4759 45.137C97.8307 45.5247 97.1574 45.7739 96.6245 45.857L97.5221 49.4293C98.5881 49.2908 100.159 48.8477 101.646 47.5739C103.189 46.217 104.507 44.057 106.471 38.6847L109.669 29.7677H105.096L103.413 36.4139C103.217 37.1893 102.992 38.2139 102.796 38.9339H102.712C102.543 38.2139 102.263 37.217 102.038 36.4139L99.9907 29.7677H95.2499ZM87.6478 26.8324V29.7677H85.8245V32.8693H87.6478V38.4077C87.6478 40.3185 88.0406 41.62 88.826 42.4231C89.4993 43.1154 90.6494 43.5862 92.0239 43.5862C93.2302 43.5862 94.2401 43.4477 94.8011 43.2262L94.773 40.0416C94.4645 40.097 94.0437 40.1523 93.5107 40.1523C92.2203 40.1523 91.8276 39.4047 91.8276 37.7708V32.8693H94.8852V29.7677H91.8276V25.8908L87.6478 26.8324ZM82.2058 23.8693C80.8312 23.8693 79.9336 24.7831 79.9616 26.0016C79.9336 27.1647 80.8312 28.1062 82.1777 28.1062C83.5242 28.1062 84.478 27.1647 84.478 26.0016C84.4499 24.7831 83.5803 23.8693 82.2058 23.8693ZM84.3377 29.7677H80.0738V43.3093H84.3377V29.7677ZM67.8151 42.6447C68.853 43.1985 70.452 43.5862 72.2473 43.5862C76.1746 43.5862 78.1943 41.7308 78.1943 39.2108C78.1663 37.217 77.0723 35.9154 74.4634 35.0293C72.7803 34.4477 72.2473 34.1154 72.2473 33.4785C72.2473 32.7862 72.8364 32.3708 73.8743 32.3708C75.0525 32.3708 76.2307 32.8139 76.8478 33.1462L77.6052 30.2385C76.7637 29.8231 75.333 29.4631 73.7341 29.4631C70.3398 29.4631 68.1517 31.3739 68.1517 33.8939C68.1237 35.5 69.2177 37.0231 72.051 37.9647C73.6499 38.4908 74.0707 38.8231 74.0707 39.5154C74.0707 40.2077 73.5377 40.6508 72.2473 40.6508C70.9569 40.6508 69.358 40.097 68.5725 39.6262L67.8151 42.6447ZM58.6421 43.3093H62.906V36.4416C62.906 36.1093 62.9341 35.777 62.9902 35.5C63.2707 34.1985 64.3367 33.3677 65.9076 33.3677C66.3845 33.3677 66.7491 33.4231 67.0577 33.4785V29.5185C66.7491 29.4631 66.5528 29.4631 66.16 29.4631C64.8416 29.4631 63.1585 30.2939 62.4572 32.26H62.345L62.2047 29.7677H58.5299C58.586 30.9308 58.6421 32.2323 58.6421 34.2262V43.3093ZM47.786 35.0016C47.8982 33.8662 48.6276 32.26 50.4229 32.26C52.3865 32.26 52.8354 33.977 52.8354 35.0016H47.786ZM56.6504 37.8816C56.7065 37.577 56.7907 36.94 56.7907 36.22C56.7907 32.8693 55.1076 29.4631 50.6754 29.4631C45.9065 29.4631 43.7465 33.257 43.7465 36.6908C43.7465 40.9277 46.4115 43.5862 51.0681 43.5862C52.9195 43.5862 54.6307 43.3093 56.0333 42.7554L55.4723 39.9031C54.3221 40.2631 53.1439 40.457 51.6852 40.457C49.6936 40.457 47.9543 39.6262 47.8141 37.8816H56.6504ZM29.3278 29.7677L34.3211 43.3093H38.585L43.6904 29.7677H39.2021L37.4349 36.0539C37.1263 37.217 36.9019 38.2416 36.6775 39.3493H36.5933C36.3969 38.2693 36.1445 37.1893 35.8078 36.0539L33.9564 29.7677H29.3278ZM25.9336 23.8693C24.559 23.8693 23.6614 24.7831 23.6894 26.0016C23.6614 27.1647 24.559 28.1062 25.9055 28.1062C27.252 28.1062 28.2058 27.1647 28.2058 26.0016C28.1777 24.7831 27.3081 23.8693 25.9336 23.8693ZM28.0655 29.7677H23.8016V43.3093H28.0655V29.7677ZM16.8167 37.2723C16.8167 37.6323 16.7886 37.937 16.7045 38.2416C16.452 39.4324 15.4702 40.2631 14.2359 40.2631C12.4686 40.2631 11.3185 38.8231 11.3185 36.5247C11.3185 34.3924 12.3284 32.6754 14.2639 32.6754C15.5824 32.6754 16.5081 33.617 16.7606 34.7523C16.7886 34.9739 16.8167 35.2785 16.8167 35.5V37.2723ZM16.8167 23.6477V30.9862H16.7606C16.1434 30.0447 14.825 29.4631 13.1419 29.4631C9.85979 29.4631 6.97044 32.0939 6.99849 36.6631C6.99849 40.8723 9.60732 43.6139 12.8613 43.6139C14.6286 43.6139 16.2837 42.8385 17.1533 41.3154H17.2094L17.4058 43.3093H21.1928C21.1367 42.3954 21.0806 40.7893 21.0806 39.2662V23.6477H16.8167Z" fill="white"/>
</svg>
