<svg width="345" height="143" viewBox="0 0 345 143" fill="none" xmlns="http://www.w3.org/2000/svg">
<path d="M11.6701 49.6461H0V38.801H35.3873V49.6461H23.6396V93.0264H11.6701V49.6461Z" fill="white"/>
<path d="M69.882 58.4034C69.882 53.3706 66.6332 49.0281 61.6104 49.0281H53.4108V67.7732H61.6104C66.6332 67.7732 69.882 63.4362 69.882 58.3978M41.4413 38.801H63.1627C74.611 38.801 82.0012 47.8645 82.0012 58.3978C82.0012 65.9916 78.1592 72.728 71.7337 75.907L82.0788 93.0264H68.1911L59.0324 77.9947H53.4164V93.0264H41.4469V38.801H41.4413Z" fill="white"/>
<path d="M109.111 54.2948L102.758 76.6029H115.315L109.111 54.2948ZM120.266 93.0264L118.27 86.4403H99.875L97.8792 93.0264H85.1003L103.567 38.801H114.572L133.261 93.0264H120.26H120.266Z" fill="white"/>
<path d="M150.625 38.801H138.511V93.0264H150.625V38.801Z" fill="white"/>
<path d="M191.7 74.1254V38.801H203.592V93.0319H191.107L172.49 58.1696V93.0319H160.521V38.801H173.006L191.7 74.1254Z" fill="white"/>
<path d="M225.602 38.801H213.488V93.0264H225.602V38.801Z" fill="white"/>
<path d="M266.677 74.1254V38.801H278.569V93.0319H266.084L247.467 58.1696V93.0319H235.503V38.801H247.988L266.677 74.1254Z" fill="white"/>
<path d="M317.133 64.3659H343.949V73.7412H338.633C336.565 86.0561 327.772 94.4237 312.997 94.4237C295.634 94.4237 285.887 81.1012 285.887 65.9136C285.887 50.7261 296.083 37.4036 312.997 37.4036C326.591 37.4036 335.972 46.0774 336.859 56.3824H324.08C323.342 52.1235 319.207 48.2486 312.925 48.2486C303.173 48.2486 298.15 56.8501 298.15 65.9916C298.15 75.5951 303.245 83.8069 313.962 83.8069C321.202 83.8069 325.488 79.1582 326.297 73.7357H317.139V64.3604L317.133 64.3659Z" fill="white"/>
<path d="M139.285 9.60283C139.285 5.3154 136.425 1.74462 131.977 1.74462H124.388V17.38H131.977C136.425 17.38 139.285 13.8155 139.285 9.60906M122.641 0.00596873H131.977C137.496 0.00596873 141.032 4.38064 141.032 9.60906C141.032 14.8375 137.496 19.1249 131.977 19.1249H124.388V29.7438H122.641V0.00596873Z" fill="white"/>
<path d="M162.32 9.60304C162.32 5.31561 159.46 1.74482 155.011 1.74482H147.422V17.3802H155.011C159.46 17.3802 162.32 13.8157 162.32 9.60927M145.676 0.00617197H155.011C160.531 0.00617197 164.066 4.38085 164.066 9.60927C164.066 14.0276 161.444 17.8538 157.275 18.8696L163.829 29.744H161.766L155.413 19.1251H147.428V29.744H145.682V0.00617197H145.676Z" fill="white"/>
<path d="M172.805 0.00618156H171.016V29.744H172.805V0.00618156Z" fill="white"/>
<path d="M180.382 1.74488V27.9992H186.303C194.367 27.9992 198.974 21.4995 198.974 14.8751C198.974 8.25081 194.367 1.75112 186.303 1.75112H180.382V1.74488ZM186.303 0C195.523 0 200.726 7.34721 200.726 14.8689C200.726 22.3906 195.523 29.7378 186.303 29.7378H178.635V0.00623187H186.303V0Z" fill="white"/>
<path d="M207.116 1.74483V14.1086H220.066V15.8472H207.116V27.9991H220.066V29.744H205.364V0.00618156H220.066V1.74483H207.116Z" fill="white"/>
<path d="M147.984 132.004C147.984 137.555 143.232 142.07 137.386 142.07C131.54 142.07 126.788 137.555 126.788 132.004C126.788 126.454 131.54 121.934 137.386 121.934C143.232 121.934 147.984 126.449 147.984 132.004Z" fill="#F3C716"/>
<path d="M126.08 132.004C126.08 137.925 131.15 142.745 137.386 142.745C143.622 142.745 148.692 137.925 148.692 132.004C148.692 126.084 143.622 121.264 137.386 121.264C131.15 121.264 126.08 126.084 126.08 132.004ZM127.496 132.004C127.496 126.814 131.925 122.609 137.386 122.609C142.847 122.609 147.276 126.814 147.276 132.004C147.276 137.195 142.847 141.4 137.386 141.4C131.925 141.4 127.496 137.195 127.496 132.004Z" fill="white"/>
<path d="M182.874 132.004C182.874 137.555 178.121 142.07 172.276 142.07C166.43 142.07 161.678 137.555 161.678 132.004C161.678 126.454 166.43 121.934 172.276 121.934C178.121 121.934 182.874 126.449 182.874 132.004Z" fill="#00A6E9"/>
<path d="M160.969 132.004C160.969 137.925 166.04 142.745 172.276 142.745C178.512 142.745 183.582 137.925 183.582 132.004C183.582 126.084 178.512 121.264 172.276 121.264C166.04 121.264 160.969 126.084 160.969 132.004ZM162.386 132.004C162.386 126.814 166.815 122.609 172.276 122.609C177.737 122.609 182.165 126.814 182.165 132.004C182.165 137.195 177.737 141.4 172.276 141.4C166.815 141.4 162.386 137.195 162.386 132.004Z" fill="white"/>
<path d="M217.658 132.004C217.658 137.555 212.905 142.07 207.06 142.07C201.214 142.07 196.462 137.555 196.462 132.004C196.462 126.454 201.214 121.934 207.06 121.934C212.905 121.934 217.658 126.449 217.658 132.004Z" fill="#E90E8B"/>
<path d="M195.753 132.004C195.753 137.925 200.824 142.745 207.06 142.745C213.296 142.745 218.366 137.925 218.366 132.004C218.366 126.084 213.296 121.264 207.06 121.264C200.824 121.264 195.753 126.084 195.753 132.004ZM197.17 132.004C197.17 126.814 201.599 122.609 207.06 122.609C212.52 122.609 216.949 126.814 216.949 132.004C216.949 137.195 212.52 141.4 207.06 141.4C201.599 141.4 197.17 137.195 197.17 132.004Z" fill="white"/>
</svg>
