<svg width="27" height="27" viewBox="0 0 27 27" fill="none" xmlns="http://www.w3.org/2000/svg">
<mask id="mask0_2_9178" style="mask-type:alpha" maskUnits="userSpaceOnUse" x="0" y="0" width="27" height="27">
<rect width="27" height="27" fill="#D9D9D9"/>
</mask>
<g mask="url(#mask0_2_9178)">
<path d="M4.5 20.25C4.18125 20.25 3.91406 20.1422 3.69844 19.9266C3.48281 19.7109 3.375 19.4438 3.375 19.125C3.375 18.8062 3.48281 18.5391 3.69844 18.3234C3.91406 18.1078 4.18125 18 4.5 18H22.5C22.8188 18 23.0859 18.1078 23.3016 18.3234C23.5172 18.5391 23.625 18.8062 23.625 19.125C23.625 19.4438 23.5172 19.7109 23.3016 19.9266C23.0859 20.1422 22.8188 20.25 22.5 20.25H4.5ZM4.5 14.625C4.18125 14.625 3.91406 14.5172 3.69844 14.3016C3.48281 14.0859 3.375 13.8187 3.375 13.5C3.375 13.1813 3.48281 12.9141 3.69844 12.6984C3.91406 12.4828 4.18125 12.375 4.5 12.375H22.5C22.8188 12.375 23.0859 12.4828 23.3016 12.6984C23.5172 12.9141 23.625 13.1813 23.625 13.5C23.625 13.8187 23.5172 14.0859 23.3016 14.3016C23.0859 14.5172 22.8188 14.625 22.5 14.625H4.5ZM4.5 9C4.18125 9 3.91406 8.89219 3.69844 8.67656C3.48281 8.46094 3.375 8.19375 3.375 7.875C3.375 7.55625 3.48281 7.28906 3.69844 7.07344C3.91406 6.85781 4.18125 6.75 4.5 6.75H22.5C22.8188 6.75 23.0859 6.85781 23.3016 7.07344C23.5172 7.28906 23.625 7.55625 23.625 7.875C23.625 8.19375 23.5172 8.46094 23.3016 8.67656C23.0859 8.89219 22.8188 9 22.5 9H4.5Z" fill="#B2B6B8"/>
</g>
</svg>
