<svg width="375" height="143" viewBox="0 0 375 143" fill="none" xmlns="http://www.w3.org/2000/svg">
<g clip-path="url(#clip0_60_34267)">
<path d="M310.356 99.9789L299.838 129.124H301.95L305.53 118.92H317.032L320.693 129.124H322.804L312.333 99.9789H310.349H310.356ZM316.389 117.191H306.173L309.753 107.378C310.356 105.521 310.832 104.008 311.261 102.32H311.348C311.777 103.961 312.166 105.434 312.856 107.465L316.389 117.191ZM349.959 99.9789L343.497 116.801C342.029 120.696 340.997 123.548 340.219 126.225H340.132C339.314 123.413 338.282 120.474 336.941 116.754L330.694 99.9789H328.321L326.209 129.124H328.234L329.139 115.718C329.481 110.875 329.702 105.817 329.742 102.4H329.869C330.734 105.602 331.981 109.1 333.617 113.64L339.348 129.117H340.769L346.889 113.25C348.525 108.925 349.731 105.555 350.77 102.394H350.898C350.858 105.548 351.199 110.909 351.501 115.281L352.366 129.117H354.39L352.406 99.9722H349.953L349.959 99.9789ZM265.457 116.364H272.221V126.655C271.141 127.22 269.164 127.651 266.147 127.651C258.479 127.651 253.652 122.767 253.652 114.548C253.652 106.328 258.566 101.445 266.583 101.445C269.338 101.445 271.282 101.963 272.79 102.696L273.434 100.968C272.314 100.45 269.814 99.6695 266.67 99.6695C256.803 99.6695 251.547 106.544 251.547 114.629C251.547 119.344 253.143 123.232 255.509 125.566C258.438 128.417 261.971 129.413 265.805 129.413C269.64 129.413 272.784 128.417 274.252 127.812V114.669H265.464V116.357L265.457 116.364ZM367.676 113.075C363.493 111.434 361.643 109.786 361.643 106.544C361.643 104.25 363.239 101.223 367.938 101.223C370.438 101.223 372.288 102.044 373.066 102.609L373.843 100.88C372.851 100.234 370.787 99.4946 368.072 99.4946C363.158 99.4946 359.626 102.609 359.626 106.887C359.626 110.862 362.428 113.283 367.127 114.931C371.31 116.573 372.985 118.476 372.985 121.765C372.985 125.357 370.311 127.819 366.007 127.819C363.554 127.819 361.268 126.998 359.632 125.875L358.855 127.604C360.363 128.727 363.292 129.547 365.793 129.547C372 129.547 375.017 125.788 375.017 121.55C375.017 117.312 372.476 115.019 367.69 113.075H367.676ZM186.987 99.7569C184.534 99.7569 182.463 99.9722 180.78 100.322V129.117H182.805V116.667C183.837 116.969 185.043 117.01 186.337 117.01C189.87 117.01 193.014 115.886 194.871 113.721C196.164 112.295 196.895 110.431 196.895 107.929C196.895 105.427 196.03 103.564 194.656 102.219C193.061 100.618 190.433 99.7569 186.987 99.7569ZM186.512 115.281C185.09 115.281 183.837 115.153 182.805 114.851V101.835C183.582 101.66 185.003 101.492 186.9 101.492C191.512 101.492 194.83 103.524 194.83 108.111C194.83 112.698 191.686 115.288 186.512 115.288V115.281ZM212.842 115.066V114.978C216.201 113.808 218.533 111.306 218.533 107.371C218.533 105.34 217.756 103.396 216.509 102.185C214.826 100.584 212.46 99.7637 208.666 99.7637C206.682 99.7637 204.182 99.9789 202.419 100.369V129.124H204.443V115.765H208.968C212.802 115.94 214.612 117.844 215.477 122.034C216.254 125.707 216.898 128.263 217.327 129.124H219.479C218.875 127.953 218.312 125.794 217.327 121.254C216.636 118.012 215.175 115.806 212.842 115.073V115.066ZM204.436 114.07V101.835C205.167 101.66 206.635 101.445 208.619 101.445C213.184 101.445 216.462 103.261 216.462 107.714C216.462 111.561 213.533 114.07 209.048 114.07H204.436ZM235.634 99.5013C228.354 99.5013 222.622 105.293 222.622 114.851C222.622 124.409 228.139 129.595 235.292 129.595C242.015 129.595 248.263 124.536 248.263 114.245C248.263 105.205 242.96 99.5013 235.634 99.5013ZM235.419 127.866C228.521 127.866 224.734 121.335 224.734 114.763C224.734 108.192 228.139 101.23 235.506 101.23C242.873 101.23 246.151 108.232 246.151 114.373C246.151 121.597 242.317 127.866 235.419 127.866ZM290.749 115.066V114.978C294.107 113.808 296.44 111.306 296.44 107.371C296.44 105.34 295.662 103.396 294.415 102.185C292.733 100.584 290.367 99.7637 286.572 99.7637C284.588 99.7637 282.088 99.9789 280.325 100.369V129.124H282.349V115.765H286.874C290.708 115.94 292.518 117.844 293.383 122.034C294.161 125.707 294.804 128.263 295.233 129.124H297.385C296.782 127.953 296.219 125.794 295.233 121.254C294.543 118.012 293.081 115.806 290.749 115.073V115.066ZM282.343 114.07V101.835C283.073 101.66 284.541 101.445 286.526 101.445C291.091 101.445 294.368 103.261 294.368 107.714C294.368 111.561 291.439 114.07 286.955 114.07H282.343ZM346.467 71.13C346.467 66.2871 346.427 63.1325 346.206 59.5407L346.293 59.5004C347.801 62.4868 349.785 65.554 351.937 68.9238L363.011 85.874H364.948V56.7291H362.924V71.2175C362.924 75.798 362.964 79.1275 363.266 83.0624L363.178 83.1028C361.757 80.2912 360.075 77.5671 357.749 73.9349L346.413 56.7224H344.476V85.8672H346.46V71.1233L346.467 71.13ZM326.343 86.3515C333.067 86.3515 339.314 81.2934 339.314 71.0022C339.314 61.9622 334.012 56.2583 326.685 56.2583C319.359 56.2583 313.674 62.0496 313.674 71.6076C313.674 81.1656 319.191 86.3515 326.343 86.3515ZM326.558 57.9869C333.838 57.9869 337.203 64.989 337.203 71.13C337.203 78.354 333.369 84.6229 326.471 84.6229C319.573 84.6229 315.786 78.0917 315.786 71.5202C315.786 64.9486 319.191 57.9869 326.558 57.9869ZM241.921 56.7359V85.8807H256.917V84.152H243.946V56.7359H241.921ZM308.499 56.7359H306.475V85.8807H308.499V56.7359ZM229.212 86.3112C232.745 86.3112 235.547 85.6184 237.015 84.8381L236.411 83.1969C234.776 84.0175 232.362 84.5354 229.862 84.5354C222.106 84.5354 217.582 79.4302 217.582 71.5202C217.582 63.1325 222.368 58.0273 230.211 58.0273C232.664 58.0273 234.776 58.5452 236.244 59.2784L236.934 57.5497C236.029 57.0722 233.877 56.2516 230.17 56.2516C221.034 56.2516 215.477 62.8231 215.477 71.4731C215.477 81.8046 222.2 86.3044 229.225 86.3044L229.212 86.3112ZM210.335 85.8807V56.7359H208.311V71.2242C208.311 75.8048 208.351 79.1343 208.653 83.0691L208.566 83.1095C207.144 80.2979 205.462 77.5738 203.136 73.9416L191.8 56.7291H189.863V85.874H191.847V71.13C191.847 66.2871 191.8 63.1325 191.586 59.5407L191.673 59.5004C193.181 62.4868 195.166 65.554 197.317 68.9238L208.391 85.874H210.329L210.335 85.8807ZM293.591 69.8386C289.408 68.1974 287.558 66.5495 287.558 63.3074C287.558 61.0138 289.153 57.9869 293.852 57.9869C296.353 57.9869 298.203 58.8075 298.98 59.3726L299.758 57.6439C298.766 56.9982 296.701 56.2583 293.986 56.2583C289.073 56.2583 285.54 59.3726 285.54 63.6504C285.54 67.6257 288.342 70.0471 293.041 71.695C297.224 73.3362 298.9 75.2398 298.9 78.5289C298.9 82.1207 296.225 84.5825 291.922 84.5825C289.468 84.5825 287.182 83.7619 285.547 82.6386L284.769 84.3673C286.278 85.4906 289.207 86.3112 291.707 86.3112C297.915 86.3112 300.931 82.5512 300.931 78.3137C300.931 74.0761 298.39 71.7825 293.604 69.8386H293.591ZM180.773 85.8807H182.798V56.7359H180.773V85.8807ZM277.389 74.3385C277.389 81.475 274.071 84.5893 269.285 84.5893C264.974 84.5893 261.529 81.7373 261.529 74.3385V56.7426H259.504V74.473C259.504 83.3785 264.069 86.365 269.157 86.365C274.627 86.365 279.453 83.0758 279.453 74.1299V56.7493H277.382V74.3452L277.389 74.3385ZM226.195 13.4996H224.171V42.6444H226.195V13.4996ZM252.224 38.4068C254.852 35.5078 256.019 31.6201 256.019 27.3354C256.019 23.0508 254.725 19.681 252.399 17.2595C249.986 14.7103 245.977 13.2843 240.675 13.2843C237.96 13.2843 235.459 13.5466 233.261 13.8897V42.604C235.332 42.8193 237.444 42.8663 239.682 42.8663C245.286 42.8663 249.637 41.2251 252.224 38.4136V38.4068ZM235.292 15.4434C236.539 15.2282 238.308 15.013 240.547 15.013C249.858 15.013 253.947 20.0711 253.907 27.4632C253.907 35.898 249.295 41.1242 239.991 41.1242C238.181 41.1242 236.498 41.0839 235.292 40.909V15.4434ZM204.436 29.2793H208.961C212.795 29.4542 214.605 31.3577 215.47 35.5482C216.248 39.2207 216.891 41.7767 217.32 42.6377H219.472C218.869 41.4673 218.306 39.3082 217.32 34.7679C216.63 31.5259 215.168 29.3197 212.836 28.5865V28.4991C216.194 27.3287 218.527 24.8266 218.527 20.8917C218.527 18.8604 217.749 16.9165 216.502 15.7058C214.82 14.1049 212.453 13.2843 208.659 13.2843C206.675 13.2843 204.175 13.4996 202.412 13.8897V42.6444H204.436V29.2861V29.2793ZM204.436 15.356C205.167 15.1811 206.635 14.9659 208.619 14.9659C213.184 14.9659 216.462 16.782 216.462 21.2347C216.462 25.0822 213.533 27.591 209.048 27.591H204.436V15.356ZM276.182 40.909H263.171V28.156H274.808V26.4274H263.171V15.2282H275.499V13.4996H261.147V42.6444H276.189V40.9157L276.182 40.909ZM182.798 30.1874C183.83 30.4901 185.037 30.5304 186.331 30.5304C189.863 30.5304 193.007 29.4071 194.864 27.2413C196.158 25.8153 196.888 23.9521 196.888 21.45C196.888 18.9478 196.024 17.0846 194.649 15.7394C193.054 14.1385 190.426 13.2776 186.981 13.2776C184.527 13.2776 182.456 13.4928 180.773 13.8426V42.6377H182.798V30.1874ZM182.798 15.356C183.575 15.1811 184.997 15.013 186.894 15.013C191.505 15.013 194.824 17.0443 194.824 21.6316C194.824 26.2189 191.68 28.8085 186.505 28.8085C185.084 28.8085 183.83 28.6807 182.798 28.378V15.3627V15.356Z" fill="white"/>
<path d="M82.8708 43.3776H59.6504L43.2339 59.8501V83.1499L59.6504 99.6224H82.8708L99.2873 83.1499V59.8501L82.8708 43.3776Z" fill="#050508"/>
<path d="M43.2337 99.6224H28.0305C22.7013 99.6224 17.7341 98.1023 13.4909 95.5127C11.2587 104.734 13.6987 114.857 20.8713 122.061C28.0506 129.258 38.1392 131.707 47.3295 129.467C44.7487 125.209 43.2337 120.232 43.2337 114.878V99.6224Z" fill="#712D85"/>
<path d="M99.2872 43.3776H114.49C119.82 43.3776 124.787 44.8977 129.03 47.4941C131.262 38.2724 128.822 28.1427 121.65 20.9456C116.173 15.4502 109.007 12.7059 101.828 12.7059C99.5955 12.7059 97.37 13.0019 95.1914 13.5333C97.7722 17.791 99.2872 22.7751 99.2872 28.1225V43.3776Z" fill="#712D85"/>
<path d="M31.6236 71.5L20.8714 60.7111C17.1042 56.931 14.6641 52.3302 13.4911 47.4873C5.41351 52.4244 0.00390625 61.3165 0.00390625 71.5C0.00390625 81.6835 5.41351 90.5756 13.4911 95.5127C14.6641 90.6698 17.1042 86.0691 20.8714 82.2889L31.6236 71.5Z" fill="#E90E8B"/>
<path d="M142.517 71.5C142.517 61.3165 137.108 52.4244 129.03 47.4873C127.857 52.3302 125.417 56.931 121.65 60.7111L110.897 71.5L121.65 82.2889C125.417 86.0691 127.857 90.6698 129.03 95.5127C137.108 90.5756 142.517 81.6835 142.517 71.5Z" fill="#E90E8B"/>
<path d="M43.234 99.6224V83.1499L31.6238 71.5L20.8716 82.2889C17.1043 86.069 14.6643 90.6698 13.4912 95.5127C17.7344 98.1023 22.7016 99.6224 28.0308 99.6224H43.234Z" fill="#65255E"/>
<path d="M99.2871 43.3776V59.8502L110.897 71.5L121.65 60.7111C125.417 56.931 127.857 52.3302 129.03 47.4873C124.787 44.891 119.819 43.3708 114.49 43.3708H99.2871V43.3776Z" fill="#65255E"/>
<path d="M43.2337 43.3776V28.1225C43.2337 22.7751 44.7487 17.791 47.3295 13.5333C45.1509 13.0019 42.9254 12.7059 40.6931 12.7059C33.5205 12.7059 26.348 15.4502 20.8713 20.9456C13.6987 28.1427 11.2587 38.2724 13.4909 47.4941C17.7341 44.8977 22.7013 43.3776 28.0305 43.3776H43.2337Z" fill="#F2C619"/>
<path d="M99.2872 99.6224V114.878C99.2872 120.225 97.7722 125.209 95.1914 129.467C104.382 131.707 114.47 129.258 121.65 122.061C128.822 114.857 131.262 104.734 129.03 95.5127C124.787 98.1023 119.82 99.6224 114.49 99.6224H99.2872Z" fill="#F2C619"/>
<path d="M31.6238 71.5L43.234 59.8501V43.3776H28.0308C22.7016 43.3776 17.7344 44.8977 13.4912 47.4873C14.6643 52.3302 17.1043 56.931 20.8716 60.7111L31.6238 71.5Z" fill="#BE2328"/>
<path d="M110.897 71.5L99.2871 83.1499V99.6224H114.49C119.819 99.6224 124.787 98.1023 129.03 95.5127C127.857 90.6698 125.417 86.069 121.65 82.2889L110.897 71.5Z" fill="#BE2328"/>
<path d="M31.6235 71.5L43.2337 83.1498V59.8501L31.6235 71.5Z" fill="#4B1143"/>
<path d="M99.2871 83.1498L110.897 71.5L99.2871 59.8501V83.1498Z" fill="#4B1143"/>
<path d="M71.2606 31.7277L82.0127 20.9388C85.78 17.1587 90.3651 14.7103 95.1915 13.5332C90.2713 5.42808 81.4094 0 71.2606 0C61.1117 0 52.2499 5.42808 47.3296 13.5332C52.156 14.7103 56.7411 17.1587 60.5084 20.9388L71.2606 31.7277Z" fill="#25A4DE"/>
<path d="M71.2606 111.272L60.5084 122.061C56.7411 125.841 52.156 128.29 47.3296 129.467C52.2499 137.572 61.1117 143 71.2606 143C81.4094 143 90.2713 137.572 95.1915 129.467C90.3651 128.29 85.78 125.841 82.0127 122.061L71.2606 111.272Z" fill="#25A4DE"/>
<path d="M71.2606 111.272L59.6504 99.6224H43.2339V114.878C43.2339 120.225 44.7488 125.209 47.3296 129.467C52.156 128.29 56.7411 125.841 60.5084 122.061L71.2606 111.272Z" fill="#315DA8"/>
<path d="M71.2607 31.7277L82.8709 43.3776H99.2875V28.1224C99.2875 22.7751 97.7725 17.7909 95.1917 13.5332C90.3653 14.7103 85.7802 17.1586 82.0129 20.9388L71.2607 31.7277Z" fill="#315DA8"/>
<path d="M99.2871 43.3776H82.8706L99.2871 59.8501V43.3776Z" fill="#142649"/>
<path d="M43.2339 99.6225H59.6504L43.2339 83.1499V99.6225Z" fill="#142649"/>
<path d="M43.2339 43.3776H59.6504L71.2606 31.7277L60.5084 20.9388C56.7344 17.1519 52.1561 14.7103 47.3296 13.5332C44.7488 17.7909 43.2339 22.7751 43.2339 28.1224V43.3776Z" fill="#01935B"/>
<path d="M99.2875 99.6224H82.8709L71.2607 111.272L82.0129 122.061C85.7802 125.841 90.3653 128.29 95.1917 129.467C97.7725 125.209 99.2875 120.225 99.2875 114.878V99.6224Z" fill="#01935B"/>
<path d="M71.2606 111.272L82.8708 99.6224H59.6504L71.2606 111.272Z" fill="#054456"/>
<path d="M71.2606 31.7277L59.6504 43.3775H82.8708L71.2606 31.7277Z" fill="#054456"/>
<path d="M43.2339 43.3776V59.8501L59.6504 43.3776H43.2339Z" fill="#2E2124"/>
<path d="M99.2871 99.6225V83.1499L82.8706 99.6225H99.2871Z" fill="#2E2124"/>
<path d="M34.2512 78.1321C32.562 79.8271 30.2292 80.8764 27.6417 80.8764C25.0542 80.8764 22.7282 79.8271 21.0389 78.1321C19.343 76.4371 18.2972 74.0963 18.2972 71.5C18.2972 68.9037 19.343 66.5629 21.0322 64.8679C22.7215 63.1662 25.0542 62.1169 27.635 62.1169C30.2158 62.1169 32.5553 63.1662 34.2445 64.8612C35.9405 66.5629 36.9795 68.9037 36.9795 71.4933C36.9795 74.0829 35.9405 76.4236 34.2445 78.1254M27.635 55.8682C23.3382 55.8682 19.4435 57.617 16.6281 60.442C13.8127 63.2738 12.0698 67.1817 12.0698 71.4933C12.0698 75.8048 13.8127 79.7195 16.6348 82.5445C19.4569 85.3695 23.3449 87.1183 27.6417 87.1183C31.1543 87.1183 34.3853 85.9412 36.9862 83.9705V87.1183H43.2203V71.4933C43.2203 67.175 41.4774 63.2671 38.6553 60.442C35.8399 57.617 31.9453 55.8682 27.6417 55.8682M125.859 60.442C123.037 57.617 119.149 55.8682 114.852 55.8682C110.555 55.8682 106.661 57.617 103.839 60.442C101.017 63.2738 99.2737 67.1817 99.2737 71.4933V87.1183H105.501V71.4933C105.501 68.9037 106.547 66.5562 108.236 64.8612C109.925 63.1595 112.265 62.1102 114.846 62.1102C117.426 62.1102 119.759 63.1595 121.448 64.8545C123.138 66.5562 124.183 68.8969 124.183 71.4865V87.1116H130.411V71.4865C130.411 67.1683 128.668 63.2603 125.846 60.4353M90.298 78.1186C88.6087 79.8136 86.2692 80.8629 83.6885 80.8629C81.1077 80.8629 78.7749 79.8136 77.0789 78.1186C75.3897 76.4236 74.344 74.0829 74.344 71.4865C74.344 68.8902 75.3897 66.5495 77.0789 64.8545C78.7682 63.1527 81.1077 62.1034 83.6885 62.1034C86.2692 62.1034 88.602 63.1527 90.298 64.8477C91.9872 66.5495 93.0329 68.8902 93.0329 71.4798C93.0329 74.0694 91.9872 76.4102 90.298 78.1119M83.6885 55.8548C79.3849 55.8548 75.497 57.6036 72.6748 60.4286C69.8594 63.2603 68.1166 67.1683 68.1166 71.4798C68.1166 74.0694 67.0708 76.4102 65.3816 78.1119C63.6923 79.8136 61.3529 80.8562 58.7721 80.8562C56.1913 80.8562 53.8585 79.8069 52.1693 78.1119C50.48 76.4169 49.4276 74.0761 49.4276 71.4798C49.4276 68.8835 50.4733 66.5428 52.1693 64.8477C53.8585 63.146 56.1913 62.0967 58.7721 62.0967C61.3529 62.0967 63.6856 63.146 65.3816 64.841C65.6095 65.0764 65.8307 65.3253 66.0385 65.5809C66.7357 63.4756 67.7881 61.5384 69.1489 59.8367C66.3938 57.3614 62.7673 55.848 58.7788 55.848C54.4819 55.848 50.5873 57.5968 47.7652 60.4219C44.9498 63.2536 43.2069 67.1616 43.2069 71.4731C43.2069 75.7846 44.9498 79.6993 47.7719 82.5243C50.5873 85.3493 54.4819 87.0982 58.7788 87.0982C63.0756 87.0982 66.977 85.3493 69.7924 82.5243C70.3153 81.9997 70.7979 81.4414 71.2403 80.8495C71.6827 81.4414 72.1654 81.9997 72.6883 82.5243C75.5104 85.3493 79.3983 87.0982 83.6952 87.0982C87.992 87.0982 91.8867 85.3493 94.7088 82.5243C97.5242 79.6926 99.267 75.7913 99.267 71.4731C99.267 67.1548 97.5242 63.2469 94.7088 60.4219C91.8867 57.5968 87.992 55.848 83.6952 55.848" fill="white"/>
</g>
<defs>
<clipPath id="clip0_60_34267">
<rect width="375" height="143" fill="white"/>
</clipPath>
</defs>
</svg>
