<svg width="119" height="91" viewBox="0 0 119 91" fill="none" xmlns="http://www.w3.org/2000/svg">
<g clip-path="url(#clip0_2_4109)">
<path d="M31.5903 5.41059L32.3372 7.55978H33.8775L31.2145 0.131893H29.4051L26.8116 7.55978H28.2777L28.9829 5.41059H31.5949H31.5903ZM29.2241 4.34071L29.8644 2.4696C30.0036 2.02657 30.1242 1.58825 30.2309 1.17821H30.2541C30.384 1.57411 30.5046 2.01714 30.667 2.4696L31.3304 4.34071H29.2241ZM34.541 0.131893V4.21817C34.541 6.7067 35.789 7.68703 37.5984 7.68703C39.5284 7.68703 40.8321 6.63129 40.8321 4.21817V0.131893H39.431V4.27473C39.431 5.81592 38.7676 6.57945 37.6634 6.57945C36.5592 6.57945 35.9375 5.8065 35.9375 4.27473V0.131893H34.5363H34.541ZM42.1358 7.16388C42.5905 7.45138 43.4813 7.69175 44.3257 7.69175C46.4088 7.69175 47.2764 6.58887 47.2764 5.44358C47.2764 4.2983 46.5805 3.65731 45.2072 3.20485C44.154 2.86551 43.6901 2.59686 43.6901 2.02657C43.6901 1.59767 44.0566 1.13579 44.9706 1.13579C45.75 1.13579 46.3392 1.37616 46.6176 1.52226L46.9748 0.400541C46.5294 0.179024 45.9031 0.00463867 45.003 0.00463867C43.3421 0.00463867 42.2565 0.918985 42.2565 2.15382C42.2565 3.30854 43.1008 3.9401 44.437 4.34543C45.4763 4.65178 45.8474 4.98641 45.8474 5.53313C45.8474 6.14113 45.3464 6.53703 44.4463 6.53703C43.6669 6.53703 42.9477 6.28252 42.4606 6.00916L42.1358 7.16388ZM50.1714 7.55978H51.5726V1.29132H53.9387V0.131893H47.8331V1.28661H50.1761V7.55507L50.1714 7.55978ZM54.7924 7.55978H56.1796V4.51981H56.9822C57.808 4.54338 58.1746 4.85916 58.4158 5.83006C58.6431 6.76797 58.8287 7.33826 58.9493 7.55978H60.369C60.2159 7.26285 60.0118 6.39092 59.752 5.45301C59.5571 4.77903 59.2416 4.2653 58.6988 4.05321V4.02022C59.3715 3.7987 60.086 3.16243 60.086 2.16796C60.086 1.52698 59.8355 0.999108 59.4365 0.678616C58.9261 0.259147 58.1792 0.0611962 57.0286 0.0611962C56.161 0.0611962 55.3352 0.136606 54.7924 0.226156V7.55507V7.55978ZM56.1796 1.20177C56.3327 1.15935 56.6342 1.12636 57.1539 1.12636C58.0539 1.12636 58.7035 1.46571 58.7035 2.30464C58.7035 3.03046 58.105 3.49235 57.1307 3.49235H56.1749V1.20177H56.1796ZM65.723 5.41059L66.47 7.55978H68.0103L65.3426 0.131893H63.5332L60.9397 7.55978H62.4058L63.111 5.41059H65.723ZM63.3569 4.34071L63.9971 2.4696C64.1363 2.02657 64.2569 1.58825 64.3683 1.17821H64.3915C64.5214 1.57411 64.642 2.01714 64.8044 2.4696L65.4678 4.34071H63.3615H63.3569ZM69.0727 7.55978H73.8328V6.37207H70.4692V0.131893H69.0727V7.55978ZM74.8999 0.131893V7.55978H76.2964V0.131893H74.8999ZM82.1329 5.41059L82.8798 7.55978H84.4202L81.7525 0.131893H79.943L77.3496 7.55978H78.8157L79.5209 5.41059H82.1329ZM79.7667 4.34071L80.407 2.4696C80.5462 2.02657 80.6668 1.58825 80.7735 1.17821H80.7967C80.9266 1.57411 81.0472 2.01714 81.2096 2.4696L81.8731 4.34071H79.7667ZM86.7956 7.55978V4.70362C86.7956 3.59133 86.7863 2.62985 86.7306 1.64009L86.7631 1.63067C87.176 2.48846 87.7188 3.39338 88.2477 4.25116L90.3726 7.55507H91.8573V0.131893H90.5536V2.88436C90.5536 3.95424 90.5628 4.84502 90.6742 5.84891L90.6417 5.85834C90.2752 5.0194 89.8298 4.19461 89.2731 3.32268L87.1575 0.12718H85.478V7.55507H86.7909L86.7956 7.55978Z" fill="#231F20"/>
<path d="M28.3102 16.5054L30.3794 16.873V30.8898L28.3102 31.2575V36.7907H38.0021V28.6747H40.1084L42.6137 36.7907H50.8906V31.2575L48.8214 30.8898L47.1883 26.4642V26.0966C47.1883 26.0966 49.6194 25.0267 49.6194 21.3033V18.3529C49.6194 13.5597 47.0769 10.9769 42.3586 10.9769H28.3102V16.5101V16.5054ZM41.9967 20.931C41.9967 22.0386 41.6348 22.4062 40.5445 22.4062H38.0021V17.2406H40.5445C41.6348 17.2406 41.9967 17.6082 41.9967 18.7158V20.931ZM53.433 16.5054L55.5022 16.873V30.8898L53.433 31.2575V36.7907H65.1941V31.2575L63.1249 30.8898V16.873L65.1941 16.5054V10.9722H53.433V16.5054ZM68.0985 16.5054L70.1677 16.873V30.8898L68.0985 31.2575V36.7907H82.583C87.3013 36.7907 89.8438 34.2079 89.8438 29.4146V18.3482C89.8438 13.555 87.3013 10.9722 82.583 10.9722H68.0985V16.5054ZM82.2211 29.047C82.2211 30.1546 81.8592 30.5222 80.7689 30.5222H77.7904V17.2453H80.7689C81.8592 17.2453 82.2211 17.613 82.2211 18.7205V29.047Z" fill="#231F20"/>
<path d="M16.8135 10.9768H0V17.9522L2.54708 18.4188V36.0883L0 36.5549V43.5304H14.4891V36.5549L11.9421 36.0883V34.2267H16.8182C22.6314 34.2267 25.7631 30.9699 25.7631 24.9277V20.2758C25.7631 14.2289 22.6314 10.9768 16.8182 10.9768H16.8135ZM16.3681 24.4611C16.3681 25.8561 15.9227 26.3227 14.5773 26.3227H11.9374V18.8807H14.5773C15.9181 18.8807 16.3681 19.3473 16.3681 20.7424V24.4611Z" fill="#231F20"/>
<path d="M92.8734 43.5256H118.632V31.8984H111.478L110.782 35.1551H105.2V30.9699H111.339V23.5279H105.2V19.3426H110.276L110.967 22.5994H118.126V10.9768H92.8734V17.9475L95.504 18.4141V36.0836L92.8734 36.5502V43.5256Z" fill="#231F20"/>
<path d="M61.6821 64.6783C61.6821 65.4984 61.4083 65.7717 60.5964 65.7717H58.5318C57.7153 65.7717 57.4462 65.4984 57.4462 64.6783V56.7697C57.4462 55.9496 57.7199 55.6762 58.5318 55.6762H60.5964C61.413 55.6762 61.6821 55.9496 61.6821 56.7697V64.6783ZM51.7443 64.9516C51.7443 68.4959 53.6465 70.4047 57.1771 70.4047H61.9558C65.4864 70.4047 67.384 68.4959 67.384 64.9516V56.4963C67.384 52.952 65.4818 51.0432 61.9558 51.0432H57.1771C53.6465 51.0432 51.7443 52.952 51.7443 56.4963V64.9516Z" fill="#231F20"/>
<path d="M12.8004 61.9775V70.2679H24.4269C29.1639 70.2679 31.7156 67.8501 31.7156 63.3585V62.3216C31.7156 57.83 29.1639 55.4122 24.4269 55.4122H21.5087C20.4138 55.4122 20.0519 55.0681 20.0519 54.0312V53.6872C20.0519 52.6503 20.4184 52.3062 21.5087 52.3062H24.2414L24.7888 54.38H30.4397V46.0896H19.6854C14.9484 46.0896 12.3967 48.5074 12.3967 52.999V54.0359C12.3967 58.5275 14.9484 60.9454 19.6854 60.9454H22.6036C23.6985 60.9454 24.0604 61.2894 24.0604 62.3263V62.6704C24.0604 63.7073 23.6939 64.0513 22.6036 64.0513H18.9941L18.4466 61.9775H12.7957H12.8004Z" fill="#231F20"/>
<path d="M88.3127 46.085V54.7241H92.8409L93.3234 52.3063H94.6039V64.7395L92.7759 65.0883V70.268H103.173V65.0883L101.345 64.7395V52.3063H102.626L103.108 54.7241H107.632V46.085H88.3127Z" fill="#231F20"/>
<path d="M69.4114 55.2708L70.9703 55.5442V65.9084L69.4114 66.1817V70.2727H76.7186V64.2729H78.3053L80.1936 70.2727H86.4337V66.1817L84.8749 65.9084L83.6454 62.6375V62.3641C83.6454 62.3641 85.478 61.5723 85.478 58.8198V56.6377C85.478 53.0934 83.5619 51.1846 80.008 51.1846H69.4207V55.2756L69.4114 55.2708ZM79.725 58.5418C79.725 59.3618 79.4513 59.6305 78.6301 59.6305H76.714V55.8129H78.6301C79.4513 55.8129 79.725 56.0862 79.725 56.9016V58.537V58.5418Z" fill="#231F20"/>
<path d="M44.219 51.1797H33.5621V55.2707L35.1766 55.544V65.9082L33.5621 66.1816V70.2726H42.7483V66.1816L41.1337 65.9082V64.8195H44.2236C47.9074 64.8195 49.8931 62.9107 49.8931 59.3664V56.6375C49.8931 53.0932 47.9074 51.1844 44.2236 51.1844L44.219 51.1797ZM43.936 59.0883C43.936 59.9084 43.653 60.177 42.8039 60.177H41.1337V55.8127H42.8039C43.653 55.8127 43.936 56.0861 43.936 56.9014V59.0836V59.0883Z" fill="#231F20"/>
<path d="M54.6115 40.1841V47.8759H56.059V40.1841H54.6115Z" fill="#231F20"/>
<path d="M58.7731 47.876V44.9208C58.7731 43.7661 58.7638 42.7764 58.7035 41.7489L58.7359 41.7395C59.1628 42.6303 59.7242 43.5635 60.2763 44.4542L62.48 47.876H64.0203V40.1842H62.6702V43.0356C62.6702 44.1432 62.6795 45.067 62.7955 46.1038L62.763 46.1133C62.3826 45.2461 61.9186 44.3883 61.348 43.4881L59.1581 40.1794H57.4183V47.8713H58.7777L58.7731 47.876Z" fill="#231F20"/>
<path d="M51.5169 40.2783H45.6897V47.7533H51.5169V40.2783Z" fill="#FFE600"/>
<path d="M45.6898 40.2783H39.8625V47.7533H45.6898V40.2783Z" fill="#FCAF17"/>
<path d="M39.8625 40.2783H34.04V47.7533H39.8625V40.2783Z" fill="#ED1C24"/>
<path d="M72.9839 40.2783H67.1567V47.7533H72.9839V40.2783Z" fill="#8DC63F"/>
<path d="M78.8064 40.2783H72.9838V47.7533H78.8064V40.2783Z" fill="#1268B3"/>
<path d="M84.6336 40.2783H78.8064V47.7533H84.6336V40.2783Z" fill="#662D91"/>
<path d="M92.6506 90.8502V76.9512H84.3227V73.7039H34.3508V76.9512H26.0229V90.8502H36.7308V88.2061H81.9427V90.8502H92.6506ZM42.9895 77.5686L45.4206 84.3367H44.0148L43.3328 82.3807H40.9481L40.3079 84.3367H38.9717L41.3332 77.5686H42.9849H42.9895ZM54.1892 77.5686L52.2128 84.3367H50.8395L50.0879 80.9809C49.9024 80.1891 49.7724 79.5858 49.6936 78.8694H49.675C49.5544 79.5717 49.4291 80.1844 49.2111 80.9809L48.362 84.3367H46.9377L45.1701 77.5686H46.5434L47.2439 80.684C47.4202 81.5182 47.6104 82.3996 47.7264 83.0217H47.745C47.8563 82.3572 48.0512 81.5229 48.26 80.6604L49.0301 77.5686H50.4545L51.155 80.7547C51.3313 81.5559 51.4798 82.3242 51.5819 82.9934H51.6004C51.7303 82.3006 51.9066 81.5182 52.1061 80.6746L52.8855 77.5733H54.1892V77.5686ZM60.3087 84.3367H58.903L58.221 82.3807H55.8363L55.196 84.3367H53.8598L56.2213 77.5686H57.873L60.3041 84.3367H60.3087ZM64.8369 81.1129V81.1412C65.3333 81.3297 65.6163 81.8057 65.7973 82.4184C66.0339 83.2715 66.2241 84.0633 66.3586 84.3367H65.0642C64.9529 84.134 64.7858 83.6156 64.5817 82.7578C64.3637 81.8717 64.0296 81.5842 63.278 81.5606H62.545V84.3319H61.2784V77.6535C61.7748 77.5733 62.5218 77.5026 63.3151 77.5026C64.3637 77.5026 65.0457 77.6817 65.5096 78.0635C65.8761 78.3557 66.1035 78.8364 66.1035 79.4209C66.1035 80.3258 65.4493 80.9055 64.8369 81.1082V81.1129ZM73.6566 80.7735C73.6566 81.9094 73.2297 82.8002 72.5616 83.4129C71.8193 84.068 70.6223 84.4074 69.1887 84.4074C68.3583 84.4074 67.7644 84.3697 67.3097 84.3178V77.6582C67.9314 77.5686 68.6923 77.5073 69.5042 77.5073C70.9193 77.5073 71.8657 77.7996 72.5477 78.3604C73.239 78.9119 73.6566 79.6942 73.6566 80.7688V80.7735ZM75.9021 79.2983C75.9021 79.8215 76.3289 80.0619 77.2846 80.3729C78.5419 80.783 79.1729 81.358 79.1729 82.4137C79.1729 83.4695 78.3796 84.4639 76.482 84.4639C75.7119 84.4639 74.8999 84.2424 74.487 83.9832L74.784 82.9274C75.2293 83.1772 75.8789 83.4082 76.5934 83.4082C77.4145 83.4082 77.8692 83.0453 77.8692 82.4938C77.8692 81.9895 77.5352 81.6879 76.5841 81.4098C75.3685 81.0375 74.5984 80.4672 74.5984 79.4115C74.5984 78.285 75.5866 77.4555 77.0991 77.4555C77.9202 77.4555 78.4955 77.6157 78.8992 77.8184L78.5744 78.8412C78.3192 78.7092 77.7811 78.4924 77.0712 78.4924C76.2407 78.4924 75.9067 78.9119 75.9067 79.3078L75.9021 79.2983ZM72.3018 80.8348C72.3111 79.3596 71.3229 78.5065 69.5924 78.5065C69.1191 78.5065 68.7897 78.5442 68.5856 78.5867V83.3658C68.7851 83.4082 69.1006 83.4082 69.4068 83.4082C71.2765 83.4176 72.3018 82.4326 72.3018 80.8395V80.8348ZM64.8462 79.5481C64.8462 78.7846 64.2523 78.4735 63.4311 78.4735C62.9579 78.4735 62.6795 78.5018 62.5403 78.5442V80.6322H63.4126C64.3033 80.6322 64.8462 80.208 64.8462 79.5481ZM56.0682 81.4051H57.9843L57.3812 79.699C57.2327 79.2889 57.126 78.8836 57.0054 78.5254H56.9869C56.8894 78.8977 56.7781 79.2983 56.6528 79.699L56.0682 81.4051ZM41.1801 81.4051H43.0962L42.4931 79.699C42.3446 79.2889 42.2379 78.8836 42.1173 78.5254H42.0987C42.0013 78.8977 41.89 79.2983 41.76 79.699L41.1755 81.4051H41.1801Z" fill="#231F20"/>
</g>
<defs>
<clipPath id="clip0_2_4109">
<rect width="118.632" height="90.8502" fill="white"/>
</clipPath>
</defs>
</svg>
