<svg width="102" height="90" viewBox="0 0 102 90" fill="none" xmlns="http://www.w3.org/2000/svg">
<g clip-path="url(#clip0_2_4026)">
<path d="M5.0504 74.3993V64.2984H8.31077C10.5749 64.2984 12.3036 64.1694 13.497 63.914C14.376 63.7071 15.239 63.2824 16.0914 62.6454C16.9411 62.0057 17.6417 61.1268 18.1958 60.0059C18.7471 58.8851 19.0242 57.5036 19.0242 55.8586C19.0242 53.7271 18.5447 51.9881 17.5884 50.6442C16.6295 49.2976 15.4415 48.424 14.0217 48.0235C13.0974 47.7548 11.1156 47.623 8.0737 47.623H0.0479736V74.4047H5.0504V74.3993ZM7.46637 52.1494C9.2697 52.1494 10.4684 52.2112 11.065 52.3321C11.8775 52.4907 12.546 52.8858 13.0761 53.5202C13.6062 54.1545 13.8699 54.9582 13.8699 55.9312C13.8699 56.7241 13.6808 57.4175 13.3052 58.0142C12.927 58.6109 12.4075 59.0491 11.7416 59.3286C11.0757 59.6081 9.75982 59.7479 7.78868 59.7479H5.0504V52.1494H7.46637ZM27.801 74.3993V63.2206H28.8159C29.964 63.2206 30.803 63.32 31.3331 63.5216C31.8632 63.7232 32.364 64.0941 32.8381 64.6371C33.3122 65.18 34.1886 66.4917 35.4752 68.5748L39.0898 74.402H45.0725L42.0492 69.1768C40.8558 67.0938 39.9049 65.645 39.2017 64.8279C38.4985 64.0135 37.6061 63.2636 36.5247 62.5809C38.6982 62.2395 40.3311 61.4144 41.4259 60.1054C42.518 58.7964 43.064 57.138 43.064 55.1275C43.064 53.5444 42.7044 52.1386 41.9826 50.9076C41.2607 49.6766 40.3018 48.8218 39.1005 48.3407C37.9018 47.8596 35.9759 47.6204 33.3309 47.6204H22.8039V74.402H27.8064L27.801 74.3993ZM27.801 52.1494H31.7034C33.7304 52.1494 34.9478 52.1789 35.3526 52.2408C36.1624 52.3859 36.791 52.738 37.2359 53.2917C37.6807 53.8454 37.9045 54.5738 37.9045 55.4742C37.9045 56.2779 37.7366 56.9472 37.3984 57.4847C37.0601 58.0223 36.5939 58.3986 35.9972 58.6163C35.4006 58.8367 33.9009 58.9442 31.5036 58.9442H27.8037V52.1494H27.801ZM53.3433 74.3993V47.6177H48.3408V74.3993H53.3433ZM58.09 74.3993H67.5008C69.3468 74.3993 70.8251 74.2112 71.9279 73.8322C73.4036 73.3215 74.5756 72.6092 75.4413 71.6953C76.5894 70.4885 77.4737 68.9134 78.0943 66.9648C78.6004 65.3682 78.8535 63.4706 78.8535 61.2638C78.8535 58.7561 78.5845 56.6461 78.0437 54.934C77.503 53.2245 76.7145 51.7758 75.6784 50.5958C74.6422 49.4158 73.3982 48.5934 71.9439 48.1311C70.8624 47.7897 69.2908 47.6204 67.2291 47.6204H58.0873V74.402L58.09 74.3993ZM65.3379 52.1494C67.3756 52.1494 68.7448 52.2354 69.4426 52.4047C70.3776 52.6251 71.1501 53.0444 71.7574 53.6653C72.3647 54.2862 72.8389 55.1517 73.1772 56.2591C73.5154 57.3665 73.6833 58.9577 73.6833 61.0273C73.6833 63.0969 73.5128 64.7338 73.1772 65.9326C72.8389 67.1314 72.402 67.9942 71.8666 68.5183C71.3312 69.0424 70.6573 69.4134 69.8475 69.6338C69.2269 69.8031 68.22 69.8891 66.8242 69.8891H63.0897V52.1521H65.3379V52.1494ZM101.591 74.3993V69.8864H87.7529V62.597H100.19V58.0841H87.7529V52.1467H101.119V47.6177H82.7532V74.3993H101.593H101.591Z" fill="#004262"/>
<path d="M0 77.9904V89.3223H2.65038V77.9904H0ZM7.59687 89.3223V85.6239C7.59687 83.9252 7.58088 82.3608 7.49565 80.7481L7.56224 80.732C8.1962 82.1781 9.01129 83.6241 9.77843 84.9358L12.4288 89.325H15.3109V77.9931H12.8284V81.5572C12.8284 83.1537 12.8444 84.5165 13.0281 86.1292H12.9935C12.4102 84.7503 11.7283 83.3392 10.9451 82.0598L8.41196 77.9904H5.13028V89.3223H7.59687ZM22.0767 89.3223H24.7085V85.3201C24.9588 85.3712 25.3078 85.3873 25.7073 85.3873C27.3908 85.3873 28.7386 85.0003 29.6736 84.159C30.3741 83.5193 30.7231 82.5624 30.7231 81.4846C30.7231 80.3235 30.1904 79.3666 29.4578 78.8102C28.6907 78.2216 27.524 77.8856 25.8911 77.8856C24.1091 77.8856 22.9078 78.0038 22.0741 78.1382V89.3196L22.0767 89.3223ZM24.7085 79.974C24.9082 79.9391 25.3078 79.8907 25.9071 79.8907C27.2736 79.8907 28.0914 80.4632 28.0914 81.5222C28.0914 82.6995 27.1404 83.3553 25.7073 83.3553C25.2572 83.3553 24.9402 83.3392 24.7085 83.272V79.9767V79.974ZM32.6063 89.3223H35.2381V84.9008H36.1384C37.2891 84.917 37.7872 85.2879 38.1548 86.699C38.5224 88.1612 38.8047 88.9864 38.9885 89.3223H41.7055C41.4711 88.8681 41.1222 87.371 40.7226 86.0781C40.4216 85.1024 39.9741 84.3283 39.1883 84.0085V83.9574C40.0887 83.6725 41.2554 82.6968 41.2554 81.1836C41.2554 80.1246 40.8212 79.3182 40.1552 78.7968C39.3375 78.1759 38.1388 77.8883 36.3062 77.8883C34.7906 77.8883 33.4747 78.0065 32.6063 78.1409V89.3223ZM35.2381 79.9579C35.4378 79.9068 35.8374 79.8558 36.5886 79.8558C37.8059 79.8558 38.621 80.3423 38.621 81.4013C38.621 82.377 37.7872 82.9817 36.4367 82.9817H35.2381V79.9552V79.9579ZM50.5676 86.3146L51.5505 89.325H54.4993L50.5676 77.9931H47.0009L43.2531 89.325H46.0367L46.937 86.3146H50.5703H50.5676ZM47.3526 84.331L48.1037 81.9093C48.3035 81.2534 48.4873 80.4955 48.6524 79.8585H48.6844C48.8842 80.4982 49.0999 81.2534 49.3184 81.9093L50.1361 84.331H47.3526ZM64.5467 86.9033C63.9634 87.1559 62.9805 87.3414 62.0642 87.3414C59.4804 87.3414 58.066 85.7771 58.066 83.6591C58.066 81.2373 59.7814 79.9606 62.0482 79.9606C63.0977 79.9606 63.9634 80.1971 64.5467 80.4471L65.1141 78.3613C64.5973 78.0764 63.4466 77.7888 61.931 77.7888C58.1485 77.7888 55.2664 80.0923 55.2664 83.8069C55.2664 87.0511 57.4826 89.5239 61.7152 89.5239C63.2655 89.5239 64.4801 89.2202 64.9809 88.9702L64.5467 86.9033ZM69.645 89.325H72.3114V80.1783H75.7449V77.9931H66.2648V80.1783H69.6477V89.325H69.645ZM77.3112 77.9931V89.325H79.9615V77.9931H77.3112ZM91.2077 86.9033C90.6243 87.1559 89.6414 87.3414 88.7251 87.3414C86.1413 87.3414 84.7269 85.7771 84.7269 83.6591C84.7269 81.2373 86.4423 79.9606 88.7091 79.9606C89.7586 79.9606 90.6243 80.1971 91.2077 80.4471L91.775 78.3613C91.2583 78.0764 90.1076 77.7888 88.5919 77.7888C84.8095 77.7888 81.9274 80.0923 81.9274 83.8069C81.9274 87.0511 84.1436 89.5239 88.3762 89.5239C89.9264 89.5239 91.1411 89.2202 91.6419 88.9702L91.2077 86.9033ZM100.954 82.4307H96.2874V80.1622H101.237V77.9931H93.6396V89.325H101.487V87.1559H96.2874V84.5998H100.954V82.4307Z" fill="#004262"/>
<path d="M48.775 0H50.7888V41.9061H48.775V0Z" fill="#FDB913"/>
<path d="M50.7887 0H52.8025V41.9061H50.7887V0Z" fill="#009E4C"/>
<path d="M44.7474 0H46.7612V41.9061H44.7474V0Z" fill="#D2232A"/>
<path d="M46.7612 0H48.775V41.9061H46.7612V0Z" fill="#F26322"/>
<path d="M52.8025 0H54.8162V41.9061H52.8025V0Z" fill="#2662AF"/>
<path d="M54.8163 0H56.83V41.9061H54.8163V0Z" fill="#69469C"/>
<path d="M88.3016 12.5845C88.3016 9.31068 87.1882 6.39706 84.9613 3.83824C82.7371 1.27941 79.2823 0 74.6022 0H56.8406V41.9034H61.4408V25.3114L75.1589 25.1958C79.0745 25.1958 82.2443 24.0051 84.6683 21.6237C87.0896 19.2422 88.3016 16.2292 88.3016 12.5818V12.5845ZM79.4688 12.5845C79.4688 15.0492 78.7069 17.0328 77.1806 18.5353C75.6543 20.0379 73.6459 20.7878 71.15 20.7878H61.4408V4.443H71.5229C74.0987 4.443 76.0699 5.27086 77.4284 6.92925C78.7895 8.58765 79.4688 10.4718 79.4688 12.5845ZM44.7608 0H26.9726C22.2951 0 18.8403 1.27941 16.6135 3.83824C14.3866 6.39706 13.2732 9.31068 13.2732 12.5845C13.2732 16.2292 14.4852 19.2449 16.9065 21.6264C19.3304 24.0078 22.4976 25.1985 26.4159 25.1985L40.1339 25.3141V41.9061H44.7581V0H44.7608ZM40.1366 20.7851H30.4274C27.9342 20.7851 25.9231 20.0352 24.3968 18.5327C22.8705 17.0302 22.1087 15.0492 22.1087 12.5818C22.1087 10.4691 22.7879 8.58496 24.1491 6.92657C25.5102 5.27086 27.4787 4.44031 30.0545 4.44031H40.1339V20.7824L40.1366 20.7851Z" fill="#004262"/>
</g>
<defs>
<clipPath id="clip0_2_4026">
<rect width="101.591" height="89.5239" fill="white"/>
</clipPath>
</defs>
</svg>
