<svg width="22" height="23" viewBox="0 0 22 23" fill="none" xmlns="http://www.w3.org/2000/svg">
<path d="M11.1 24.3125C9.75001 23.0375 8.20313 22.0625 6.45938 21.3875C4.71563 20.7125 2.88751 20.375 0.975006 20.375V8C2.86876 8 4.68751 8.34219 6.43126 9.02656C8.17501 9.71094 9.73126 10.7 11.1 11.9938C12.4688 10.7 14.025 9.71094 15.7688 9.02656C17.5125 8.34219 19.3313 8 21.225 8V20.375C19.2938 20.375 17.4609 20.7125 15.7266 21.3875C13.9922 22.0625 12.45 23.0375 11.1 24.3125ZM11.1 21.3875C12.2813 20.5062 13.5375 19.8031 14.8688 19.2781C16.2 18.7531 17.5688 18.4063 18.975 18.2375V10.475C17.6063 10.7187 16.2609 11.2109 14.9391 11.9516C13.6172 12.6922 12.3375 13.6813 11.1 14.9188C9.86251 13.6813 8.58282 12.6922 7.26094 11.9516C5.93907 11.2109 4.59376 10.7187 3.22501 10.475V18.2375C4.63126 18.4063 6.00001 18.7531 7.33126 19.2781C8.66251 19.8031 9.91876 20.5062 11.1 21.3875ZM11.1 9.125C9.86251 9.125 8.80313 8.68438 7.92188 7.80313C7.04063 6.92188 6.60001 5.8625 6.60001 4.625C6.60001 3.3875 7.04063 2.32813 7.92188 1.44688C8.80313 0.565625 9.86251 0.125 11.1 0.125C12.3375 0.125 13.3969 0.565625 14.2781 1.44688C15.1594 2.32813 15.6 3.3875 15.6 4.625C15.6 5.8625 15.1594 6.92188 14.2781 7.80313C13.3969 8.68438 12.3375 9.125 11.1 9.125ZM11.1 6.875C11.7188 6.875 12.2484 6.65469 12.6891 6.21406C13.1297 5.77344 13.35 5.24375 13.35 4.625C13.35 4.00625 13.1297 3.47656 12.6891 3.03594C12.2484 2.59531 11.7188 2.375 11.1 2.375C10.4813 2.375 9.95157 2.59531 9.51094 3.03594C9.07032 3.47656 8.85001 4.00625 8.85001 4.625C8.85001 5.24375 9.07032 5.77344 9.51094 6.21406C9.95157 6.65469 10.4813 6.875 11.1 6.875Z" fill="#B2B6B8"/>
</svg>
