<svg width="435" height="84" viewBox="0 0 435 84" fill="none" xmlns="http://www.w3.org/2000/svg">
<g clip-path="url(#clip0_60_31570)">
<path d="M145.098 43.0122H134.917V33.5322H165.791V43.0122H155.541V80.932H145.098V43.0122Z" fill="#231F20"/>
<path d="M195.886 50.6672C195.886 46.2679 193.052 42.472 188.669 42.472H181.515V58.8575H188.669C193.052 58.8575 195.886 55.0665 195.886 50.6623M171.073 33.5322H190.024C200.012 33.5322 206.46 41.4549 206.46 50.6623C206.46 57.3002 203.108 63.1887 197.502 65.9675L206.527 80.932H194.411L186.42 67.7924H181.52V80.932H171.077V33.5322H171.073Z" fill="#231F20"/>
<path d="M230.112 47.0757L224.569 66.5758H235.525L230.112 47.0757ZM239.844 80.932L238.103 75.1749H222.054L220.313 80.932H209.163L225.275 33.5322H234.877L251.182 80.932H239.839H239.844Z" fill="#231F20"/>
<path d="M266.331 33.5322H255.762V80.932H266.331V33.5322Z" fill="#231F20"/>
<path d="M302.168 64.4102V33.5322H312.543V80.9369H301.65L285.408 50.4628V80.9369H274.965V33.5322H285.858L302.168 64.4102Z" fill="#231F20"/>
<path d="M331.746 33.5322H321.177V80.932H331.746V33.5322Z" fill="#231F20"/>
<path d="M367.583 64.4102V33.5322H377.958V80.9369H367.065L350.823 50.4628V80.9369H340.385V33.5322H351.277L367.583 64.4102Z" fill="#231F20"/>
<path d="M411.604 55.8792H435V64.0744H430.361C428.557 74.8391 420.886 82.1534 407.995 82.1534C392.846 82.1534 384.343 70.5079 384.343 57.2321C384.343 43.9562 393.238 32.3107 407.995 32.3107C419.855 32.3107 428.04 39.8927 428.813 48.9006H417.664C417.021 45.1777 413.413 41.7906 407.932 41.7906C399.424 41.7906 395.042 49.3094 395.042 57.3002C395.042 65.6949 399.487 72.873 408.837 72.873C415.154 72.873 418.893 68.8095 419.599 64.0695H411.608V55.8743L411.604 55.8792Z" fill="#231F20"/>
<path d="M148.15 10.4452C148.15 7.09709 145.877 4.30858 142.341 4.30858H136.309V16.5187H142.341C145.877 16.5187 148.15 13.735 148.15 10.4501M134.921 2.95083H142.341C146.728 2.95083 149.538 6.36712 149.538 10.4501C149.538 14.5331 146.728 17.8813 142.341 17.8813H136.309V26.1738H134.921V2.95083Z" fill="#231F20"/>
<path d="M166.458 10.4454C166.458 7.09725 164.185 4.30874 160.649 4.30874H154.617V16.5188H160.649C164.185 16.5188 166.458 13.7352 166.458 10.4503M153.229 2.95099H160.649C165.036 2.95099 167.846 6.36727 167.846 10.4503C167.846 13.9006 165.762 16.8887 162.448 17.6819L167.658 26.174H166.018L160.968 17.8814H154.622V26.174H153.234V2.95099H153.229Z" fill="#231F20"/>
<path d="M174.792 2.95099H173.37V26.174H174.792V2.95099Z" fill="#231F20"/>
<path d="M180.814 4.30879V24.8114H185.52C191.929 24.8114 195.591 19.7356 195.591 14.5625C195.591 9.38942 191.929 4.31366 185.52 4.31366H180.814V4.30879ZM185.52 2.94617C192.848 2.94617 196.984 8.68378 196.984 14.5577C196.984 20.4315 192.848 26.1691 185.52 26.1691H179.426V2.95103H185.52V2.94617Z" fill="#231F20"/>
<path d="M202.063 4.30875V13.9639H212.356V15.3217H202.063V24.8113H212.356V26.174H200.67V2.95099H212.356V4.30875H202.063Z" fill="#231F20"/>
<path d="M78.784 42C78.784 36.1067 75.7948 30.9579 71.3254 28.1013C72.5588 22.7627 71.2093 16.9034 67.243 12.7328C64.2151 9.55501 60.2537 7.96366 56.2874 7.96366C55.054 7.96366 53.8206 8.13399 52.6162 8.44544C49.8978 3.759 45.0028 0.615234 39.392 0.615234C33.7811 0.615234 28.8813 3.759 26.163 8.45031C24.9586 8.14372 23.7252 7.96853 22.4917 7.96853C18.5255 7.96853 14.564 9.55987 11.5361 12.7377C7.5698 16.9034 6.2203 22.7676 7.45371 28.1061C2.98923 30.9579 0 36.1067 0 42C0 47.8934 2.99406 53.0421 7.45855 55.8988C6.22513 61.2373 7.57464 67.0966 11.5409 71.2672C15.5072 75.4329 21.089 76.8491 26.1678 75.5546C28.8862 80.2459 33.786 83.3897 39.3968 83.3897C45.0077 83.3897 49.9075 80.2459 52.6258 75.5546C57.7046 76.8539 63.2864 75.4329 67.2527 71.2672C71.219 67.1015 72.5685 61.2373 71.3351 55.8988C75.7996 53.0421 78.7936 47.8934 78.7936 42" fill="white"/>
<path d="M45.4527 26.6316H33.3313L24.7603 35.6346V48.3654L33.3313 57.3685H45.4527L54.0189 48.3654V35.6346L45.4527 26.6316Z" fill="#000005"/>
<path d="M24.76 57.3684H16.8226C14.0414 57.3684 11.4488 56.5363 9.23345 55.1201C8.06775 60.157 9.33986 65.695 13.0885 69.6272C16.8323 73.5642 22.0997 74.8976 26.8979 73.6761C25.5484 71.3499 24.76 68.6247 24.76 65.7048V57.3684Z" fill="#712C86"/>
<path d="M54.0187 26.6316H61.9561C64.7374 26.6316 67.33 27.4638 69.5453 28.8799C70.711 23.8431 69.4389 18.305 65.6903 14.3729C62.8316 11.3702 59.0927 9.87134 55.3441 9.87134C54.1784 9.87134 53.0175 10.0319 51.876 10.3239C53.2255 12.6501 54.0139 15.3705 54.0139 18.2953V26.6316H54.0187Z" fill="#712C86"/>
<path d="M18.7043 42L13.0934 36.1066C11.1248 34.0384 9.85267 31.5273 9.23838 28.8799C5.02057 31.5759 2.1958 36.4376 2.1958 42C2.1958 47.5624 5.02057 52.424 9.23838 55.1201C9.85267 52.4727 11.1248 49.9616 13.0934 47.8933L18.7043 42Z" fill="#EC008C"/>
<path d="M76.5832 42C76.5832 36.4327 73.7584 31.5759 69.5406 28.8799C68.9263 31.5273 67.6542 34.0384 65.6856 36.1066L60.0747 42L65.6856 47.8933C67.6542 49.9616 68.9263 52.4727 69.5406 55.1201C73.7584 52.424 76.5832 47.5624 76.5832 42Z" fill="#EC008C"/>
<path d="M24.76 57.3684V48.3654L18.6993 42L13.0884 47.8933C11.1198 49.9616 9.84769 52.4727 9.2334 55.1201C11.4487 56.5363 14.0413 57.3684 16.8225 57.3684H24.76Z" fill="#64255E"/>
<path d="M54.0186 26.6316V35.6346L60.0792 42L65.6901 36.1067C67.6587 34.0384 68.9308 31.5273 69.5451 28.8799C67.3298 27.4638 64.7372 26.6316 61.956 26.6316H54.0186Z" fill="#64255E"/>
<path d="M24.7603 26.6316V18.2953C24.7603 15.3705 25.5487 12.6501 26.8982 10.3239C25.7616 10.0319 24.5959 9.87134 23.4302 9.87134C19.6864 9.87134 15.9426 11.3702 13.0839 14.3729C9.34016 18.3099 8.06321 23.8431 9.22891 28.8799C11.4442 27.4638 14.0368 26.6316 16.8181 26.6316H24.7555H24.7603Z" fill="#F3C716"/>
<path d="M54.0188 57.3684V65.7048C54.0188 68.6295 53.2304 71.3499 51.8809 73.6761C56.6791 74.9025 61.9465 73.5642 65.6903 69.6272C69.4341 65.6902 70.711 60.157 69.5453 55.1201C67.33 56.5363 64.7374 57.3684 61.9562 57.3684H54.0188Z" fill="#F3C716"/>
<path d="M18.7042 42L24.7648 35.6346V26.6316H16.8274C14.0462 26.6316 11.4536 27.4638 9.23828 28.8799C9.85257 31.5273 11.1247 34.0384 13.0933 36.1067L18.7042 42Z" fill="#BF2026"/>
<path d="M60.0792 42L54.0186 48.3654V57.3684H61.956C64.7372 57.3684 67.3298 56.5363 69.5451 55.1201C68.9308 52.4727 67.6587 49.9616 65.6901 47.8933L60.0792 42Z" fill="#BF2026"/>
<path d="M18.7046 42L24.7604 48.3654V35.6346L18.7046 42Z" fill="#4C1144"/>
<path d="M54.019 48.3654L60.0797 42L54.019 35.6346V48.3654Z" fill="#4C1144"/>
<path d="M39.3918 20.2662L45.0026 14.3729C46.9713 12.3046 49.3607 10.9663 51.8808 10.324C49.3123 5.89545 44.6882 2.92688 39.3918 2.92688C34.0954 2.92688 29.4712 5.89545 26.9028 10.324C29.4229 10.9663 31.8123 12.3046 33.781 14.3729L39.3918 20.2662Z" fill="#00A6E9"/>
<path d="M39.3918 63.7339L33.781 69.6272C31.8123 71.6955 29.4229 73.0338 26.9028 73.6762C29.4712 78.1047 34.0954 81.0733 39.3918 81.0733C44.6882 81.0733 49.3123 78.1047 51.8808 73.6762C49.3607 73.0338 46.9713 71.6955 45.0026 69.6272L39.3918 63.7339Z" fill="#00A6E9"/>
<path d="M39.392 63.7338L33.3313 57.3684H24.7603V65.7047C24.7603 68.6295 25.5487 71.3499 26.8982 73.6761C29.4182 73.0337 31.8077 71.6954 33.7763 69.6271L39.3871 63.7338H39.392Z" fill="#2F5CA8"/>
<path d="M39.3921 20.2662L45.4528 26.6316H54.0238V18.2953C54.0238 15.3705 53.2354 12.6502 51.8859 10.324C49.3658 10.9664 46.9764 12.3046 45.0078 14.3729L39.3969 20.2662H39.3921Z" fill="#2F5CA8"/>
<path d="M54.0188 26.6316H45.4526L54.0188 35.6346V26.6316Z" fill="#152649"/>
<path d="M24.7603 57.3684H33.3313L24.7603 48.3654V57.3684Z" fill="#152649"/>
<path d="M24.7603 26.6315H33.3313L39.392 20.2661L33.7811 14.3728C31.8125 12.3045 29.4231 10.9662 26.903 10.3239C25.5535 12.65 24.7651 15.3704 24.7651 18.2952V26.6315H24.7603Z" fill="#01945B"/>
<path d="M54.0189 57.3684H45.4479L39.3872 63.7338L44.9981 69.6271C46.9667 71.6954 49.3561 73.0337 51.8762 73.6761C53.2257 71.3499 54.0141 68.6295 54.0141 65.7047V57.3684H54.0189Z" fill="#01945B"/>
<path d="M39.3922 63.7338L45.4529 57.3684H33.3315L39.3922 63.7338Z" fill="#014455"/>
<path d="M39.3922 20.2661L33.3315 26.6315H45.4529L39.3922 20.2661Z" fill="#014455"/>
<path d="M24.7603 26.6316V35.6346L33.3313 26.6316H24.7603Z" fill="#2E2124"/>
<path d="M54.0188 57.3684V48.3654L45.4526 57.3684H54.0188Z" fill="#2E2124"/>
<path d="M20.0734 45.6255C19.193 46.5501 17.9741 47.1244 16.6246 47.1244C15.2751 47.1244 14.0611 46.5501 13.1807 45.6255C12.2956 44.696 11.749 43.4161 11.749 41.9999C11.749 40.5838 12.2956 39.3039 13.1759 38.3792C14.0562 37.4497 15.2751 36.8755 16.6246 36.8755C17.9741 36.8755 19.193 37.4497 20.0734 38.3744C20.9585 39.3039 21.5051 40.5838 21.5051 41.9999C21.5051 43.4161 20.9634 44.696 20.0782 45.6255M16.6295 33.4641C14.3851 33.4641 12.3536 34.4228 10.8832 35.9655C9.41276 37.513 8.50342 39.6494 8.50342 42.0048C8.50342 44.3602 9.41276 46.5014 10.888 48.0441C12.3585 49.5868 14.39 50.5406 16.6343 50.5406C18.4675 50.5406 20.1556 49.8934 21.5099 48.8228V50.5406H24.7604V41.9999C24.7604 39.6445 23.851 37.5081 22.3806 35.9606C20.9102 34.4179 18.8786 33.4592 16.6343 33.4592M67.901 35.9606C66.4305 34.4179 64.399 33.4592 62.1547 33.4592C59.9104 33.4592 57.8788 34.4179 56.4084 35.9606C54.938 37.5081 54.0286 39.6445 54.0286 41.9999V50.5406H57.2791V41.9999C57.2791 40.5838 57.8256 39.3039 58.706 38.3792C59.5863 37.4497 60.8052 36.8755 62.1547 36.8755C63.5042 36.8755 64.7183 37.4497 65.6034 38.3744C66.4886 39.3039 67.0352 40.5838 67.0352 41.9999V50.5406H70.2856V41.9999C70.2856 39.6445 69.3762 37.5081 67.9058 35.9606M49.3513 45.6255C48.4662 46.5501 47.2473 47.1244 45.9026 47.1244C44.5579 47.1244 43.339 46.5501 42.4539 45.6255C41.5735 44.696 41.027 43.4161 41.027 41.9999C41.027 40.5838 41.5735 39.3039 42.4539 38.3792C43.339 37.4497 44.5579 36.8755 45.9026 36.8755C47.2473 36.8755 48.4662 37.4497 49.3513 38.3744C50.2317 39.3039 50.7782 40.5838 50.7782 41.9999C50.7782 43.4161 50.2317 44.696 49.3513 45.6255ZM45.9026 33.4641C43.6583 33.4641 41.6267 34.4228 40.1563 35.9655C38.6859 37.513 37.7765 39.6494 37.7765 42.0048C37.7765 43.421 37.23 44.7008 36.3496 45.6303C35.4645 46.555 34.2456 47.1292 32.9009 47.1292C31.5562 47.1292 30.3373 46.555 29.4522 45.6303C28.567 44.7008 28.0204 43.421 28.0204 42.0048C28.0204 40.5886 28.567 39.3088 29.4522 38.3841C30.3325 37.4546 31.5514 36.8804 32.9009 36.8804C34.2504 36.8804 35.4645 37.4546 36.3496 38.3792C36.4706 38.5106 36.5818 38.642 36.6931 38.7832C37.0607 37.6298 37.6073 36.5738 38.3134 35.6443C36.8769 34.2914 34.9856 33.4641 32.9009 33.4641C30.6566 33.4641 28.6251 34.4228 27.1546 35.9655C25.6842 37.513 24.7749 39.6494 24.7749 42.0048C24.7749 44.3602 25.6842 46.5014 27.1595 48.0441C28.6299 49.5868 30.6614 50.5406 32.9058 50.5406C35.1501 50.5406 37.1816 49.5868 38.652 48.0393C38.9229 47.7521 39.1744 47.4456 39.4066 47.1244C39.6388 47.4504 39.8903 47.7521 40.1612 48.0393C41.6316 49.5819 43.6631 50.5358 45.9074 50.5358C48.1518 50.5358 50.1833 49.582 51.6537 48.0344C53.1241 46.4869 54.0335 44.3553 54.0335 41.9951C54.0335 39.6348 53.1241 37.5033 51.6537 35.9557C50.1833 34.413 48.1469 33.4543 45.9074 33.4543" fill="white"/>
<path d="M104.851 20.8063C99.9992 20.8063 96.0522 16.6601 96.0522 11.56C96.0522 6.45986 99.9992 2.3136 104.851 2.3136C109.702 2.3136 113.654 6.45986 113.654 11.56C113.654 16.6601 109.707 20.8063 104.851 20.8063Z" fill="#F3C716"/>
<path d="M104.85 1.69556C99.6749 1.69556 95.4619 6.11921 95.4619 11.56C95.4619 17.0007 99.6749 21.4244 104.85 21.4244C110.026 21.4244 114.239 17.0007 114.239 11.56C114.239 6.11921 110.026 1.69556 104.85 1.69556ZM104.85 2.93165C109.387 2.93165 113.064 6.79566 113.064 11.56C113.064 16.3243 109.387 20.1883 104.85 20.1883C100.313 20.1883 96.6373 16.3243 96.6373 11.56C96.6373 6.79566 100.313 2.93165 104.85 2.93165Z" fill="white"/>
<path d="M104.851 51.2463C99.9992 51.2463 96.0522 47.1 96.0522 41.9999C96.0522 36.8998 99.9992 32.7535 104.851 32.7535C109.702 32.7535 113.654 36.8998 113.654 41.9999C113.654 47.1 109.707 51.2463 104.851 51.2463Z" fill="#00A6E9"/>
<path d="M104.85 32.1355C99.6749 32.1355 95.4619 36.5592 95.4619 41.9999C95.4619 47.4407 99.6749 51.8643 104.85 51.8643C110.026 51.8643 114.239 47.4407 114.239 41.9999C114.239 36.5592 110.026 32.1355 104.85 32.1355ZM104.85 33.3716C109.387 33.3716 113.064 37.2356 113.064 41.9999C113.064 46.7642 109.387 50.6282 104.85 50.6282C100.313 50.6282 96.6373 46.7642 96.6373 41.9999C96.6373 37.2356 100.313 33.3716 104.85 33.3716Z" fill="white"/>
<path d="M104.851 81.5939C99.9992 81.5939 96.0522 77.4477 96.0522 72.3476C96.0522 67.2475 99.9992 63.1012 104.851 63.1012C109.702 63.1012 113.654 67.2475 113.654 72.3476C113.654 77.4477 109.707 81.5939 104.851 81.5939Z" fill="#EC008C"/>
<path d="M104.85 62.4832C99.6749 62.4832 95.4619 66.9068 95.4619 72.3476C95.4619 77.7883 99.6749 82.212 104.85 82.212C110.026 82.212 114.239 77.7883 114.239 72.3476C114.239 66.9068 110.026 62.4832 104.85 62.4832ZM104.85 63.7192C109.387 63.7192 113.064 67.5833 113.064 72.3476C113.064 77.1119 109.387 80.9759 104.85 80.9759C100.313 80.9759 96.6373 77.1119 96.6373 72.3476C96.6373 67.5833 100.313 63.7192 104.85 63.7192Z" fill="white"/>
</g>
<defs>
<clipPath id="clip0_60_31570">
<rect width="435" height="82.7696" fill="white" transform="translate(0 0.615234)"/>
</clipPath>
</defs>
</svg>
